<svg width="20" height="20" viewBox="0 0 20 20" fill="none" xmlns="http://www.w3.org/2000/svg">
<path fill-rule="evenodd" clip-rule="evenodd" d="M10.0867 2.49999C7.6665 2.49999 5.79539 4.32996 5.79539 6.47869V8.51562C5.79539 8.78376 5.68521 9.02066 5.62779 9.13718C5.55318 9.2886 5.45562 9.44914 5.35156 9.60655C5.14191 9.92367 4.86132 10.2946 4.56237 10.6696C4.17879 11.1507 4.09712 11.7079 4.21932 12.1356C4.33541 12.542 4.63686 12.86 5.15125 12.9453C6.44844 13.1604 8.10685 13.3333 10.0867 13.3333C12.2126 13.3333 13.8374 13.134 15.0123 12.9002C15.4297 12.8172 15.6709 12.565 15.7753 12.2388C15.8868 11.8903 15.8476 11.4174 15.5671 10.9672C15.4322 10.7509 15.2873 10.5298 15.1413 10.3082C15.1264 10.2855 15.1114 10.2628 15.0965 10.2401C14.9672 10.044 14.837 9.84646 14.7211 9.66293C14.5932 9.4605 14.4689 9.2536 14.3744 9.06465C14.3006 8.91698 14.1667 8.63524 14.1667 8.33333V6.42661C14.1667 4.24435 12.472 2.49999 10.0867 2.49999ZM4.12873 6.47869C4.12873 3.3122 6.84641 0.833328 10.0867 0.833328C13.362 0.833328 15.8333 3.29365 15.8333 6.42661V8.25143C15.8403 8.26764 15.8505 8.29007 15.8652 8.31938C15.9215 8.43208 16.01 8.58256 16.1302 8.77283C16.2369 8.9418 16.3578 9.12522 16.4887 9.32393C16.5034 9.34621 16.5182 9.36868 16.5332 9.39135C16.679 9.61271 16.8344 9.84959 16.9815 10.0857C17.4975 10.9136 17.6362 11.8915 17.3627 12.7466C17.082 13.6241 16.3754 14.3284 15.3375 14.5349C14.0513 14.7908 12.3174 15 10.0867 15C8.00958 15 6.25987 14.8186 4.87859 14.5895C3.69408 14.3931 2.89982 13.5843 2.61676 12.5934C2.33979 11.6239 2.5555 10.5132 3.25919 9.63061C3.54685 9.2698 3.7919 8.94357 3.96124 8.68742C4.04305 8.56368 4.0972 8.47121 4.12873 8.40863V6.47869ZM4.1531 8.35408C4.15334 8.35396 4.15218 8.35761 4.14895 8.3654C4.15125 8.3581 4.15287 8.3542 4.1531 8.35408ZM13.1544 16.1507C13.4393 16.5121 13.3774 17.036 13.016 17.321C11.315 18.6623 8.70267 18.6794 6.98327 17.3205C6.62219 17.0351 6.56082 16.511 6.8462 16.1499C7.13157 15.7889 7.65563 15.7275 8.01671 16.0129C9.1256 16.8893 10.8835 16.8801 11.984 16.0123C12.3454 15.7273 12.8694 15.7893 13.1544 16.1507Z" fill="currentColor"/>
</svg>
