<svg width="20" height="20" viewBox="0 0 20 20" fill="none" xmlns="http://www.w3.org/2000/svg">
<path fill-rule="evenodd" clip-rule="evenodd" d="M6.66667 0.833344C7.1269 0.833344 7.5 1.20644 7.5 1.66668V2.50191C7.74769 2.50001 8.01499 2.50001 8.30374 2.50001H11.6963C11.985 2.50001 12.2523 2.50001 12.5 2.50191V1.66668C12.5 1.20644 12.8731 0.833344 13.3333 0.833344C13.7936 0.833344 14.1667 1.20644 14.1667 1.66668V2.60384C14.4326 2.64919 14.6842 2.71624 14.9278 2.81718C15.9488 3.24007 16.7599 4.05121 17.1828 5.07216C17.3588 5.49691 17.4317 5.94548 17.4663 6.45276C17.5 6.9461 17.5 7.55228 17.5 8.30374V11.3363C17.5 12.2546 17.5 12.9954 17.4502 13.5949C17.399 14.2122 17.2906 14.7541 17.0309 15.2541C16.6356 16.0151 16.0151 16.6356 15.2541 17.0309C14.7541 17.2906 14.2122 17.399 13.5949 17.4502C12.9954 17.5 12.2546 17.5 11.3363 17.5H8.66374C7.74537 17.5 7.00464 17.5 6.40514 17.4502C5.78779 17.399 5.24594 17.2906 4.74594 17.0309C3.98493 16.6356 3.36443 16.0151 2.96911 15.2541C2.70938 14.7541 2.60104 14.2122 2.54977 13.5949C2.49998 12.9954 2.49999 12.2547 2.5 11.3363V8.30375C2.49999 7.55228 2.49999 6.94611 2.53365 6.45276C2.56826 5.94548 2.64123 5.49691 2.81717 5.07216C3.24006 4.05121 4.0512 3.24007 5.07215 2.81718C5.31584 2.71624 5.56737 2.64919 5.83333 2.60384V1.66668C5.83333 1.20644 6.20643 0.833344 6.66667 0.833344ZM5.83333 4.31231C5.78911 4.32619 5.74832 4.34109 5.70996 4.35698C5.09739 4.61071 4.6107 5.0974 4.35697 5.70997C4.27917 5.89779 4.22527 6.14379 4.19645 6.56622C4.17877 6.82539 4.17158 7.12794 4.16866 7.50001H15.8313C15.8284 7.12794 15.8212 6.82539 15.8035 6.56622C15.7747 6.14379 15.7208 5.89779 15.643 5.70997C15.3893 5.0974 14.9026 4.61071 14.29 4.35698C14.2517 4.34109 14.2109 4.32619 14.1667 4.31231V5.00001C14.1667 5.46025 13.7936 5.83334 13.3333 5.83334C12.8731 5.83334 12.5 5.46025 12.5 5.00001V4.16867C12.2549 4.16675 11.9796 4.16668 11.6667 4.16668H8.33333C8.0204 4.16668 7.74511 4.16675 7.5 4.16867V5.00001C7.5 5.46025 7.1269 5.83334 6.66667 5.83334C6.20643 5.83334 5.83333 5.46025 5.83333 5.00001V4.31231ZM15.8333 9.16668H4.16667V11.3C4.16667 12.2631 4.16734 12.9345 4.21072 13.4569C4.25327 13.9694 4.33258 14.2633 4.44813 14.4858C4.68532 14.9424 5.05762 15.3147 5.51423 15.5519C5.73669 15.6674 6.03065 15.7467 6.54307 15.7893C7.06546 15.8327 7.73686 15.8333 8.7 15.8333H11.3C12.2631 15.8333 12.9345 15.8327 13.4569 15.7893C13.9694 15.7467 14.2633 15.6674 14.4858 15.5519C14.9424 15.3147 15.3147 14.9424 15.5519 14.4858C15.6674 14.2633 15.7467 13.9694 15.7893 13.4569C15.8327 12.9345 15.8333 12.2631 15.8333 11.3V9.16668ZM10.8333 13.3333C10.8333 12.8731 11.2064 12.5 11.6667 12.5H13.3333C13.7936 12.5 14.1667 12.8731 14.1667 13.3333C14.1667 13.7936 13.7936 14.1667 13.3333 14.1667H11.6667C11.2064 14.1667 10.8333 13.7936 10.8333 13.3333Z" fill="currentColor"/>
</svg>
