<svg width="20" height="20" viewBox="0 0 20 20" fill="none" xmlns="http://www.w3.org/2000/svg">
<path fill-rule="evenodd" clip-rule="evenodd" d="M4.4107 4.41073C4.73614 4.0853 5.26378 4.0853 5.58922 4.41073L9.99996 8.82148L14.4107 4.41073C14.7361 4.0853 15.2638 4.0853 15.5892 4.41073C15.9147 4.73617 15.9147 5.26381 15.5892 5.58925L11.1785 9.99999L15.5892 14.4107C15.9147 14.7362 15.9147 15.2638 15.5892 15.5892C15.2638 15.9147 14.7361 15.9147 14.4107 15.5892L9.99996 11.1785L5.58922 15.5892C5.26378 15.9147 4.73614 15.9147 4.4107 15.5892C4.08527 15.2638 4.08527 14.7362 4.4107 14.4107L8.82145 9.99999L4.4107 5.58925C4.08527 5.26381 4.08527 4.73617 4.4107 4.41073Z" fill="currentColor"/>
</svg>
