<svg width="20" height="20" viewBox="0 0 20 20" fill="none" xmlns="http://www.w3.org/2000/svg">
<path d="M4.16671 13.3333C4.16671 12.8731 4.53981 12.5 5.00004 12.5H6.66671C7.12695 12.5 7.50004 12.8731 7.50004 13.3333C7.50004 13.7936 7.12695 14.1667 6.66671 14.1667H5.00004C4.53981 14.1667 4.16671 13.7936 4.16671 13.3333Z" fill="currentColor"/>
<path d="M9.16671 12.5C8.70647 12.5 8.33338 12.8731 8.33338 13.3333C8.33338 13.7936 8.70647 14.1667 9.16671 14.1667H10C10.4603 14.1667 10.8334 13.7936 10.8334 13.3333C10.8334 12.8731 10.4603 12.5 10 12.5H9.16671Z" fill="currentColor"/>
<path fill-rule="evenodd" clip-rule="evenodd" d="M5.6567 2.5C4.97461 2.49999 4.41165 2.49998 3.95332 2.53804C3.47719 2.57758 3.03982 2.66247 2.63013 2.87529C2.02132 3.19154 1.52492 3.68794 1.20866 4.29675C0.995843 4.70645 0.910957 5.14382 0.871417 5.61994C0.833355 6.07827 0.833364 6.64122 0.833374 7.32332V12.6767C0.833364 13.3588 0.833355 13.9217 0.871417 14.3801C0.910957 14.8562 0.995843 15.2936 1.20866 15.7033C1.52492 16.3121 2.02132 16.8085 2.63013 17.1247C3.03982 17.3375 3.47719 17.4224 3.95332 17.462C4.41166 17.5 4.97461 17.5 5.65673 17.5H14.3434C15.0255 17.5 15.5884 17.5 16.0468 17.462C16.5229 17.4224 16.9603 17.3375 17.37 17.1247C17.9788 16.8085 18.4752 16.3121 18.7914 15.7033C19.0042 15.2936 19.0891 14.8562 19.1287 14.3801C19.1667 13.9217 19.1667 13.3588 19.1667 12.6766V7.32335C19.1667 6.64124 19.1667 6.07828 19.1287 5.61994C19.0891 5.14382 19.0042 4.70645 18.7914 4.29675C18.4752 3.68794 17.9788 3.19154 17.37 2.87529C16.9603 2.66247 16.5229 2.57758 16.0468 2.53804C15.5884 2.49998 15.0255 2.49999 14.3434 2.5H5.6567ZM3.39842 4.35431C3.53057 4.28567 3.72005 4.22982 4.09125 4.19899C4.47243 4.16734 4.96586 4.16667 5.69171 4.16667H14.3084C15.0342 4.16667 15.5277 4.16734 15.9088 4.19899C16.28 4.22982 16.4695 4.28567 16.6017 4.35431C16.9061 4.51244 17.1543 4.76064 17.3124 5.06504C17.381 5.19719 17.4369 5.38668 17.4677 5.75788C17.4881 6.00349 17.4956 6.2957 17.4984 6.66667H2.50166C2.50444 6.2957 2.51197 6.00349 2.53237 5.75788C2.56319 5.38668 2.61904 5.19719 2.68769 5.06504C2.84581 4.76064 3.09401 4.51244 3.39842 4.35431ZM2.50004 8.33334V12.6417C2.50004 13.3675 2.50071 13.861 2.53237 14.2421C2.56319 14.6133 2.61904 14.8028 2.68769 14.935C2.84581 15.2394 3.09401 15.4876 3.39842 15.6457C3.53057 15.7143 3.72005 15.7702 4.09125 15.801C4.47243 15.8327 4.96586 15.8333 5.69171 15.8333H14.3084C15.0342 15.8333 15.5277 15.8327 15.9088 15.801C16.28 15.7702 16.4695 15.7143 16.6017 15.6457C16.9061 15.4876 17.1543 15.2394 17.3124 14.935C17.381 14.8028 17.4369 14.6133 17.4677 14.2421C17.4994 13.861 17.5 13.3675 17.5 12.6417V8.33334H2.50004Z" fill="currentColor"/>
</svg>
