<svg width="20" height="20" viewBox="0 0 20 20" fill="none" xmlns="http://www.w3.org/2000/svg">
<path fill-rule="evenodd" clip-rule="evenodd" d="M5.83333 2.50001C4.91286 2.50001 4.16667 3.2462 4.16667 4.16668V14.3333C4.16667 15.0472 4.16732 15.5324 4.19796 15.9075C4.22781 16.2728 4.28192 16.4597 4.34832 16.59C4.50811 16.9036 4.76308 17.1586 5.07668 17.3184C5.20702 17.3848 5.39385 17.4389 5.7592 17.4687C6.13427 17.4994 6.61952 17.5 7.33333 17.5H12.6667C13.3805 17.5 13.8657 17.4994 14.2408 17.4687C14.6061 17.4389 14.793 17.3848 14.9233 17.3184C15.2369 17.1586 15.4919 16.9036 15.6517 16.59C15.7181 16.4597 15.7722 16.2728 15.802 15.9075C15.8327 15.5324 15.8333 15.0472 15.8333 14.3333V10.8333C15.8333 8.99239 14.341 7.50001 12.5 7.50001H11.875C10.3792 7.50001 9.16667 6.28745 9.16667 4.79168C9.16667 3.52602 8.14065 2.50001 6.875 2.50001H5.83333ZM8.33333 0.833344C13.3959 0.833344 17.5 4.9374 17.5 10V14.3678C17.5 15.0386 17.5 15.5922 17.4632 16.0432C17.4249 16.5116 17.3428 16.9422 17.1367 17.3466C16.8171 17.9739 16.3072 18.4838 15.68 18.8034C15.2755 19.0094 14.8449 19.0916 14.3765 19.1299C13.9255 19.1667 13.3719 19.1667 12.7011 19.1667H7.2989C6.6281 19.1667 6.07447 19.1667 5.62348 19.1299C5.15506 19.0916 4.72448 19.0094 4.32003 18.8034C3.69283 18.4838 3.18289 17.9739 2.86331 17.3466C2.65724 16.9422 2.5751 16.5116 2.53683 16.0432C2.49998 15.5922 2.49999 15.0386 2.5 14.3678L2.5 4.16668C2.5 2.32573 3.99239 0.833344 5.83333 0.833344H8.33333ZM14.9562 6.4772C13.9889 4.66256 12.2977 3.29229 10.268 2.75191C10.6269 3.34762 10.8333 4.04554 10.8333 4.79168C10.8333 5.36697 11.2997 5.83334 11.875 5.83334H12.5C13.3927 5.83334 14.2307 6.06728 14.9562 6.4772Z" fill="currentColor"/>
</svg>
