<svg width="20" height="20" viewBox="0 0 20 20" fill="none" xmlns="http://www.w3.org/2000/svg">
<path fill-rule="evenodd" clip-rule="evenodd" d="M9.99997 2.5C10.4602 2.5 10.8333 2.8731 10.8333 3.33333V10.4882L12.744 8.57741C13.0695 8.25198 13.5971 8.25198 13.9226 8.57741C14.248 8.90285 14.248 9.43049 13.9226 9.75592L10.5892 13.0893C10.4329 13.2455 10.221 13.3333 9.99997 13.3333C9.77896 13.3333 9.56699 13.2455 9.41071 13.0893L6.07738 9.75592C5.75194 9.43049 5.75194 8.90285 6.07738 8.57741C6.40282 8.25197 6.93046 8.25197 7.25589 8.57741L9.16664 10.4882V3.33333C9.16664 2.8731 9.53973 2.5 9.99997 2.5ZM3.3333 11.6667C3.79354 11.6667 4.16664 12.0398 4.16664 12.5C4.16664 13.3144 4.17067 13.5999 4.21467 13.8211C4.41194 14.8128 5.18718 15.588 6.17891 15.7853C6.40012 15.8293 6.6856 15.8333 7.49997 15.8333H12.5C13.3143 15.8333 13.5998 15.8293 13.821 15.7853C14.8128 15.588 15.588 14.8128 15.7853 13.8211C15.8293 13.5999 15.8333 13.3144 15.8333 12.5C15.8333 12.0398 16.2064 11.6667 16.6666 11.6667C17.1269 11.6667 17.5 12.0398 17.5 12.5C17.5 12.5326 17.5 12.5648 17.5 12.5964C17.5002 13.2778 17.5003 13.7422 17.4199 14.1462C17.0911 15.7991 15.7991 17.0912 14.1462 17.4199C13.7422 17.5003 13.2778 17.5002 12.5965 17.5C12.5648 17.5 12.5326 17.5 12.5 17.5H7.49997C7.46733 17.5 7.43517 17.5 7.40349 17.5C6.72216 17.5002 6.25776 17.5003 5.85376 17.4199C4.20088 17.0912 2.90881 15.7991 2.58003 14.1462C2.49967 13.7422 2.49979 13.2778 2.49995 12.5965C2.49996 12.5648 2.49997 12.5326 2.49997 12.5C2.49997 12.0398 2.87307 11.6667 3.3333 11.6667Z" fill="currentColor"/>
</svg>
