<svg width="20" height="20" viewBox="0 0 20 20" fill="none" xmlns="http://www.w3.org/2000/svg">
<path d="M8.08928 6.91076C7.76384 6.58533 7.2362 6.58533 6.91076 6.91076C6.58533 7.2362 6.58533 7.76384 6.91076 8.08928L8.82151 10L6.91076 11.9108C6.58533 12.2362 6.58533 12.7638 6.91076 13.0893C7.2362 13.4147 7.76384 13.4147 8.08928 13.0893L10 11.1785L11.9108 13.0893C12.2362 13.4147 12.7638 13.4147 13.0893 13.0893C13.4147 12.7638 13.4147 12.2362 13.0893 11.9108L11.1785 10L13.0893 8.08928C13.4147 7.76384 13.4147 7.2362 13.0893 6.91076C12.7638 6.58533 12.2362 6.58533 11.9108 6.91076L10 8.82151L8.08928 6.91076Z" fill="currentColor"/>
<path fill-rule="evenodd" clip-rule="evenodd" d="M10 1.66669C5.39765 1.66669 1.66669 5.39765 1.66669 10C1.66669 14.6024 5.39765 18.3334 10 18.3334C14.6024 18.3334 18.3334 14.6024 18.3334 10C18.3334 5.39765 14.6024 1.66669 10 1.66669ZM3.33335 10C3.33335 6.31812 6.31812 3.33335 10 3.33335C13.6819 3.33335 16.6667 6.31812 16.6667 10C16.6667 13.6819 13.6819 16.6667 10 16.6667C6.31812 16.6667 3.33335 13.6819 3.33335 10Z" fill="currentColor"/>
</svg>
