<svg width="20" height="20" viewBox="0 0 20 20" fill="none" xmlns="http://www.w3.org/2000/svg">
<path fill-rule="evenodd" clip-rule="evenodd" d="M7.83041 18.3333C6.91204 18.3333 6.17132 18.3334 5.57182 18.2836C4.95448 18.2323 4.41263 18.124 3.91263 17.8642C3.15162 17.4689 2.53111 16.8484 2.1358 16.0874C1.87607 15.5874 1.76772 15.0455 1.71646 14.4282C1.66667 13.8287 1.66668 13.0879 1.66669 12.1696L1.66669 10.3304C1.66668 9.41202 1.66667 8.6713 1.71646 8.07181C1.76773 7.45446 1.87607 6.91262 2.1358 6.41261C2.53111 5.6516 3.15162 5.0311 3.91263 4.63578C4.41263 4.37605 4.95448 4.26771 5.57182 4.21644C6.17132 4.16666 6.91205 4.16666 7.83041 4.16667H9.16669C9.62692 4.16667 10 4.53977 10 5.00001C10 5.46024 9.62692 5.83334 9.16669 5.83334H7.86669C6.90355 5.83334 6.23215 5.83401 5.70976 5.87739C5.19734 5.91995 4.90338 5.99925 4.68092 6.11481C4.22431 6.35199 3.85201 6.7243 3.61482 7.1809C3.49926 7.40336 3.41996 7.69732 3.37741 8.20974C3.33402 8.73214 3.33335 9.40353 3.33335 10.3667L3.33335 12.1333C3.33335 13.0965 3.33402 13.7679 3.37741 14.2903C3.41996 14.8027 3.49926 15.0967 3.61482 15.3191C3.85201 15.7757 4.22431 16.148 4.68092 16.3852C4.90337 16.5008 5.19734 16.5801 5.70976 16.6226C6.23215 16.666 6.90355 16.6667 7.86669 16.6667H9.63335C10.5965 16.6667 11.2679 16.666 11.7903 16.6226C12.3027 16.5801 12.5967 16.5008 12.8191 16.3852C13.2757 16.148 13.648 15.7757 13.8852 15.3191C14.0008 15.0967 14.0801 14.8027 14.1226 14.2903C14.166 13.7679 14.1667 13.0965 14.1667 12.1333V10.8333C14.1667 10.3731 14.5398 10 15 10C15.4603 10 15.8334 10.3731 15.8334 10.8333V12.1696C15.8334 13.088 15.8334 13.8287 15.7836 14.4282C15.7323 15.0455 15.624 15.5874 15.3642 16.0874C14.9689 16.8484 14.3484 17.4689 13.5874 17.8642C13.0874 18.124 12.5456 18.2323 11.9282 18.2836C11.3287 18.3334 10.588 18.3333 9.66964 18.3333H7.83041Z" fill="currentColor"/>
<path fill-rule="evenodd" clip-rule="evenodd" d="M11.1785 2.50001C11.1785 2.03977 11.5516 1.66667 12.0119 1.66667H17.4285C17.8888 1.66667 18.2619 2.03977 18.2619 2.50001V7.91667C18.2619 8.37691 17.8888 8.75 17.4285 8.75C16.9683 8.75 16.5952 8.37691 16.5952 7.91667V4.49958L11.4226 9.67217C11.0972 9.99761 10.5695 9.99761 10.2441 9.67217C9.91866 9.34674 9.91866 8.8191 10.2441 8.49366L15.4044 3.33334H12.0119C11.5516 3.33334 11.1785 2.96024 11.1785 2.50001Z" fill="currentColor"/>
</svg>
