<svg width="20" height="20" viewBox="0 0 20 20" fill="none" xmlns="http://www.w3.org/2000/svg">
<path d="M10.8333 14.1667C10.8333 14.6269 10.4602 15 9.99996 15C9.53972 15 9.16663 14.6269 9.16663 14.1667C9.16663 13.7064 9.53972 13.3334 9.99996 13.3334C10.4602 13.3334 10.8333 13.7064 10.8333 14.1667Z" fill="currentColor"/>
<path d="M8.54163 8.02085C8.54163 7.30908 9.15759 6.66669 9.99996 6.66669C10.8423 6.66669 11.4583 7.30908 11.4583 8.02085C11.4583 8.50968 11.176 8.95701 10.7204 9.19839C10.5022 9.31402 10.1837 9.48562 9.91051 9.75367C9.4347 10.2205 9.16663 10.8591 9.16663 11.5257V11.6667C9.16663 12.1269 9.53972 12.5 9.99996 12.5C10.4602 12.5 10.8333 12.1269 10.8333 11.6667V11.5257C10.8333 11.3066 10.9214 11.0968 11.0777 10.9433C11.1596 10.8631 11.2796 10.7883 11.5008 10.6711C12.454 10.166 13.125 9.17895 13.125 8.02085C13.125 6.31638 11.6889 5.00002 9.99996 5.00002C8.31103 5.00002 6.87496 6.31638 6.87496 8.02085C6.87496 8.48109 7.24806 8.85419 7.70829 8.85419C8.16853 8.85419 8.54163 8.48109 8.54163 8.02085Z" fill="currentColor"/>
<path fill-rule="evenodd" clip-rule="evenodd" d="M1.66663 10C1.66663 5.39765 5.39759 1.66669 9.99996 1.66669C14.6023 1.66669 18.3333 5.39765 18.3333 10C18.3333 14.6024 14.6023 18.3334 9.99996 18.3334C5.39759 18.3334 1.66663 14.6024 1.66663 10ZM9.99996 3.33335C6.31806 3.33335 3.33329 6.31812 3.33329 10C3.33329 13.6819 6.31806 16.6667 9.99996 16.6667C13.6819 16.6667 16.6666 13.6819 16.6666 10C16.6666 6.31812 13.6819 3.33335 9.99996 3.33335Z" fill="currentColor"/>
</svg>
