<svg width="20" height="20" viewBox="0 0 20 20" fill="none" xmlns="http://www.w3.org/2000/svg">
<path fill-rule="evenodd" clip-rule="evenodd" d="M10 4.99999C8.15905 4.99999 6.66667 6.49238 6.66667 8.33333C6.66667 10.1743 8.15905 11.6667 10 11.6667C11.8409 11.6667 13.3333 10.1743 13.3333 8.33333C13.3333 6.49238 11.8409 4.99999 10 4.99999ZM10 6.66666C9.07953 6.66666 8.33333 7.41285 8.33333 8.33333C8.33333 9.2538 9.07953 9.99999 10 9.99999C10.9205 9.99999 11.6667 9.2538 11.6667 8.33333C11.6667 7.41285 10.9205 6.66666 10 6.66666Z" fill="currentColor"/>
<path fill-rule="evenodd" clip-rule="evenodd" d="M9.24172 18.8298C9.33826 18.8961 9.41505 18.9472 9.46879 18.9823L9.55729 19.0393C9.82778 19.2087 10.1717 19.209 10.4422 19.0396L10.5312 18.9823C10.585 18.9472 10.6617 18.8961 10.7583 18.8298C10.9513 18.6972 11.2237 18.5034 11.5492 18.2534C12.1989 17.7545 13.0667 17.0268 13.9372 16.1113C15.6547 14.3051 17.5 11.6437 17.5 8.48484C17.5 6.4615 16.7143 4.51736 15.3099 3.08106C13.9049 1.64412 11.9952 0.833328 10 0.833328C8.00476 0.833328 6.09512 1.64412 4.69012 3.08106C3.28573 4.51736 2.5 6.4615 2.5 8.48484C2.5 11.6437 4.34529 14.3051 6.06276 16.1113C6.93328 17.0268 7.80113 17.7545 8.45077 18.2534C8.77627 18.5034 9.04873 18.6972 9.24172 18.8298ZM10 2.49999C8.45902 2.49999 6.97727 3.12588 5.88179 4.24626C4.78569 5.36727 4.16667 6.89159 4.16667 8.48484C4.16667 11.0006 5.65471 13.2635 7.27057 14.9628C8.06672 15.8001 8.86554 16.4705 9.46589 16.9316C9.67053 17.0887 9.85129 17.2209 10 17.3265C10.1487 17.2209 10.3295 17.0887 10.5341 16.9316C11.1345 16.4705 11.9333 15.8001 12.7294 14.9628C14.3453 13.2635 15.8333 11.0006 15.8333 8.48484C15.8333 6.8916 15.2143 5.36727 14.1182 4.24626C13.0227 3.12588 11.541 2.49999 10 2.49999Z" fill="currentColor"/>
</svg>
