<svg width="20" height="20" viewBox="0 0 20 20" fill="none" xmlns="http://www.w3.org/2000/svg">
<path fill-rule="evenodd" clip-rule="evenodd" d="M6.99709 2.5H13.003C13.9214 2.49999 14.6621 2.49998 15.2616 2.54977C15.8789 2.60104 16.4208 2.70938 16.9208 2.96911C17.6818 3.36443 18.3023 3.98493 18.6976 4.74594C18.9573 5.24594 19.0657 5.78779 19.1169 6.40514C19.1667 7.00464 19.1667 7.74537 19.1667 8.66374V11.3363C19.1667 12.2546 19.1667 12.9954 19.1169 13.5949C19.0657 14.2122 18.9573 14.7541 18.6976 15.2541C18.3023 16.0151 17.6818 16.6356 16.9208 17.0309C16.4208 17.2906 15.8789 17.399 15.2616 17.4502C14.6621 17.5 13.9213 17.5 13.003 17.5H6.99712C6.07874 17.5 5.33801 17.5 4.73851 17.4502C4.12116 17.399 3.57932 17.2906 3.07931 17.0309C2.3183 16.6356 1.6978 16.0151 1.30249 15.2541C1.04275 14.7541 0.934412 14.2122 0.883144 13.5949C0.833359 12.9954 0.833366 12.2546 0.833374 11.3363V8.66372C0.833366 7.74535 0.833359 7.00463 0.883144 6.40514C0.934412 5.78779 1.04275 5.24594 1.30249 4.74594C1.6978 3.98493 2.3183 3.36443 3.07931 2.96911C3.57932 2.70938 4.12116 2.60104 4.73851 2.54977C5.33801 2.49998 6.07873 2.49999 6.99709 2.5ZM4.37732 4.27542C5.08453 4.44135 5.74102 4.793 6.27519 5.30172L8.72418 7.6341C9.06286 7.95665 9.28124 8.16375 9.46027 8.30848C9.63128 8.44672 9.71177 8.48169 9.75633 8.49531C9.91517 8.54389 10.0849 8.54389 10.2438 8.49531C10.2883 8.48169 10.3688 8.44672 10.5398 8.30848C10.7188 8.16375 10.9372 7.95665 11.2759 7.6341L13.7249 5.30172C14.2591 4.793 14.9156 4.44135 15.6228 4.27542C15.4827 4.24852 15.3191 4.22695 15.1236 4.21072C14.6012 4.16734 13.9298 4.16667 12.9667 4.16667H7.03337C6.07024 4.16667 5.39884 4.16734 4.87644 4.21072C4.68101 4.22695 4.51735 4.24852 4.37732 4.27542ZM17.3422 5.83333H16.5625C15.934 5.83333 15.3295 6.07513 14.8743 6.50862L12.4024 8.86288C12.0932 9.15736 11.8257 9.41212 11.5876 9.60459C11.3356 9.8083 11.0634 9.98752 10.7312 10.0891C10.2546 10.2348 9.74543 10.2348 9.2689 10.0891C8.93673 9.98752 8.66446 9.8083 8.41247 9.60459C8.17439 9.41212 7.9069 9.15735 7.59771 8.86286L5.12576 6.50862C4.67059 6.07513 4.06611 5.83333 3.43754 5.83333H2.65789C2.6072 6.01387 2.56923 6.24035 2.54409 6.54307C2.50071 7.06546 2.50004 7.73686 2.50004 8.7V11.3C2.50004 12.2631 2.50071 12.9345 2.54409 13.4569C2.58665 13.9694 2.66595 14.2633 2.78151 14.4858C3.0187 14.9424 3.391 15.3147 3.84761 15.5519C4.07006 15.6674 4.36402 15.7467 4.87644 15.7893C5.39884 15.8327 6.07024 15.8333 7.03338 15.8333H12.9667C13.9298 15.8333 14.6012 15.8327 15.1236 15.7893C15.6361 15.7467 15.93 15.6674 16.1525 15.5519C16.6091 15.3147 16.9814 14.9424 17.2186 14.4858C17.3341 14.2633 17.4134 13.9694 17.456 13.4569C17.4994 12.9345 17.5 12.2631 17.5 11.3V8.7C17.5 7.73686 17.4994 7.06546 17.456 6.54307C17.4308 6.24035 17.3929 6.01387 17.3422 5.83333Z" fill="currentColor"/>
</svg>
