<svg width="20" height="20" viewBox="0 0 20 20" fill="none" xmlns="http://www.w3.org/2000/svg">
<path d="M6.66659 8.74998C6.66659 9.44034 6.10694 9.99998 5.41659 9.99998C4.72623 9.99998 4.16659 9.44034 4.16659 8.74998C4.16659 8.05962 4.72623 7.49998 5.41659 7.49998C6.10694 7.49998 6.66659 8.05962 6.66659 8.74998Z" fill="currentColor"/>
<path d="M8.74992 6.66665C9.44028 6.66665 9.99992 6.107 9.99992 5.41665C9.99992 4.72629 9.44028 4.16665 8.74992 4.16665C8.05956 4.16665 7.49992 4.72629 7.49992 5.41665C7.49992 6.107 8.05956 6.66665 8.74992 6.66665Z" fill="currentColor"/>
<path d="M14.1666 5.41665C14.1666 6.107 13.6069 6.66665 12.9166 6.66665C12.2262 6.66665 11.6666 6.107 11.6666 5.41665C11.6666 4.72629 12.2262 4.16665 12.9166 4.16665C13.6069 4.16665 14.1666 4.72629 14.1666 5.41665Z" fill="currentColor"/>
<path d="M6.24992 14.1666C6.94028 14.1666 7.49992 13.607 7.49992 12.9166C7.49992 12.2263 6.94028 11.6666 6.24992 11.6666C5.55956 11.6666 4.99992 12.2263 4.99992 12.9166C4.99992 13.607 5.55956 14.1666 6.24992 14.1666Z" fill="currentColor"/>
<path fill-rule="evenodd" clip-rule="evenodd" d="M0.833252 9.99998C0.833252 4.93737 4.93731 0.833313 9.99992 0.833313C14.9759 0.833313 19.1666 4.45766 19.1666 9.16665V9.17882C19.1666 9.61914 19.1666 10.3715 18.902 11.2489C18.2084 13.5479 15.6835 14.1636 13.7455 13.6686C13.3424 13.5657 12.9368 13.4542 12.5473 13.3422C11.8759 13.1492 11.2647 13.7414 11.3883 14.3595L11.653 15.6831L11.7485 16.2556C11.996 17.7409 10.8349 19.2513 9.18033 19.0415C6.37507 18.6858 4.26642 17.5839 2.86321 15.944C1.46427 14.3092 0.833252 12.2177 0.833252 9.99998ZM9.99992 2.49998C5.85778 2.49998 2.49992 5.85784 2.49992 9.99998C2.49992 11.9045 3.03886 13.5858 4.12955 14.8605C5.21595 16.1301 6.91659 17.0744 9.38998 17.3881C9.77888 17.4374 10.1956 17.0762 10.1045 16.5296L10.0135 15.9836L9.75403 14.6864C9.37216 12.777 11.2018 11.2214 13.0077 11.7404C13.3848 11.8488 13.7741 11.9557 14.158 12.0538C15.6463 12.434 16.9786 11.854 17.3063 10.7675C17.4974 10.1341 17.4999 9.58825 17.4999 9.16665C17.4999 5.5423 14.2287 2.49998 9.99992 2.49998Z" fill="currentColor"/>
</svg>
