<svg width="20" height="20" viewBox="0 0 20 20" fill="none" xmlns="http://www.w3.org/2000/svg">
<path fill-rule="evenodd" clip-rule="evenodd" d="M7.00748 3.28425C6.44775 2.87165 6.07083 2.77849 5.86858 2.81796C5.0342 2.9808 4.5396 3.3056 3.8695 3.9757C2.95482 4.89037 2.51101 5.57334 2.70431 6.60886C2.92686 7.80108 4.01411 9.6207 7.01079 12.6174C10.0073 15.6139 11.8379 16.7126 13.0368 16.9398C13.5924 17.0451 14.0155 16.9628 14.3951 16.7758C14.801 16.5759 15.1919 16.2393 15.6401 15.7715C16.0377 15.3566 16.279 15.067 16.4478 14.7821C16.6086 14.5107 16.7226 14.2106 16.8107 13.7599C16.8502 13.5576 16.757 13.1807 16.3443 12.6208C15.9594 12.0988 15.4164 11.5803 14.9144 11.157C14.5832 10.8777 14.0707 10.8599 13.6567 11.1698L12.3914 12.117C11.2501 12.9714 9.65535 12.849 8.64843 11.8421L7.78614 10.9798C6.77922 9.97284 6.65683 8.37806 7.5112 7.23678L8.45835 5.97154C8.76828 5.55754 8.75048 5.04503 8.47114 4.71378C8.04791 4.21189 7.52947 3.66904 7.00748 3.28425ZM7.99642 1.9427C8.67095 2.43993 9.28678 3.09566 9.74526 3.63935C10.581 4.63037 10.5128 6.00828 9.79258 6.97035L8.84543 8.23558C8.49255 8.70696 8.53816 9.37476 8.96465 9.80125L9.82694 10.6635C10.2534 11.09 10.9212 11.1356 11.3926 10.7828L12.6579 9.83557C13.6199 9.1154 14.9978 9.0472 15.9888 9.8828C16.5326 10.3413 17.1885 10.9572 17.6859 11.6319C18.1554 12.2687 18.6278 13.1508 18.4464 14.0794C18.3299 14.6757 18.1589 15.1637 17.8816 15.6317C17.6124 16.0862 17.2625 16.4873 16.8436 16.9246C16.358 17.4313 15.8045 17.9395 15.1316 18.2709C14.4324 18.6153 13.6423 18.7509 12.7264 18.5773C10.9822 18.2467 8.83649 16.8001 5.83228 13.7959C2.82827 10.7919 1.39087 8.65538 1.06594 6.91468C0.711763 5.01728 1.69766 3.7905 2.691 2.79718C3.51149 1.9767 4.2895 1.42802 5.54935 1.18216C6.47779 1.00097 7.35963 1.47328 7.99642 1.9427Z" fill="currentColor"/>
</svg>
