<svg width="20" height="20" viewBox="0 0 20 20" fill="none" xmlns="http://www.w3.org/2000/svg">
<path d="M10 8.33335C10.4603 8.33335 10.8334 8.70645 10.8334 9.16669V13.3334C10.8334 13.7936 10.4603 14.1667 10 14.1667C9.53978 14.1667 9.16669 13.7936 9.16669 13.3334V9.16669C9.16669 8.70645 9.53978 8.33335 10 8.33335Z" fill="currentColor"/>
<path d="M10 5.83335C10.4603 5.83335 10.8334 6.20645 10.8334 6.66669C10.8334 7.12692 10.4603 7.50002 10 7.50002C9.53978 7.50002 9.16669 7.12692 9.16669 6.66669C9.16669 6.20645 9.53978 5.83335 10 5.83335Z" fill="currentColor"/>
<path fill-rule="evenodd" clip-rule="evenodd" d="M1.66669 10C1.66669 5.39765 5.39765 1.66669 10 1.66669C14.6024 1.66669 18.3334 5.39765 18.3334 10C18.3334 14.6024 14.6024 18.3334 10 18.3334C5.39765 18.3334 1.66669 14.6024 1.66669 10ZM10 3.33335C6.31812 3.33335 3.33335 6.31812 3.33335 10C3.33335 13.6819 6.31812 16.6667 10 16.6667C13.6819 16.6667 16.6667 13.6819 16.6667 10C16.6667 6.31812 13.6819 3.33335 10 3.33335Z" fill="currentColor"/>
</svg>
