<svg width="20" height="20" viewBox="0 0 20 20" fill="none" xmlns="http://www.w3.org/2000/svg">
<path fill-rule="evenodd" clip-rule="evenodd" d="M9.99967 4.16667C8.61896 4.16667 7.49967 5.28595 7.49967 6.66667C7.49967 8.04738 8.61896 9.16667 9.99967 9.16667C11.3804 9.16667 12.4997 8.04738 12.4997 6.66667C12.4997 5.28595 11.3804 4.16667 9.99967 4.16667ZM5.83301 6.66667C5.83301 4.36548 7.69849 2.5 9.99967 2.5C12.3009 2.5 14.1663 4.36548 14.1663 6.66667C14.1663 8.96785 12.3009 10.8333 9.99967 10.8333C7.69849 10.8333 5.83301 8.96785 5.83301 6.66667ZM6.21308 13.9387C5.33454 14.3288 4.99967 14.8215 4.99967 15.4167C4.99967 15.603 5.03281 15.7085 5.08074 15.785C5.1287 15.8615 5.24313 15.991 5.5515 16.1306C6.21061 16.4287 7.51308 16.6667 9.99967 16.6667C12.4863 16.6667 13.7887 16.4287 14.4478 16.1306C14.7562 15.991 14.8706 15.8615 14.9186 15.785C14.9665 15.7085 14.9997 15.603 14.9997 15.4167C14.9997 14.8215 14.6648 14.3288 13.7863 13.9387C12.8842 13.5381 11.5598 13.3333 9.99967 13.3333C8.43954 13.3333 7.11515 13.5381 6.21308 13.9387ZM5.53669 12.4155C6.74587 11.8785 8.33815 11.6667 9.99967 11.6667C11.6612 11.6667 13.2535 11.8785 14.4627 12.4155C15.6954 12.9628 16.6663 13.9285 16.6663 15.4167C16.6663 15.8056 16.5953 16.2482 16.3307 16.6702C16.0662 17.0922 15.6598 17.4116 15.1348 17.6491C14.1273 18.1049 12.5131 18.3333 9.99967 18.3333C7.48627 18.3333 5.87207 18.1049 4.86452 17.6491C4.33956 17.4116 3.93315 17.0922 3.66861 16.6702C3.40404 16.2482 3.33301 15.8056 3.33301 15.4167C3.33301 13.9285 4.30398 12.9628 5.53669 12.4155Z" fill="currentColor"/>
</svg>
