<svg width="256" height="73" viewBox="0 0 256 73" fill="none" xmlns="http://www.w3.org/2000/svg">
<path d="M60.5503 52.1312L0.476562 56.0479L62.898 55.8362L80.7326 16.7585L60.5503 52.1312Z" fill="white"/>
<path d="M85.5088 43.4522V29.3543H90.9896C92.6947 29.3543 94.0201 29.7316 94.9658 30.4861C95.9115 31.2406 96.3844 32.2864 96.3844 33.6234C96.3844 34.5235 96.1695 35.3045 95.7396 35.9664C95.3097 36.615 94.6936 37.1114 93.8912 37.4556C93.0888 37.7998 92.1216 37.9719 90.9896 37.9719H87.3572V43.4522H85.5088ZM87.3572 36.304H90.9896C92.1359 36.304 92.9956 36.0789 93.5688 35.6289C94.1563 35.1788 94.45 34.5103 94.45 33.6234C94.45 32.763 94.1563 32.1143 93.5688 31.6775C92.9956 31.2406 92.1359 31.0222 90.9896 31.0222H87.3572V36.304Z" fill="white"/>
<path d="M110.084 43.7699C108.909 43.7699 107.885 43.5581 107.01 43.1345C106.151 42.7109 105.484 42.1086 105.012 41.3276C104.553 40.5333 104.324 39.6001 104.324 38.5278V29.3345H106.172V38.5278C106.172 39.6663 106.509 40.5465 107.182 41.1687C107.87 41.7909 108.837 42.1019 110.084 42.1019C111.316 42.1019 112.269 41.7909 112.943 41.1687C113.63 40.5465 113.974 39.6663 113.974 38.5278V29.3345H115.823V38.5278C115.823 39.6001 115.586 40.5333 115.113 41.3276C114.655 42.1086 113.996 42.7109 113.136 43.1345C112.276 43.5581 111.259 43.7699 110.084 43.7699Z" fill="white"/>
<path d="M124.623 43.4522V29.3543H126.472V42.6579L125.547 41.7842H134.102V43.4522H124.623Z" fill="white"/>
<path d="M146.423 43.7699C145.248 43.7699 144.224 43.5647 143.35 43.1543C142.476 42.744 141.781 42.1814 141.265 41.4666C140.763 40.7385 140.47 39.8979 140.384 38.9448L142.318 38.8257C142.418 39.5273 142.641 40.123 142.984 40.6127C143.328 41.1025 143.787 41.4732 144.36 41.7247C144.947 41.9762 145.65 42.1019 146.466 42.1019C147.183 42.1019 147.792 42.0159 148.293 41.8438C148.795 41.6717 149.174 41.4202 149.432 41.0893C149.705 40.7583 149.841 40.3546 149.841 39.8781C149.841 39.4412 149.726 39.0573 149.497 38.7264C149.282 38.3822 148.859 38.0712 148.229 37.7932C147.613 37.5019 146.696 37.2173 145.478 36.9394C144.303 36.6614 143.364 36.3569 142.662 36.026C141.974 35.695 141.473 35.2913 141.157 34.8148C140.857 34.3382 140.706 33.7491 140.706 33.0476C140.706 32.2533 140.907 31.5583 141.308 30.9627C141.723 30.3537 142.311 29.8838 143.07 29.5529C143.83 29.2087 144.733 29.0366 145.779 29.0366C146.896 29.0366 147.856 29.2352 148.659 29.6323C149.461 30.0162 150.099 30.5457 150.572 31.2208C151.044 31.8959 151.338 32.6637 151.453 33.5241L149.518 33.6432C149.432 33.074 149.232 32.571 148.917 32.1342C148.616 31.6841 148.2 31.3333 147.67 31.0818C147.14 30.8303 146.495 30.7045 145.736 30.7045C144.79 30.7045 144.038 30.9163 143.479 31.3399C142.92 31.7503 142.641 32.293 142.641 32.9681C142.641 33.405 142.748 33.769 142.963 34.0602C143.192 34.3382 143.593 34.5897 144.167 34.8148C144.74 35.0265 145.564 35.2582 146.638 35.5097C147.914 35.8009 148.924 36.1517 149.669 36.5621C150.428 36.9592 150.966 37.4225 151.281 37.952C151.61 38.4815 151.775 39.0838 151.775 39.7589C151.775 40.5796 151.546 41.2945 151.087 41.9034C150.629 42.4991 149.998 42.9624 149.196 43.2933C148.394 43.611 147.469 43.7699 146.423 43.7699Z" fill="white"/>
<path d="M159.792 43.4522V29.3543H169.378V31.0222H161.64V35.5693H169.12V37.1975H161.64V41.7842H169.55V43.4522H159.792Z" fill="white"/>
<path d="M185.388 6.92214L177.29 18.7631L187.342 0L186.678 66.4367L198.448 57.9407L183.933 72.9159L185.388 6.92214Z" fill="#CBDDBB"/>
<path d="M202.261 52.3346L254.468 51.5629L201.362 48.6431L188.275 63.1323L202.261 52.3346Z" fill="white"/>
</svg>
