<svg width="157" height="70" viewBox="0 0 157 70" fill="none" xmlns="http://www.w3.org/2000/svg">
<path d="M20.288 35.0258C22.3631 35.6416 24.3185 36.6469 26.0976 37.979C26.3086 32.4968 30.8429 28.0986 36.3912 28.0986C41.2436 28.0986 45.3213 31.4632 46.4077 35.9746C47.6798 35.0761 49.0307 34.3347 50.4445 33.7629C48.0671 31.6486 46.5651 28.5698 46.5651 25.1486C46.5651 24.0647 46.7194 23.0155 46.9997 22.0164C45.5165 20.8038 43.8949 19.8393 42.1756 19.167C40.4721 20.1534 38.4946 20.7221 36.388 20.7221C34.2815 20.7221 32.304 20.1534 30.6005 19.167C27.4579 20.3985 24.6492 22.6039 22.3914 25.5068C22.5709 26.3141 22.6685 27.153 22.6685 28.0169C22.6685 30.6527 21.7774 33.0812 20.2817 35.0258H20.288Z" fill="#ffffff"/>
<path d="M36.3943 18.3659C41.4703 18.3659 45.5984 14.2472 45.5984 9.18293C45.5984 4.11865 41.4703 0 36.3943 0C31.3184 0 27.1903 4.11865 27.1903 9.18293C27.1903 14.2472 31.3184 18.3659 36.3943 18.3659Z" fill="#ffffff"/>
<path d="M62.6966 35.7547C61.2954 36.3579 59.7525 36.6909 58.134 36.6909C56.2321 36.6909 54.4404 36.2291 52.8534 35.4123C50.6303 36.0594 48.552 37.1873 46.6848 38.7015C46.5588 42.7322 44.0996 46.1817 40.6106 47.7525C43.4855 49.1882 45.9574 52.1539 47.8908 56.5365C49.4306 60.0268 50.3721 63.8344 50.8727 67.2525C60.9868 63.4417 69.1959 55.7573 73.6767 46.0121C71.1198 41.1111 67.2436 37.4166 62.6935 35.7547H62.6966Z" fill="#ffffff"/>
<path d="M31.2649 48.2709C31.0445 47.7871 30.8114 47.3127 30.5627 46.8509C28.6891 45.5628 27.2595 43.6715 26.5605 41.4599C24.2178 39.1728 21.4247 37.5957 18.3861 36.9799C16.396 38.5916 13.8644 39.5592 11.106 39.5592C9.88107 39.5592 8.70341 39.3675 7.59501 39.0125C4.44932 40.9635 1.80744 44.036 0 47.8185C4.63195 56.703 12.4348 63.6773 21.9128 67.2494C22.4166 63.8344 23.355 60.0268 24.8948 56.5365C26.6203 52.6251 28.7773 49.8448 31.2649 48.2709Z" fill="#ffffff"/>
<path d="M43.7315 41.4133C45.4099 37.3705 43.4857 32.7357 39.4337 31.0612C35.3816 29.3866 30.7362 31.3064 29.0578 35.3492C27.3793 39.3919 29.3035 44.0267 33.3556 45.7012C37.4076 47.3758 42.0531 45.456 43.7315 41.4133Z" fill="#ffffff"/>
<path d="M36.3943 49.1128C29.6401 49.1128 25.4017 59.0183 24.1737 68.0316C28.0342 69.2317 32.1403 69.882 36.3975 69.882C40.6547 69.882 44.7545 69.2348 48.615 68.0348C47.387 59.0215 43.1486 49.1128 36.3943 49.1128Z" fill="#ffffff"/>
<path d="M11.1091 37.1998C16.1851 37.1998 20.3132 33.0812 20.3132 28.0169C20.3132 22.9526 16.1851 18.834 11.1091 18.834C6.03319 18.834 1.90505 22.9526 1.90505 28.0169C1.90505 33.0812 6.03319 37.1998 11.1091 37.1998Z" fill="#ffffff"/>
<path d="M58.1371 34.3347C63.2131 34.3347 67.3412 30.216 67.3412 25.1517C67.3412 20.0875 63.2131 15.9688 58.1371 15.9688C53.0612 15.9688 48.933 20.0875 48.933 25.1517C48.933 30.216 53.0612 34.3347 58.1371 34.3347Z" fill="#ffffff"/>
<path d="M84.1367 8.08101H89.5267L91.9467 17.451H91.9867L94.4167 8.08101H99.8067V22.131H96.3567V11.471H96.3167L93.3667 22.141H90.5767L87.6267 11.471H87.5867V22.141H84.1367V8.08101Z" fill="#ffffff"/>
<path d="M107.787 23.041C106.977 25.281 105.777 25.561 103.517 25.561H101.937V22.841H103.097C103.867 22.841 104.437 22.411 104.437 21.701C104.437 21.151 103.787 19.571 103.587 19.021L100.947 11.911H104.487L106.417 18.561H106.457L108.387 11.911H111.817L107.777 23.031L107.787 23.041Z" fill="#ffffff"/>
<path d="M84.1167 27.771H87.7767V38.671H94.3267V41.821H84.1167V27.771Z" fill="#ffffff"/>
<path d="M100.897 31.311C104.067 31.311 106.287 33.651 106.287 36.721C106.287 39.791 104.067 42.111 100.897 42.111C97.7267 42.111 95.5267 39.791 95.5267 36.721C95.5267 33.651 97.7267 31.311 100.897 31.311ZM100.897 39.561C102.447 39.561 102.947 38.021 102.947 36.731C102.947 35.441 102.457 33.881 100.897 33.881C99.3367 33.881 98.8667 35.431 98.8667 36.731C98.8667 38.031 99.3367 39.561 100.897 39.561Z" fill="#ffffff"/>
<path d="M114.697 35.351C114.677 34.481 113.907 33.871 113.067 33.871C111.197 33.871 110.897 35.461 110.897 36.881C110.897 38.201 111.467 39.561 112.887 39.561C114.047 39.561 114.637 38.891 114.797 37.811H118.047C117.757 40.551 115.627 42.121 112.907 42.121C109.837 42.121 107.557 40.011 107.557 36.881C107.557 33.751 109.627 31.311 112.907 31.311C115.447 31.311 117.707 32.651 117.947 35.351H114.697Z" fill="#ffffff"/>
<path d="M119.577 34.761C119.637 33.421 120.267 32.561 121.167 32.021C122.077 31.511 123.257 31.311 124.417 31.311C126.837 31.311 129.177 31.841 129.177 34.741V39.211C129.177 40.081 129.177 41.021 129.567 41.831H126.197C126.077 41.521 126.037 41.201 125.997 40.871C125.127 41.781 123.847 42.131 122.627 42.131C120.677 42.131 119.147 41.151 119.147 39.041C119.147 35.711 122.767 35.971 125.087 35.501C125.657 35.381 125.977 35.191 125.977 34.561C125.977 33.791 125.057 33.501 124.367 33.501C123.447 33.501 122.847 33.911 122.697 34.781H119.567L119.577 34.761ZM123.907 40.051C125.507 40.051 126.037 39.141 125.957 37.041C125.487 37.341 124.617 37.391 123.887 37.591C123.137 37.771 122.507 38.081 122.507 38.891C122.507 39.701 123.157 40.051 123.907 40.051Z" fill="#ffffff"/>
<path d="M131.507 27.771H134.857V41.821H131.507V27.771Z" fill="#ffffff"/>
<path d="M93.4467 52.471C93.2467 51.051 92.1467 50.301 90.6167 50.301C88.2567 50.301 87.3467 52.391 87.3467 54.471C87.3467 56.551 88.2567 58.641 90.6167 58.641C92.3267 58.641 93.3167 57.661 93.4467 56.041H97.1067C96.9067 59.661 94.2567 61.791 90.6867 61.791C86.4367 61.791 83.6767 58.541 83.6767 54.471C83.6767 50.401 86.4367 47.151 90.6867 47.151C93.7167 47.151 97.0067 49.081 97.1067 52.461H93.4467V52.471Z" fill="#ffffff"/>
<path d="M103.807 51.001C106.977 51.001 109.197 53.341 109.197 56.411C109.197 59.481 106.977 61.801 103.807 61.801C100.637 61.801 98.4367 59.481 98.4367 56.411C98.4367 53.341 100.637 51.001 103.807 51.001ZM103.807 59.251C105.357 59.251 105.857 57.711 105.857 56.421C105.857 55.131 105.367 53.571 103.807 53.571C102.247 53.571 101.777 55.121 101.777 56.421C101.777 57.721 102.247 59.251 103.807 59.251Z" fill="#ffffff"/>
<path d="M121.107 61.511H117.857V60.111H117.817C117.187 61.151 115.887 61.801 114.707 61.801C111.777 61.801 110.927 60.111 110.927 57.431V51.291H114.277V57.211C114.277 58.571 114.867 59.041 115.927 59.041C116.657 59.041 117.757 58.571 117.757 56.761V51.291H121.107V61.511Z" fill="#ffffff"/>
<path d="M123.357 51.291H126.607V52.691H126.647C127.257 51.651 128.637 51.001 129.857 51.001C133.267 51.001 133.537 53.481 133.537 54.961V61.511H130.187V56.571C130.187 55.171 130.347 53.761 128.517 53.761C127.257 53.761 126.707 54.821 126.707 55.951V61.521H123.357V51.291Z" fill="#ffffff"/>
<path d="M142.407 55.031C142.387 54.161 141.617 53.551 140.777 53.551C138.907 53.551 138.607 55.141 138.607 56.561C138.607 57.881 139.177 59.241 140.597 59.241C141.757 59.241 142.347 58.571 142.507 57.491H145.757C145.457 60.231 143.337 61.801 140.617 61.801C137.547 61.801 135.267 59.691 135.267 56.561C135.267 53.431 137.337 50.991 140.617 50.991C143.157 50.991 145.417 52.331 145.657 55.031H142.407Z" fill="#ffffff"/>
<path d="M150.897 50.011H147.547V47.451H150.897V50.011ZM147.547 51.291H150.897V61.511H147.547V51.291Z" fill="#ffffff"/>
<path d="M153.377 47.451H156.727V61.501H153.377V47.451Z" fill="#ffffff"/>
</svg>
