<svg width="151" height="61" viewBox="0 0 151 61" fill="none" xmlns="http://www.w3.org/2000/svg">
<path d="M41.4244 0V11.5957H32.2836V0H20.7164V11.5957H11.5756V0H0V61H11.293V23.8073H17.9326V30.4584H23.1761V23.8073H29.8156V30.4584H35.0674V23.8073H41.6987V61H53V0H41.4244Z" fill="#D9368D"/>
<path d="M26.5 36.4768C26.5 36.4768 22.8437 38.8575 22.8437 41.8543V49.1796H30.1563V41.8543C30.1563 38.8326 26.5 36.4768 26.5 36.4768Z" fill="#D9368D"/>
<path d="M80.532 4.962L74.812 14.818V20.67H70.72V14.818L65 4.962H69.642L72.766 11.342L75.89 4.962H80.532Z" fill="black"/>
<path d="M82.9563 14.972C82.9563 16.424 83.4843 18.14 85.2223 18.14C86.9603 18.14 87.5103 16.424 87.5103 14.972C87.5103 13.52 86.9603 11.782 85.2223 11.782C83.4843 11.782 82.9563 13.52 82.9563 14.972ZM79.2163 14.972C79.2163 11.54 81.6803 8.922 85.2223 8.922C88.7643 8.922 91.2503 11.54 91.2503 14.972C91.2503 18.404 88.7643 21 85.2223 21C81.6803 21 79.2163 18.404 79.2163 14.972Z" fill="black"/>
<path d="M105.008 9.252V20.67H101.378V19.108H101.334C100.63 20.274 99.1775 21 97.8575 21C94.5795 21 93.6335 19.108 93.6335 16.116V9.252H97.3735V15.874C97.3735 17.392 98.0335 17.92 99.2215 17.92C100.036 17.92 101.268 17.392 101.268 15.368V9.252H105.008Z" fill="black"/>
<path d="M108.085 20.67V9.252H111.715V11.254H111.759C112.309 9.802 113.585 9.032 115.191 9.032C115.477 9.032 115.785 9.054 116.071 9.12V12.53C115.587 12.398 115.147 12.31 114.641 12.31C112.793 12.31 111.825 13.586 111.825 15.016V20.67H108.085Z" fill="black"/>
<path d="M66.826 40.67V24.962H70.918V37.15H78.244V40.67H66.826Z" fill="black"/>
<path d="M83.7512 34.972C83.7512 36.424 84.2792 38.14 86.0172 38.14C87.7552 38.14 88.3052 36.424 88.3052 34.972C88.3052 33.52 87.7552 31.782 86.0172 31.782C84.2792 31.782 83.7512 33.52 83.7512 34.972ZM80.0112 34.972C80.0112 31.54 82.4752 28.922 86.0172 28.922C89.5592 28.922 92.0452 31.54 92.0452 34.972C92.0452 38.404 89.5592 41 86.0172 41C82.4752 41 80.0112 38.404 80.0112 34.972Z" fill="black"/>
<path d="M105.516 33.432H101.886C101.864 32.464 101.006 31.782 100.06 31.782C97.9704 31.782 97.6404 33.564 97.6404 35.148C97.6404 36.622 98.2784 38.14 99.8624 38.14C101.16 38.14 101.82 37.392 101.996 36.182H105.626C105.296 39.24 102.92 41 99.8844 41C96.4524 41 93.9004 38.646 93.9004 35.148C93.9004 31.518 96.2104 28.922 99.8844 28.922C102.722 28.922 105.252 30.418 105.516 33.432Z" fill="black"/>
<path d="M111.055 37.392C111.055 38.316 111.781 38.69 112.617 38.69C114.399 38.69 114.993 37.678 114.905 35.324C114.377 35.654 113.409 35.72 112.595 35.94C111.759 36.138 111.055 36.49 111.055 37.392ZM111.275 32.772H107.777C107.843 31.276 108.547 30.308 109.559 29.714C110.571 29.142 111.891 28.922 113.189 28.922C115.895 28.922 118.513 29.516 118.513 32.75V37.744C118.513 38.712 118.513 39.768 118.953 40.67H115.191C115.059 40.318 115.015 39.966 114.971 39.592C114.003 40.604 112.573 41 111.209 41C109.031 41 107.315 39.9 107.315 37.546C107.315 33.828 111.363 34.114 113.959 33.586C114.597 33.454 114.949 33.234 114.949 32.53C114.949 31.672 113.915 31.342 113.145 31.342C112.111 31.342 111.451 31.804 111.275 32.772Z" fill="black"/>
<path d="M121.544 40.67V24.962H125.284V40.67H121.544Z" fill="black"/>
<path d="M81.346 50.572H77.254C77.034 48.988 75.802 48.152 74.086 48.152C71.446 48.152 70.434 50.484 70.434 52.816C70.434 55.148 71.446 57.48 74.086 57.48C76 57.48 77.1 56.38 77.254 54.576H81.346C81.126 58.624 78.156 61 74.174 61C69.422 61 66.342 57.37 66.342 52.816C66.342 48.262 69.422 44.632 74.174 44.632C77.562 44.632 81.236 46.788 81.346 50.572Z" fill="black"/>
<path d="M86.9954 54.972C86.9954 56.424 87.5234 58.14 89.2614 58.14C90.9994 58.14 91.5494 56.424 91.5494 54.972C91.5494 53.52 90.9994 51.782 89.2614 51.782C87.5234 51.782 86.9954 53.52 86.9954 54.972ZM83.2554 54.972C83.2554 51.54 85.7194 48.922 89.2614 48.922C92.8034 48.922 95.2894 51.54 95.2894 54.972C95.2894 58.404 92.8034 61 89.2614 61C85.7194 61 83.2554 58.404 83.2554 54.972Z" fill="black"/>
<path d="M109.047 49.252V60.67H105.417V59.108H105.373C104.669 60.274 103.217 61 101.897 61C98.6186 61 97.6726 59.108 97.6726 56.116V49.252H101.413V55.874C101.413 57.392 102.073 57.92 103.261 57.92C104.075 57.92 105.307 57.392 105.307 55.368V49.252H109.047Z" fill="black"/>
<path d="M111.992 60.67V49.252H115.622V50.814H115.666C116.348 49.648 117.888 48.922 119.252 48.922C123.058 48.922 123.366 51.694 123.366 53.344V60.67H119.626V55.148C119.626 53.586 119.802 52.002 117.756 52.002C116.348 52.002 115.732 53.19 115.732 54.444V60.67H111.992Z" fill="black"/>
<path d="M137.355 53.432H133.725C133.703 52.464 132.845 51.782 131.899 51.782C129.809 51.782 129.479 53.564 129.479 55.148C129.479 56.622 130.117 58.14 131.701 58.14C132.999 58.14 133.659 57.392 133.835 56.182H137.465C137.135 59.24 134.759 61 131.723 61C128.291 61 125.739 58.646 125.739 55.148C125.739 51.518 128.049 48.922 131.723 48.922C134.561 48.922 137.091 50.418 137.355 53.432Z" fill="black"/>
<path d="M139.902 60.67V49.252H143.642V60.67H139.902ZM143.642 44.962V47.822H139.902V44.962H143.642Z" fill="black"/>
<path d="M146.852 60.67V44.962H150.592V60.67H146.852Z" fill="black"/>
</svg>
