<svg width="657" height="657" viewBox="0 0 657 657" fill="none" xmlns="http://www.w3.org/2000/svg">
<g opacity="0.1">
<path fill-rule="evenodd" clip-rule="evenodd" d="M10.7637 9.1377H100.271V0H101.897V9.1377H191.403V0H193.03V9.1377H282.535V0H284.162V9.1377H373.669V0H375.296V9.1377H464.801V0H466.428V9.1377H555.935V0H557.562V9.1377H647.068V0H648.695V9.1377L656.204 9.13867V10.7656L648.695 10.7646V100.271H656.204V101.897H648.695V191.403H656.204V193.03H648.695V282.535H656.204V284.162H648.695V373.669H656.204V375.296H648.695V464.801H656.204V466.428H648.695V555.934H656.204V557.561H648.695V647.065L656.204 647.066V648.693L648.695 648.692V656.204H647.068V648.692H557.562V656.204H555.935V648.692H466.428V656.204H464.801V648.692H375.296V656.204H373.669V648.692H284.162V656.204H282.535V648.692H193.03V656.204H191.403V648.692H101.896V656.204H100.27V648.692H10.7627V656.204H9.13574V648.692H0V647.065H9.13574V557.561H0V555.934H9.13574V466.428H0V464.801H9.13574V375.296H0V373.669H9.13574V284.162H0V282.535H9.13574V193.03H0V191.403H9.13574V101.897H0V100.271H9.13574V10.7646H0V9.1377H9.13574L9.13672 0H10.7637V9.1377ZM10.7627 647.065H100.27V557.561H10.7627V647.065ZM101.896 647.065H191.403V557.561H101.896V647.065ZM193.03 647.065H282.535V557.561H193.03V647.065ZM284.162 647.065H373.669V557.561H284.162V647.065ZM375.296 647.065H464.801V557.561H375.296V647.065ZM466.428 647.065H555.935V557.561H466.428V647.065ZM557.562 647.065H647.068V557.561H557.562V647.065ZM10.7627 555.934H100.27V466.428H10.7627V555.934ZM101.896 555.934H191.403V466.428H101.896V555.934ZM193.03 555.934H282.535V466.428H193.03V555.934ZM284.162 555.934H373.669V466.428H284.162V555.934ZM375.296 555.934H464.801V466.428H375.296V555.934ZM466.428 555.934H555.935V466.428H466.428V555.934ZM557.562 555.934H647.068V466.428H557.562V555.934ZM10.7627 464.801H100.27V375.296H10.7627V464.801ZM101.896 464.801H191.403V375.296H101.896V464.801ZM193.03 464.801H282.535V375.296H193.03V464.801ZM284.162 464.801H373.669V375.296H284.162V464.801ZM375.296 464.801H464.801V375.296H375.296V464.801ZM466.428 464.801H555.935V375.296H466.428V464.801ZM557.562 464.801H647.068V375.296H557.562V464.801ZM10.7627 373.669H100.27V284.162H10.7637L10.7627 373.669ZM101.896 373.669H191.403V284.162H101.897L101.896 373.669ZM193.03 373.669H282.535V284.162H193.03V373.669ZM284.162 373.669H373.669V284.162H284.162V373.669ZM375.296 373.669H464.801V284.162H375.296V373.669ZM466.428 373.669H555.935V284.162H466.428V373.669ZM557.562 373.669H647.068V284.162H557.562V373.669ZM10.7637 282.535H100.271V193.03H10.7637V282.535ZM101.897 282.535H191.403V193.03H101.897V282.535ZM193.03 282.535H282.535V193.03H193.03V282.535ZM284.162 282.535H373.669V193.03H284.162V282.535ZM375.296 282.535H464.801V193.03H375.296V282.535ZM466.428 282.535H555.935V193.03H466.428V282.535ZM557.562 282.535H647.068V193.03H557.562V282.535ZM10.7637 191.403H100.271V101.897H10.7637V191.403ZM101.897 191.403H191.403V101.897H101.897V191.403ZM193.03 191.403H282.535V101.897H193.03V191.403ZM284.162 191.403H373.669V101.897H284.162V191.403ZM375.296 191.403H464.801V101.897H375.296V191.403ZM466.428 191.403H555.935V101.897H466.428V191.403ZM557.562 191.403H647.068V101.897H557.562V191.403ZM10.7637 100.271H100.271V10.7646H10.7637V100.271ZM101.897 100.271H191.403V10.7646H101.897V100.271ZM193.03 100.271H282.535V10.7646H193.03V100.271ZM284.162 100.271H373.669V10.7646H284.162V100.271ZM375.296 100.271H464.801V10.7646H375.296V100.271ZM466.428 100.271H555.935V10.7646H466.428V100.271ZM557.562 100.271H647.068L647.067 10.7646H557.562V100.271Z" fill="black"/>
<path fill-rule="evenodd" clip-rule="evenodd" d="M10.7637 9.1377H100.271V0H101.897V9.1377H191.403V0H193.03V9.1377H282.535V0H284.162V9.1377H373.669V0H375.296V9.1377H464.801V0H466.428V9.1377H555.935V0H557.562V9.1377H647.068V0H648.695V9.1377L656.204 9.13867V10.7656L648.695 10.7646V100.271H656.204V101.897H648.695V191.403H656.204V193.03H648.695V282.535H656.204V284.162H648.695V373.669H656.204V375.296H648.695V464.801H656.204V466.428H648.695V555.934H656.204V557.561H648.695V647.065L656.204 647.066V648.693L648.695 648.692V656.204H647.068V648.692H557.562V656.204H555.935V648.692H466.428V656.204H464.801V648.692H375.296V656.204H373.669V648.692H284.162V656.204H282.535V648.692H193.03V656.204H191.403V648.692H101.896V656.204H100.27V648.692H10.7627V656.204H9.13574V648.692H0V647.065H9.13574V557.561H0V555.934H9.13574V466.428H0V464.801H9.13574V375.296H0V373.669H9.13574V284.162H0V282.535H9.13574V193.03H0V191.403H9.13574V101.897H0V100.271H9.13574V10.7646H0V9.1377H9.13574L9.13672 0H10.7637V9.1377ZM10.7627 647.065H100.27V557.561H10.7627V647.065ZM101.896 647.065H191.403V557.561H101.896V647.065ZM193.03 647.065H282.535V557.561H193.03V647.065ZM284.162 647.065H373.669V557.561H284.162V647.065ZM375.296 647.065H464.801V557.561H375.296V647.065ZM466.428 647.065H555.935V557.561H466.428V647.065ZM557.562 647.065H647.068V557.561H557.562V647.065ZM10.7627 555.934H100.27V466.428H10.7627V555.934ZM101.896 555.934H191.403V466.428H101.896V555.934ZM193.03 555.934H282.535V466.428H193.03V555.934ZM284.162 555.934H373.669V466.428H284.162V555.934ZM375.296 555.934H464.801V466.428H375.296V555.934ZM466.428 555.934H555.935V466.428H466.428V555.934ZM557.562 555.934H647.068V466.428H557.562V555.934ZM10.7627 464.801H100.27V375.296H10.7627V464.801ZM101.896 464.801H191.403V375.296H101.896V464.801ZM193.03 464.801H282.535V375.296H193.03V464.801ZM284.162 464.801H373.669V375.296H284.162V464.801ZM375.296 464.801H464.801V375.296H375.296V464.801ZM466.428 464.801H555.935V375.296H466.428V464.801ZM557.562 464.801H647.068V375.296H557.562V464.801ZM10.7627 373.669H100.27V284.162H10.7637L10.7627 373.669ZM101.896 373.669H191.403V284.162H101.897L101.896 373.669ZM193.03 373.669H282.535V284.162H193.03V373.669ZM284.162 373.669H373.669V284.162H284.162V373.669ZM375.296 373.669H464.801V284.162H375.296V373.669ZM466.428 373.669H555.935V284.162H466.428V373.669ZM557.562 373.669H647.068V284.162H557.562V373.669ZM10.7637 282.535H100.271V193.03H10.7637V282.535ZM101.897 282.535H191.403V193.03H101.897V282.535ZM193.03 282.535H282.535V193.03H193.03V282.535ZM284.162 282.535H373.669V193.03H284.162V282.535ZM375.296 282.535H464.801V193.03H375.296V282.535ZM466.428 282.535H555.935V193.03H466.428V282.535ZM557.562 282.535H647.068V193.03H557.562V282.535ZM10.7637 191.403H100.271V101.897H10.7637V191.403ZM101.897 191.403H191.403V101.897H101.897V191.403ZM193.03 191.403H282.535V101.897H193.03V191.403ZM284.162 191.403H373.669V101.897H284.162V191.403ZM375.296 191.403H464.801V101.897H375.296V191.403ZM466.428 191.403H555.935V101.897H466.428V191.403ZM557.562 191.403H647.068V101.897H557.562V191.403ZM10.7637 100.271H100.271V10.7646H10.7637V100.271ZM101.897 100.271H191.403V10.7646H101.897V100.271ZM193.03 100.271H282.535V10.7646H193.03V100.271ZM284.162 100.271H373.669V10.7646H284.162V100.271ZM375.296 100.271H464.801V10.7646H375.296V100.271ZM466.428 100.271H555.935V10.7646H466.428V100.271ZM557.562 100.271H647.068L647.067 10.7646H557.562V100.271Z" fill="url(#paint0_radial_39813_11122)"/>
</g>
<defs>
<radialGradient id="paint0_radial_39813_11122" cx="0" cy="0" r="1" gradientUnits="userSpaceOnUse" gradientTransform="translate(328.102 328.102) rotate(90) scale(328.102)">
<stop stop-color="white" stop-opacity="0"/>
<stop offset="1" stop-color="white"/>
</radialGradient>
</defs>
</svg>
