<svg width="331" height="78" viewBox="0 0 331 78" fill="none" xmlns="http://www.w3.org/2000/svg">
<path d="M113.353 29.2V57H108.793V44.84H95.7131V57H91.1531V29.2H95.7131V41.12H108.793V29.2H113.353ZM139.556 45.44C139.556 46.2667 139.503 47.0133 139.396 47.68H122.556C122.69 49.44 123.343 50.8533 124.516 51.92C125.69 52.9867 127.13 53.52 128.836 53.52C131.29 53.52 133.023 52.4933 134.036 50.44H138.956C138.29 52.4667 137.076 54.1333 135.316 55.44C133.583 56.72 131.423 57.36 128.836 57.36C126.73 57.36 124.836 56.8933 123.156 55.96C121.503 55 120.196 53.6667 119.236 51.96C118.303 50.2267 117.836 48.2267 117.836 45.96C117.836 43.6933 118.29 41.7067 119.196 40C120.13 38.2667 121.423 36.9333 123.076 36C124.756 35.0667 126.676 34.6 128.836 34.6C130.916 34.6 132.77 35.0533 134.396 35.96C136.023 36.8667 137.29 38.1467 138.196 39.8C139.103 41.4267 139.556 43.3067 139.556 45.44ZM134.796 44C134.77 42.32 134.17 40.9733 132.996 39.96C131.823 38.9467 130.37 38.44 128.636 38.44C127.063 38.44 125.716 38.9467 124.596 39.96C123.476 40.9467 122.81 42.2933 122.596 44H134.796ZM142.524 45.88C142.524 43.6667 142.977 41.7067 143.884 40C144.817 38.2933 146.07 36.9733 147.644 36.04C149.244 35.08 151.004 34.6 152.924 34.6C154.657 34.6 156.164 34.9467 157.444 35.64C158.75 36.3067 159.79 37.1467 160.564 38.16V34.96H165.164V57H160.564V53.72C159.79 54.76 158.737 55.6267 157.404 56.32C156.07 57.0133 154.55 57.36 152.844 57.36C150.95 57.36 149.217 56.88 147.644 55.92C146.07 54.9333 144.817 53.5733 143.884 51.84C142.977 50.08 142.524 48.0933 142.524 45.88ZM160.564 45.96C160.564 44.44 160.244 43.12 159.604 42C158.99 40.88 158.177 40.0267 157.164 39.44C156.15 38.8533 155.057 38.56 153.884 38.56C152.71 38.56 151.617 38.8533 150.604 39.44C149.59 40 148.764 40.84 148.124 41.96C147.51 43.0533 147.204 44.36 147.204 45.88C147.204 47.4 147.51 48.7333 148.124 49.88C148.764 51.0267 149.59 51.9067 150.604 52.52C151.644 53.1067 152.737 53.4 153.884 53.4C155.057 53.4 156.15 53.1067 157.164 52.52C158.177 51.9333 158.99 51.08 159.604 49.96C160.244 48.8133 160.564 47.48 160.564 45.96ZM175.713 27.4V57H171.153V27.4H175.713ZM187.02 38.68V50.88C187.02 51.7067 187.207 52.3067 187.58 52.68C187.98 53.0267 188.647 53.2 189.58 53.2H192.38V57H188.78C186.727 57 185.153 56.52 184.06 55.56C182.967 54.6 182.42 53.04 182.42 50.88V38.68H179.82V34.96H182.42V29.48H187.02V34.96H192.38V38.68H187.02ZM207.983 34.6C209.663 34.6 211.156 34.96 212.463 35.68C213.796 36.4 214.836 37.4667 215.583 38.88C216.356 40.2933 216.743 42 216.743 44V57H212.223V44.68C212.223 42.7067 211.729 41.2 210.743 40.16C209.756 39.0933 208.409 38.56 206.703 38.56C204.996 38.56 203.636 39.0933 202.623 40.16C201.636 41.2 201.143 42.7067 201.143 44.68V57H196.583V27.4H201.143V37.52C201.916 36.5867 202.889 35.8667 204.063 35.36C205.263 34.8533 206.569 34.6 207.983 34.6ZM221.039 45.96C221.039 43.6933 221.493 41.7067 222.399 40C223.333 38.2667 224.613 36.9333 226.239 36C227.866 35.0667 229.733 34.6 231.839 34.6C234.506 34.6 236.706 35.24 238.439 36.52C240.199 37.7733 241.386 39.5733 241.999 41.92H237.079C236.679 40.8267 236.039 39.9733 235.159 39.36C234.279 38.7467 233.173 38.44 231.839 38.44C229.973 38.44 228.479 39.1067 227.359 40.44C226.266 41.7467 225.719 43.5867 225.719 45.96C225.719 48.3333 226.266 50.1867 227.359 51.52C228.479 52.8533 229.973 53.52 231.839 53.52C234.479 53.52 236.226 52.36 237.079 50.04H241.999C241.359 52.28 240.159 54.0667 238.399 55.4C236.639 56.7067 234.453 57.36 231.839 57.36C229.733 57.36 227.866 56.8933 226.239 55.96C224.613 55 223.333 53.6667 222.399 51.96C221.493 50.2267 221.039 48.2267 221.039 45.96ZM245.024 45.88C245.024 43.6667 245.477 41.7067 246.384 40C247.317 38.2933 248.57 36.9733 250.144 36.04C251.744 35.08 253.504 34.6 255.424 34.6C257.157 34.6 258.664 34.9467 259.944 35.64C261.25 36.3067 262.29 37.1467 263.064 38.16V34.96H267.664V57H263.064V53.72C262.29 54.76 261.237 55.6267 259.904 56.32C258.57 57.0133 257.05 57.36 255.344 57.36C253.45 57.36 251.717 56.88 250.144 55.92C248.57 54.9333 247.317 53.5733 246.384 51.84C245.477 50.08 245.024 48.0933 245.024 45.88ZM263.064 45.96C263.064 44.44 262.744 43.12 262.104 42C261.49 40.88 260.677 40.0267 259.664 39.44C258.65 38.8533 257.557 38.56 256.384 38.56C255.21 38.56 254.117 38.8533 253.104 39.44C252.09 40 251.264 40.84 250.624 41.96C250.01 43.0533 249.704 44.36 249.704 45.88C249.704 47.4 250.01 48.7333 250.624 49.88C251.264 51.0267 252.09 51.9067 253.104 52.52C254.144 53.1067 255.237 53.4 256.384 53.4C257.557 53.4 258.65 53.1067 259.664 52.52C260.677 51.9333 261.49 51.08 262.104 49.96C262.744 48.8133 263.064 47.48 263.064 45.96ZM278.213 38.16C278.88 37.04 279.76 36.1733 280.853 35.56C281.973 34.92 283.293 34.6 284.813 34.6V39.32H283.653C281.866 39.32 280.506 39.7733 279.573 40.68C278.666 41.5867 278.213 43.16 278.213 45.4V57H273.653V34.96H278.213V38.16ZM309.205 45.44C309.205 46.2667 309.151 47.0133 309.045 47.68H292.205C292.338 49.44 292.991 50.8533 294.165 51.92C295.338 52.9867 296.778 53.52 298.485 53.52C300.938 53.52 302.671 52.4933 303.685 50.44H308.605C307.938 52.4667 306.725 54.1333 304.965 55.44C303.231 56.72 301.071 57.36 298.485 57.36C296.378 57.36 294.485 56.8933 292.805 55.96C291.151 55 289.845 53.6667 288.885 51.96C287.951 50.2267 287.485 48.2267 287.485 45.96C287.485 43.6933 287.938 41.7067 288.845 40C289.778 38.2667 291.071 36.9333 292.725 36C294.405 35.0667 296.325 34.6 298.485 34.6C300.565 34.6 302.418 35.0533 304.045 35.96C305.671 36.8667 306.938 38.1467 307.845 39.8C308.751 41.4267 309.205 43.3067 309.205 45.44ZM304.445 44C304.418 42.32 303.818 40.9733 302.645 39.96C301.471 38.9467 300.018 38.44 298.285 38.44C296.711 38.44 295.365 38.9467 294.245 39.96C293.125 40.9467 292.458 42.2933 292.245 44H304.445Z" fill="#409CCE"/>
<path d="M27.9098 50.1467C17.5198 50.1467 9.11743 41.7387 9.11743 31.3417C9.11743 22.5312 14.9487 16.99 20.1451 11.7901C23.5904 8.3424 26.9272 3.71891 27.9098 0C28.8954 3.72211 32.175 8.3424 35.6745 11.7901C40.8709 16.99 46.7021 22.5312 46.7021 31.3417C46.7021 41.7387 38.2998 50.1467 27.9098 50.1467Z" fill="#409CCE"/>
<path d="M51.2846 55.3134C55.1257 55.3134 57.5251 56.953 58.8413 59.1431C60.0983 61.2349 60.2816 63.6781 60.089 65.2958L57.4735 64.9844C57.6186 63.7654 57.4574 61.9538 56.5836 60.4999C55.769 59.1443 54.2513 57.9473 51.2846 57.9473C49.8428 57.9473 48.7821 58.3422 47.9794 58.9324C47.1626 59.5329 46.538 60.3919 46.0783 61.4219C45.1451 63.5132 44.9857 66.1038 45.1498 67.8537C45.308 69.2925 45.0398 71.4115 43.7046 73.2291C42.3159 75.1194 39.9109 76.4983 36.1706 76.5873C32.4041 76.677 29.9243 75.332 28.4442 73.4305C27.0301 71.6138 26.647 69.4416 26.7177 67.9505V56.6303H29.3517V67.9767C29.3517 68.0004 29.3511 68.0241 29.3498 68.0478C29.2954 69.0545 29.5669 70.5848 30.5227 71.8127C31.4266 72.974 33.0667 74.0265 36.108 73.9541C39.1754 73.8811 40.7552 72.7949 41.5818 71.6697C42.4536 70.483 42.6358 69.0508 42.5301 68.1262C42.5291 68.1174 42.5282 68.1085 42.5274 68.0996C42.3369 66.0675 42.4965 62.9849 43.673 60.3485C44.2682 59.0147 45.1462 57.7462 46.4192 56.8103C47.7062 55.864 49.3226 55.3134 51.2846 55.3134Z" fill="#409CCE"/>
<path d="M63.5191 70.0029C63.5191 67.3733 61.3873 65.2415 58.7577 65.2415C56.128 65.2415 53.9963 67.3733 53.9963 70.0029C53.9963 72.6326 56.128 74.7643 58.7577 74.7643V77.3983C54.6733 77.3983 51.3623 74.0873 51.3623 70.0029C51.3623 65.9186 54.6733 62.6075 58.7577 62.6075C62.842 62.6075 66.153 65.9186 66.153 70.0029C66.153 74.0873 62.842 77.3983 58.7577 77.3983V74.7643C61.3873 74.7643 63.5191 72.6326 63.5191 70.0029Z" fill="#409CCE"/>
<path d="M3.60173 18.553C5.92124 17.2421 8.80262 16.9225 10.4493 17.0469L10.2508 19.6734C8.99334 19.5783 6.6608 19.8497 4.89764 20.8461C4.03808 21.3319 3.3835 21.9498 3.00863 22.7117C2.64265 23.4555 2.47873 24.4662 2.82254 25.8758C4.42366 32.4404 6.96597 39.3746 7.84295 41.7357C10.3999 48.6197 14.0757 51.9952 17.6828 53.6636C21.3414 55.3558 25.0978 55.3733 27.9617 55.2142L28.1078 57.8441C25.1364 58.0092 20.8417 58.0267 16.5771 56.0542C12.2609 54.0578 8.14125 50.1036 5.3738 42.6528C4.49479 40.2862 1.90424 33.2267 0.263565 26.5C-0.203074 24.5868 -0.0343529 22.93 0.645245 21.5488C1.31596 20.1857 2.41996 19.2208 3.60173 18.553Z" fill="#409CCE"/>
<path d="M35.9637 18.2352C35.9637 21.2006 38.3676 23.6045 41.3329 23.6045C44.2983 23.6045 46.7021 21.2006 46.7021 18.2352C46.7021 15.2699 44.2983 12.866 41.3329 12.866C38.3676 12.866 35.9637 15.2699 35.9637 18.2352Z" fill="white"/>
<path d="M38.5976 18.2352C38.5976 16.7246 39.8223 15.4999 41.3329 15.4999C42.8436 15.4999 44.0682 16.7246 44.0682 18.2352C44.0682 19.7459 42.8436 20.9705 41.3329 20.9705V23.6045C44.2983 23.6045 46.7021 21.2006 46.7021 18.2352C46.7021 15.2699 44.2983 12.866 41.3329 12.866C38.3676 12.866 35.9637 15.2699 35.9637 18.2352C35.9637 21.2006 38.3676 23.6045 41.3329 23.6045V20.9705C39.8223 20.9705 38.5976 19.7459 38.5976 18.2352Z" fill="#409CCE"/>
<path d="M9.32011 18.2352C9.32011 21.2006 11.724 23.6045 14.6894 23.6045C17.6547 23.6045 20.0586 21.2006 20.0586 18.2352C20.0586 15.2699 17.6547 12.866 14.6894 12.866C11.724 12.866 9.32011 15.2699 9.32011 18.2352Z" fill="white"/>
<path d="M11.9541 18.2352C11.9541 16.7246 13.1787 15.4999 14.6894 15.4999C16.2 15.4999 17.4246 16.7246 17.4246 18.2352C17.4246 19.7459 16.2 20.9705 14.6894 20.9705V23.6045C17.6547 23.6045 20.0586 21.2006 20.0586 18.2352C20.0586 15.2699 17.6547 12.866 14.6894 12.866C11.724 12.866 9.32011 15.2699 9.32011 18.2352C9.32011 21.2006 11.724 23.6045 14.6894 23.6045V20.9705C13.1787 20.9705 11.9541 19.7459 11.9541 18.2352Z" fill="#409CCE"/>
<path d="M52.3157 18.553C49.9962 17.2421 47.1149 16.9225 45.4682 17.0469L45.6667 19.6734C46.9241 19.5783 49.2567 19.8497 51.0198 20.8461C51.8794 21.3319 52.534 21.9498 52.9088 22.7117C53.2748 23.4555 53.4388 24.4662 53.0949 25.8758C51.4938 32.4404 48.9515 39.3746 48.0745 41.7357C45.5176 48.6197 41.8418 51.9952 38.2346 53.6636C34.5761 55.3558 30.8197 55.3733 27.9558 55.2142L27.8097 57.8441C30.7811 58.0092 35.0757 58.0267 39.3404 56.0542C43.6565 54.0578 47.7762 50.1036 50.5437 42.6528C51.4227 40.2862 54.0132 33.2267 55.6539 26.5C56.1206 24.5868 55.9518 22.93 55.2722 21.5488C54.6015 20.1857 53.4975 19.2208 52.3157 18.553Z" fill="#409CCE"/>
</svg>
