<svg width="48" height="48" viewBox="0 0 48 48" fill="none" xmlns="http://www.w3.org/2000/svg">
<path d="M17.5686 29.7034C14.2526 29.7034 11.4361 28.5469 9.11905 26.2339C6.80205 23.9213 5.64355 21.1194 5.64355 17.8284C5.64355 17.1618 5.69755 16.5368 5.80555 15.9534C5.91355 15.3701 6.09289 14.7538 6.34355 14.1044C6.45155 13.8298 6.61272 13.6126 6.82705 13.4529C7.04139 13.2936 7.27872 13.1868 7.53905 13.1324C7.78005 13.0658 8.02922 13.0693 8.28655 13.1429C8.54422 13.2166 8.78155 13.3589 8.99855 13.5699L14.5751 19.1464L19.1751 14.8464L13.3486 9.01994C13.1376 8.80294 12.9952 8.56644 12.9216 8.31044C12.8479 8.05444 12.8444 7.80528 12.9111 7.56294C12.9654 7.31828 13.0704 7.09277 13.2261 6.88644C13.3821 6.67977 13.6024 6.52411 13.8871 6.41944C14.5254 6.16578 15.1319 5.97461 15.7066 5.84594C16.2812 5.71761 16.8994 5.65344 17.5611 5.65344C20.9417 5.65344 23.8152 6.83711 26.1816 9.20444C28.5482 11.5718 29.7316 14.4464 29.7316 17.8284C29.7316 18.6141 29.6542 19.3838 29.4996 20.1374C29.3449 20.8914 29.1382 21.6518 28.8796 22.4184L40.0851 33.6119C41.0407 34.5423 41.5082 35.6683 41.4876 36.9899C41.4669 38.3119 40.9669 39.4301 39.9876 40.3444C39.0672 41.2004 37.9766 41.6201 36.7156 41.6034C35.4546 41.5868 34.3667 41.1211 33.4521 40.2064L22.1466 28.8509C21.3959 29.1096 20.6499 29.3163 19.9086 29.4709C19.1672 29.6259 18.3872 29.7034 17.5686 29.7034ZM17.5686 26.4284C18.4019 26.4284 19.2852 26.2951 20.2186 26.0284C21.1519 25.7618 21.9686 25.3618 22.6686 24.8284L35.7936 37.9534C36.0602 38.2278 36.3936 38.3649 36.7936 38.3649C37.1936 38.3649 37.5269 38.2296 37.7936 37.9589C38.0602 37.6886 38.1936 37.3553 38.1936 36.9589C38.1936 36.5629 38.0602 36.2278 37.7936 35.9534L24.8686 23.0284C25.4019 22.3284 25.8019 21.5034 26.0686 20.5534C26.3352 19.6034 26.4686 18.6951 26.4686 17.8284C26.4686 15.3284 25.5436 13.2118 23.6936 11.4784C21.8436 9.74511 19.7352 8.86178 17.3686 8.82844L22.3131 13.8729C22.6531 14.2186 22.8147 14.6301 22.7981 15.1074C22.7814 15.5851 22.6031 15.9938 22.2631 16.3334L15.9241 22.2729C15.5641 22.5873 15.1491 22.7444 14.6791 22.7444C14.2091 22.7444 13.8204 22.5873 13.5131 22.2729L8.76855 17.5784C8.86855 20.1451 9.77972 22.2618 11.5021 23.9284C13.2244 25.5951 15.2466 26.4284 17.5686 26.4284Z" fill="#020704"/>
</svg>
