<svg width="48" height="48" viewBox="0 0 48 48" fill="none" xmlns="http://www.w3.org/2000/svg">
<path d="M17.8209 32.1575C18.8896 32.1575 19.8069 31.782 20.5729 31.031C21.3386 30.28 21.7214 29.377 21.7214 28.322C21.7214 27.2673 21.3386 26.3638 20.5729 25.6115C19.8069 24.8588 18.8896 24.4825 17.8209 24.4825C16.7799 24.4825 15.8906 24.8586 15.1529 25.611C14.4153 26.3633 14.0464 27.2678 14.0464 28.3245C14.0464 29.3778 14.4153 30.28 15.1529 31.031C15.8906 31.782 16.7799 32.1575 17.8209 32.1575ZM30.1704 32.1575C31.2228 32.1575 32.1246 31.782 32.8759 31.031C33.6276 30.28 34.0034 29.377 34.0034 28.322C34.0034 27.2673 33.6286 26.3638 32.8789 25.6115C32.1296 24.8588 31.2288 24.4825 30.1764 24.4825C29.1238 24.4825 28.2193 24.8586 27.4629 25.611C26.7066 26.3633 26.3284 27.2678 26.3284 28.3245C26.3284 29.3778 26.7056 30.28 27.4599 31.031C28.2143 31.782 29.1178 32.1575 30.1704 32.1575ZM23.9929 21.29C25.0599 21.29 25.9748 20.9111 26.7374 20.1535C27.5001 19.3958 27.8814 18.4825 27.8814 17.4135C27.8814 16.3445 27.5009 15.4441 26.7399 14.7125C25.9793 13.9808 25.0646 13.615 23.9959 13.615C22.9549 13.615 22.0651 13.9881 21.3264 14.7345C20.5878 15.4811 20.2184 16.375 20.2184 17.416C20.2184 18.4843 20.5809 19.3971 21.3059 20.1545C22.0306 20.9115 22.9263 21.29 23.9929 21.29ZM24.0149 44.299C21.2083 44.299 18.5743 43.7676 16.1129 42.705C13.6516 41.6423 11.4989 40.189 9.65493 38.345C7.81093 36.501 6.35759 34.3476 5.29493 31.885C4.23226 29.4223 3.70093 26.7861 3.70093 23.9765C3.70093 21.1671 4.23226 18.5305 5.29493 16.0665C6.35759 13.6028 7.81026 11.4571 9.65293 9.62946C11.4956 7.80146 13.6486 6.35446 16.1119 5.28846C18.5753 4.22213 21.2121 3.68896 24.0224 3.68896C26.8324 3.68896 29.4699 4.2218 31.9349 5.28746C34.3996 6.35313 36.5454 7.7993 38.3724 9.62596C40.1998 11.4526 41.6463 13.6006 42.7119 16.07C43.7779 18.5393 44.3109 21.1781 44.3109 23.9865C44.3109 26.7945 43.7778 29.429 42.7114 31.89C41.6454 34.3513 40.1984 36.5005 38.3704 38.3375C36.5428 40.1741 34.3949 41.627 31.9269 42.696C29.4589 43.7646 26.8216 44.299 24.0149 44.299ZM24.0249 40.8925C28.7096 40.8925 32.6921 39.2466 35.9724 35.955C39.2524 32.663 40.8924 28.6696 40.8924 23.975C40.8924 19.2903 39.2554 15.3078 35.9814 12.0275C32.7078 8.74746 28.7119 7.10746 23.9939 7.10746C19.3219 7.10746 15.3394 8.74446 12.0464 12.0185C8.75376 15.2921 7.10743 19.288 7.10743 24.006C7.10743 28.678 8.75326 32.6605 12.0449 35.9535C15.3369 39.2461 19.3303 40.8925 24.0249 40.8925Z" fill="#020704"/>
</svg>
