<svg width="48" height="48" viewBox="0 0 48 48" fill="none" xmlns="http://www.w3.org/2000/svg">
<path d="M10.4465 39.4535C8.95388 37.9215 7.78972 36.1507 6.95405 34.141C6.11872 32.1317 5.70105 30.0766 5.70105 27.976C5.70105 25.519 6.13405 23.2641 7.00005 21.2115C7.86605 19.1588 9.15705 17.2745 10.8731 15.5585C13.0194 13.4201 16.0791 11.882 20.0521 10.944C24.0254 10.006 28.9004 9.60432 34.677 9.73898C35.4234 9.77232 36.1032 9.92365 36.7166 10.193C37.3296 10.462 37.8845 10.8371 38.3815 11.3185C38.8682 11.8061 39.2541 12.3568 39.5391 12.9705C39.8237 13.5841 39.981 14.2683 40.011 15.023C40.103 17.9113 40.0657 20.5791 39.899 23.0265C39.7324 25.4741 39.4074 27.702 38.924 29.71C38.4407 31.7177 37.8089 33.5043 37.0285 35.07C36.2482 36.6353 35.3065 37.971 34.2035 39.077C32.5039 40.7846 30.6532 42.08 28.6516 42.963C26.6499 43.8457 24.5141 44.287 22.2441 44.287C19.8987 44.287 17.7519 43.8973 15.8036 43.118C13.8549 42.3387 12.0692 41.1172 10.4465 39.4535ZM15.8601 39.1425C16.6987 39.7091 17.6667 40.1385 18.7641 40.4305C19.8614 40.7225 21.0192 40.8685 22.2376 40.8685C23.9896 40.8685 25.6904 40.5038 27.3401 39.7745C28.9894 39.0452 30.4855 37.9925 31.8285 36.6165C32.7842 35.6525 33.5807 34.4017 34.218 32.864C34.8554 31.3263 35.362 29.552 35.738 27.541C36.114 25.5297 36.3569 23.3118 36.4666 20.8875C36.5759 18.4631 36.5679 15.8865 36.4425 13.1575C33.3332 13.0828 30.5447 13.1225 28.077 13.2765C25.6097 13.4305 23.4321 13.7075 21.5441 14.1075C19.6561 14.5075 18.0367 15.0178 16.6861 15.6385C15.3354 16.2591 14.2386 17.0075 13.3956 17.8835C12.0196 19.2851 10.9609 20.7833 10.2196 22.378C9.47822 23.9726 9.10755 25.5883 9.10755 27.225C9.10755 28.7907 9.43922 30.4413 10.1026 32.177C10.7662 33.9127 11.5992 35.3098 12.6016 36.3685C14.3179 33.1495 16.3974 30.256 18.84 27.688C21.2831 25.12 23.9197 23.066 26.7501 21.526C23.8821 24.034 21.5521 26.7423 19.7601 29.651C17.9677 32.5596 16.6677 35.7235 15.8601 39.1425Z" fill="#020704"/>
</svg>
