<svg width="120" height="48" viewBox="0 0 120 48" fill="none" xmlns="http://www.w3.org/2000/svg">
<path fill-rule="evenodd" clip-rule="evenodd" d="M33.0596 14.3572L23.1943 33.643H13.9279L18.0565 25.6501H17.8713C14.4652 30.0717 9.38316 32.9825 2.14209 33.643V25.7608C2.14209 25.7608 6.77438 25.4871 9.49757 22.6241H2.14209V14.3573H10.4089V21.1566L10.5944 21.1559L13.9725 14.3573H20.2245V21.1135L20.4099 21.1132L23.9148 14.3572H33.0596Z" fill="white"/>
<path d="M86.8565 31.5143H89.5189V16.2322H86.8565V31.5143Z" fill="white"/>
<path fill-rule="evenodd" clip-rule="evenodd" d="M72.1789 31.3582C72.7575 31.5988 73.3459 31.7191 73.9441 31.7191C74.9323 31.7191 75.8165 31.4785 76.5967 30.9974C77.3768 30.5163 77.9816 29.8532 78.4107 29.0079C78.8398 28.1562 79.0543 27.1907 79.0543 26.1114C79.0543 25.0321 78.8332 24.0667 78.3912 23.215C77.949 22.3633 77.3346 21.7034 76.5479 21.2352C75.7612 20.7606 74.8672 20.5266 73.866 20.5331C73.2289 20.5331 72.6177 20.6566 72.0325 20.9037C71.4474 21.1507 70.9598 21.5018 70.5697 21.9569C70.5396 21.9916 70.5103 22.0266 70.4819 22.0619V16.242H67.8098V31.5143H70.4624L70.4571 30.0876C70.5257 30.1717 70.5991 30.2539 70.6769 30.3342C71.0995 30.7699 71.6002 31.1111 72.1789 31.3582ZM74.9095 28.8909C74.4739 29.1575 73.9765 29.2908 73.4174 29.2908C72.8647 29.2908 72.3576 29.1542 71.896 28.8812C71.4343 28.6015 71.0671 28.2213 70.7939 27.7401C70.5274 27.259 70.3941 26.7128 70.3941 26.1017C70.3877 25.4905 70.5176 24.9444 70.7842 24.4633C71.0573 23.9757 71.4246 23.5986 71.8863 23.332C72.3478 23.0589 72.8583 22.9257 73.4174 22.9322C73.9765 22.9257 74.4739 23.0557 74.9095 23.3223C75.3516 23.5823 75.6897 23.9562 75.9238 24.4438C76.1643 24.9249 76.2846 25.4775 76.2846 26.1017C76.2846 26.7259 76.1643 27.2785 75.9238 27.7596C75.6897 28.2408 75.3516 28.6178 74.9095 28.8909Z" fill="white"/>
<path d="M36.9166 17.1587H39.9594L42.6812 27.099L45.5768 17.1587H48.1124L51.2527 26.8995L53.8664 17.1587H56.6555L52.54 31.5143H49.9166L46.7233 21.9982L43.7921 31.5143H41.1394L36.9166 17.1587Z" fill="white"/>
<path fill-rule="evenodd" clip-rule="evenodd" d="M61.1492 31.7678C60.0893 31.7743 59.1336 31.5402 58.2819 31.0657C57.4367 30.5845 56.7703 29.9181 56.2826 29.0664C55.8016 28.2147 55.561 27.2427 55.561 26.1504C55.561 25.0906 55.8081 24.1317 56.3022 23.2735C56.7963 22.4152 57.4659 21.7456 58.3112 21.2644C59.1564 20.7833 60.0991 20.5428 61.1393 20.5428C62.3097 20.5428 63.3336 20.8028 64.2113 21.323C65.0956 21.8431 65.7555 22.581 66.1911 23.5368C66.6332 24.486 66.7925 25.575 66.669 26.8038H58.3154C58.3387 27.2934 58.4609 27.7388 58.6818 28.1399C58.9289 28.582 59.2734 28.9266 59.7155 29.1736C60.1577 29.4207 60.6517 29.5442 61.1979 29.5442C61.614 29.5377 62.0009 29.4662 62.3584 29.3297C62.7161 29.1867 63.0183 28.9949 63.2654 28.7543C63.519 28.5137 63.6978 28.2407 63.8018 27.9352H66.591C66.4219 28.6828 66.0839 29.3492 65.5768 29.9343C65.0696 30.513 64.4325 30.9648 63.6652 31.2899C62.8981 31.615 62.0594 31.7743 61.1492 31.7678ZM58.6915 24.1219C58.5358 24.3936 58.4277 24.6861 58.3676 24.9996H63.9051C63.865 24.6036 63.7427 24.2428 63.5385 23.9171C63.3044 23.5335 62.9858 23.2377 62.5828 23.0296C62.1797 22.8151 61.7246 22.7078 61.2174 22.7078C60.6778 22.7078 60.1869 22.8313 59.7448 23.0784C59.3027 23.3255 58.9516 23.6733 58.6915 24.1219Z" fill="white"/>
<path d="M81.0148 20.7671C81.0148 19.8959 81.2131 19.1222 81.6097 18.446C82.0062 17.7634 82.5622 17.2335 83.2774 16.8564C83.999 16.4728 84.841 16.2745 85.8032 16.2615V18.6313C85.3546 18.6378 84.971 18.7321 84.6525 18.9141C84.3404 19.0897 84.0998 19.3465 83.9307 19.6846C83.7752 19.9958 83.6912 20.3567 83.6789 20.7671H85.7447V23.0199H83.6773V31.5143H81.0148V23.0199H79.2984V20.7671H81.0148Z" fill="white"/>
<path fill-rule="evenodd" clip-rule="evenodd" d="M96.2867 31.7482C95.2009 31.7482 94.2289 31.5109 93.3707 31.0364C92.519 30.5552 91.8493 29.8921 91.3617 29.0468C90.8805 28.1951 90.64 27.2297 90.64 26.1503C90.64 25.0646 90.8805 24.0959 91.3617 23.2441C91.8493 22.3859 92.519 21.7195 93.3707 21.2449C94.2289 20.7703 95.2009 20.533 96.2867 20.533C97.3789 20.533 98.3542 20.7703 99.2123 21.2449C100.077 21.7195 100.75 22.3827 101.231 23.2344C101.712 24.0861 101.956 25.0581 101.963 26.1503C101.956 27.2297 101.712 28.1951 101.231 29.0468C100.757 29.8921 100.087 30.5552 99.2221 31.0364C98.3574 31.5109 97.3789 31.7482 96.2867 31.7482ZM96.2867 29.3004C96.8588 29.3004 97.3659 29.1704 97.808 28.9103C98.2502 28.6438 98.5914 28.2731 98.8321 27.7985C99.0726 27.3174 99.1928 26.768 99.1928 26.1503C99.1928 25.5262 99.0726 24.9736 98.8321 24.4924C98.5914 24.0113 98.2502 23.6407 97.808 23.3807C97.3659 23.1141 96.8588 22.9808 96.2867 22.9808C95.7211 22.9808 95.2172 23.1141 94.775 23.3807C94.3395 23.6407 94.0013 24.0113 93.7608 24.4924C93.5202 24.9736 93.4032 25.5262 93.4097 26.1503C93.4097 26.768 93.53 27.3174 93.7705 27.7985C94.0176 28.2731 94.3556 28.6438 94.7848 28.9103C95.2204 29.1704 95.7211 29.3004 96.2867 29.3004Z" fill="white"/>
<path d="M104.84 20.7671H101.875L105.083 31.5143H107.678L109.788 24.65L112.066 31.5143H114.621L117.84 20.7671H115.158L113.332 27.4565L111.315 20.7671H108.721L106.713 27.6039L104.84 20.7671Z" fill="white"/>
</svg>
