<svg width="120" height="48" viewBox="0 0 120 48" fill="none" xmlns="http://www.w3.org/2000/svg">
<path fill-rule="evenodd" clip-rule="evenodd" d="M30.4727 16.4876L30.6879 16.872C30.959 17.3391 31.1022 17.8694 31.1031 18.4094V30.3251C31.0986 30.8646 30.9557 31.394 30.6879 31.8626L30.4573 32.2469C30.194 32.7175 29.8055 33.1059 29.335 33.3693L19.0184 39.3347C18.5512 39.6057 18.021 39.7489 17.4809 39.7499H17.0504C16.5096 39.755 15.9777 39.6113 15.5129 39.3347L5.18097 33.3847C4.72047 33.1082 4.33502 32.7228 4.0586 32.2623L3.84335 31.8779C3.57236 31.4108 3.42918 30.8805 3.42822 30.3404V18.4248C3.42918 17.8848 3.57236 17.3545 3.84335 16.8874L4.0586 16.503C4.32805 16.0371 4.71507 15.65 5.18097 15.3806L15.4975 9.41513C15.9647 9.14415 16.4949 9.00098 17.035 9H17.4809C18.021 9.00098 18.5512 9.14415 19.0184 9.41513L29.335 15.3653C29.8036 15.6365 30.1951 16.0228 30.4727 16.4876ZM17.4809 12.0749H17.035L8.04072 17.2717L17.2656 22.5914L26.4906 17.2717L17.4809 12.0749ZM27.7974 30.7095L18.8031 35.9063V25.2668L28.0281 19.9317V30.3251L27.7974 30.7095ZM71.1971 31.7551H68.0089V14.9288H71.1971V31.7551ZM42.4284 32.1158H45.9929V26.0052H47.5427L51.3287 32.1158H55.1367L50.9523 25.3853C52.8121 24.8318 54.2069 23.5698 54.2069 21.1787V21.0901C54.2069 17.8134 51.8379 16.2858 48.0962 16.2858H42.4284V32.1158ZM45.9929 23.5697V19.0311H48.0077C49.7346 19.0311 50.7088 19.5846 50.7088 21.2008V21.2894C50.7088 22.8171 49.8011 23.5697 48.0077 23.5697H45.9929ZM60.9261 31.998C64.0921 31.998 66.0847 30.6033 66.4611 28.1014H63.4279C63.2286 29.0756 62.4981 29.7177 61.0147 29.7177C59.2656 29.7177 58.2251 28.6107 58.1365 26.6845H66.4833V25.7989C66.4833 21.6587 63.8265 19.9097 60.8376 19.9097C57.4723 19.9097 54.8819 22.2786 54.8819 25.9317V26.1088C54.8819 29.8062 57.428 31.998 60.9261 31.998ZM58.1808 24.714C58.4243 23.0757 59.3985 22.1237 60.8376 22.1237C62.3652 22.1237 63.2508 22.965 63.3615 24.714H58.1808ZM77.313 31.999C79.2172 31.999 80.3902 31.1134 80.988 29.94V31.7555H84.1762V20.1763H80.988V26.9732C80.988 28.6781 79.9252 29.5193 78.5752 29.5193C77.2027 29.5193 76.56 28.7666 76.56 27.1946V20.1763H73.3722V27.6374C73.3722 30.6706 75.0547 31.999 77.313 31.999ZM89.5635 31.7545H86.3528V20.1753H89.5635V21.9465C90.1388 20.8617 91.3785 19.9097 93.1058 19.9097C94.6335 19.9097 95.7848 20.5518 96.3383 21.9244C97.2683 20.5296 98.7735 19.9097 100.235 19.9097C102.383 19.9097 104.043 21.2602 104.043 24.3377V31.7545H100.855V24.6919C100.855 23.2085 100.19 22.5443 99.039 22.5443C97.7993 22.5443 96.8033 23.3414 96.8033 24.9133V31.7545H93.615V24.6919C93.615 23.2085 92.9288 22.5443 91.7993 22.5443C90.5595 22.5443 89.5635 23.3414 89.5635 24.9133V31.7545ZM111.456 31.998C114.622 31.998 116.615 30.6033 116.991 28.1014H113.958C113.758 29.0756 113.028 29.7177 111.544 29.7177C109.795 29.7177 108.755 28.6107 108.666 26.6845H117.013V25.7989C117.013 21.6587 114.356 19.9097 111.367 19.9097C108.002 19.9097 105.411 22.2786 105.411 25.9317V26.1088C105.411 29.8062 107.958 31.998 111.456 31.998ZM108.711 24.714C108.954 23.0757 109.929 22.1237 111.367 22.1237C112.895 22.1237 113.781 22.965 113.892 24.714H108.711Z" fill="white"/>
</svg>
