<svg width="80" height="80" viewBox="0 0 80 80" fill="none" xmlns="http://www.w3.org/2000/svg">
<path fill-rule="evenodd" clip-rule="evenodd" d="M69.1 23.7333L68.6333 22.9C68.0313 21.8923 67.1823 21.0547 66.1666 20.4666L43.8 7.56663C42.7873 6.97913 41.6377 6.66869 40.4667 6.66663H39.5C38.329 6.66869 37.1793 6.97913 36.1667 7.56663L13.8 20.5C12.7899 21.0842 11.9509 21.9232 11.3667 22.9333L10.9 23.7666C10.3125 24.7794 10.0021 25.9291 10 27.1V52.9333C10.0021 54.1043 10.3125 55.2539 10.9 56.2666L11.3667 57.0999C11.966 58.0983 12.8016 58.9339 13.8 59.5333L36.2 72.4333C37.2077 73.0329 38.3607 73.3443 39.5333 73.3333H40.4667C41.6377 73.3313 42.7873 73.0209 43.8 72.4333L66.1666 59.4999C67.1866 58.9289 68.029 58.0866 68.6 57.0666L69.1 56.2333C69.6803 55.2176 69.9903 54.0699 70 52.8999V27.0666C69.998 25.8958 69.6876 24.7461 69.1 23.7333ZM39.5 13.3333H40.4667L60 24.6L40 36.1333L20 24.6L39.5 13.3333ZM43.3333 64.9999L62.8333 53.7333L63.3333 52.8999V30.3666L43.3333 41.9333V64.9999Z" fill="white"/>
</svg>
