<svg width="48" height="48" viewBox="0 0 48 48" fill="none" xmlns="http://www.w3.org/2000/svg">
<path d="M24.0105 44.299C21.2028 44.299 18.5648 43.766 16.0965 42.7C13.6285 41.634 11.4783 40.1861 9.646 38.3565C7.81367 36.5271 6.36484 34.3788 5.2995 31.9115C4.23384 29.4441 3.701 26.8071 3.701 24.0005C3.701 21.1935 4.23384 18.5563 5.2995 16.089C6.36484 13.6216 7.81367 11.4731 9.646 9.64346C11.4783 7.8138 13.629 6.36396 16.098 5.29396C18.5667 4.22396 21.2052 3.68896 24.0135 3.68896C26.8222 3.68896 29.4588 4.22396 31.9235 5.29396C34.3885 6.36396 36.5363 7.81296 38.367 9.64096C40.1977 11.4686 41.646 13.6166 42.712 16.085C43.778 18.553 44.311 21.1908 44.311 23.9985C44.311 26.8061 43.7783 29.444 42.713 31.912C41.648 34.3803 40.1997 36.5296 38.368 38.36C36.536 40.1906 34.387 41.6381 31.921 42.7025C29.4547 43.7668 26.8178 44.299 24.0105 44.299ZM17.998 39.9045L21.052 32.5955C19.7773 32.1621 18.642 31.4645 17.646 30.5025C16.6497 29.5408 15.9025 28.3726 15.4045 26.998L8.0835 29.902C9.11684 32.253 10.4795 34.2911 12.1715 36.0165C13.8638 37.7418 15.806 39.0378 17.998 39.9045ZM15.3545 21.04C15.8718 19.6576 16.6218 18.4811 17.6045 17.5105C18.5872 16.5398 19.7197 15.8338 21.002 15.3925L18.074 8.08346C15.582 9.1168 13.4773 10.5045 11.76 12.2465C10.0423 13.9888 8.81684 15.956 8.0835 18.148L15.3545 21.04ZM23.998 29.689C25.5833 29.689 26.9302 29.1376 28.0385 28.035C29.1468 26.932 29.701 25.5876 29.701 24.002C29.701 22.4166 29.1468 21.0698 28.0385 19.9615C26.9302 18.8531 25.5833 18.299 23.998 18.299C22.4123 18.299 21.068 18.8531 19.965 19.9615C18.8623 21.0698 18.311 22.4166 18.311 24.002C18.311 25.5876 18.8623 26.932 19.965 28.035C21.068 29.1376 22.4123 29.689 23.998 29.689ZM30.002 39.9045C32.294 38.9791 34.288 37.6601 35.984 35.9475C37.6803 34.2348 38.9912 32.249 39.9165 29.99L32.5955 26.998C32.0955 28.4136 31.3498 29.5985 30.3585 30.5525C29.3672 31.5065 28.2303 32.1875 26.948 32.5955L30.002 39.9045ZM32.5955 21.002L39.9165 17.998C38.9898 15.7363 37.6692 13.7521 35.9545 12.0455C34.2398 10.3388 32.2557 9.01813 30.002 8.08346L27.048 15.3925C28.333 15.8238 29.446 16.5203 30.387 17.482C31.3283 18.4436 32.0645 19.617 32.5955 21.002Z" fill="#020704"/>
</svg>
