<svg width="48" height="48" viewBox="0 0 48 48" fill="none" xmlns="http://www.w3.org/2000/svg">
<path d="M7.10767 42.299C6.18767 42.299 5.39001 41.9612 4.71467 41.2855C4.03901 40.6102 3.70117 39.8125 3.70117 38.8925V15.251C3.70117 14.3277 4.03901 13.5272 4.71467 12.8495C5.39001 12.1715 6.18767 11.8325 7.10767 11.8325H15.7252V6.83253C15.7252 5.92086 16.063 5.12519 16.7387 4.44552C17.414 3.76586 18.2117 3.42603 19.1317 3.42603H28.8687C29.7887 3.42603 30.5863 3.76586 31.2617 4.44552C31.9373 5.12519 32.2752 5.92086 32.2752 6.83253V11.8325H40.8927C41.816 11.8325 42.6165 12.1715 43.2942 12.8495C43.9722 13.5272 44.3112 14.3277 44.3112 15.251V38.8925C44.3112 39.8125 43.9722 40.6102 43.2942 41.2855C42.6165 41.9612 41.816 42.299 40.8927 42.299H7.10767ZM7.10767 38.8925H40.8927V15.251H7.10767V38.8925ZM19.1317 11.8325H28.8687V6.83253H19.1317V11.8325Z" fill="#020704"/>
</svg>
