<svg width="147" height="36" viewBox="0 0 147 36" fill="none" xmlns="http://www.w3.org/2000/svg">
<circle cx="18" cy="18" r="15" fill="#D4D7E0"></circle>
<path d="M24.7163 10.8826C22.3028 9.51185 20.1963 10.0643 18.9309 10.9442C18.4121 11.305 18.1526 11.4854 18 11.4854C17.8474 11.4854 17.5879 11.305 17.0691 10.9442C15.8037 10.0643 13.6972 9.51185 11.2837 10.8826C8.11626 12.6816 7.39955 18.6165 14.7056 23.6236C16.0971 24.5773 16.7929 25.0542 18 25.0542C19.2071 25.0542 19.9029 24.5773 21.2944 23.6236C28.6005 18.6165 27.8837 12.6816 24.7163 10.8826Z" fill="#C30000"></path>
<circle cx="18" cy="18" r="15" stroke="#141B34" stroke-width="1.5" stroke-linecap="round" stroke-linejoin="round"></circle>
<path d="M21.7904 22.6223C27.7921 18.0204 26.8422 12.9199 24.0633 11.278C21.8845 9.9907 19.9828 10.5095 18.8404 11.3358C18.372 11.6747 18.1378 11.8441 18 11.8441C17.8622 11.8441 17.628 11.6747 17.1596 11.3358C16.0172 10.5095 14.1155 9.9907 11.9367 11.278C9.1679 12.9139 8.47343 18.1707 14.4198 22.772C15.5549 23.6503 16.7567 24.4403 18 25.1569C20.6681 26.6948 24.6253 28.5 28.5 28.5M7.5 28.5C9.82308 28.5 12.1758 27.8511 14.2625 27" stroke="#141B34" stroke-width="1.5" stroke-linecap="round"></path>
<path d="M43.02 26.24C42.0867 26.24 41.2467 26.0667 40.5 25.72C39.7667 25.36 39.14 24.8667 38.62 24.24C38.1 23.6 37.7 22.84 37.42 21.96C37.1533 21.0667 37.02 20.0867 37.02 19.02C37.02 17.86 37.1667 16.8333 37.46 15.94C37.7667 15.0333 38.18 14.2733 38.7 13.66C39.22 13.0467 39.8333 12.5867 40.54 12.28C41.26 11.96 42.0333 11.8 42.86 11.8C43.7267 11.8 44.42 11.9467 44.94 12.24C45.4733 12.5333 45.8333 12.8733 46.02 13.26H46.12V12.04H47.94V16.28H46.12V15.3C46.12 14.62 45.8533 14.08 45.32 13.68C44.8 13.2667 44.0867 13.06 43.18 13.06C42.58 13.06 42.0533 13.1667 41.6 13.38C41.16 13.58 40.7933 13.8733 40.5 14.26C40.22 14.6333 40.0067 15.0867 39.86 15.62C39.7133 16.14 39.64 16.7133 39.64 17.34V20.46C39.64 21.8333 39.98 22.8867 40.66 23.62C41.3533 24.3533 42.2933 24.72 43.48 24.72C44.3867 24.72 45.1467 24.4867 45.76 24.02C46.3867 23.54 46.8467 22.92 47.14 22.16L48.08 22.66C47.9333 23.1 47.7133 23.5333 47.42 23.96C47.14 24.3867 46.7867 24.7733 46.36 25.12C45.9333 25.4533 45.44 25.7267 44.88 25.94C44.32 26.14 43.7 26.24 43.02 26.24ZM52.6697 26.24C51.6297 26.24 50.843 25.9867 50.3097 25.48C49.7897 24.96 49.5297 24.2533 49.5297 23.36C49.5297 22.3467 49.8897 21.58 50.6097 21.06C51.3297 20.54 52.503 20.28 54.1297 20.28H55.5697V18.92C55.5697 18.1067 55.3897 17.4867 55.0297 17.06C54.6697 16.6333 54.103 16.42 53.3297 16.42C52.6764 16.42 52.183 16.5133 51.8497 16.7V16.78C51.9964 16.8467 52.1297 16.9667 52.2497 17.14C52.383 17.3 52.4497 17.5267 52.4497 17.82C52.4497 18.1933 52.3364 18.4933 52.1097 18.72C51.8964 18.9467 51.583 19.06 51.1697 19.06C50.823 19.06 50.5297 18.9467 50.2897 18.72C50.063 18.48 49.9497 18.16 49.9497 17.76C49.9497 17.4533 50.0364 17.16 50.2097 16.88C50.3964 16.5867 50.663 16.3267 51.0097 16.1C51.3564 15.8733 51.7764 15.6933 52.2697 15.56C52.7764 15.4267 53.3564 15.36 54.0097 15.36C55.263 15.36 56.2097 15.6533 56.8497 16.24C57.4897 16.8267 57.8097 17.6467 57.8097 18.7V24.94H59.1697V25.84C58.983 25.9467 58.743 26.04 58.4497 26.12C58.1564 26.2 57.843 26.24 57.5097 26.24C56.8964 26.24 56.443 26.0867 56.1497 25.78C55.8697 25.46 55.7297 25.0533 55.7297 24.56V24.46H55.6297C55.5364 24.6867 55.4164 24.9067 55.2697 25.12C55.123 25.32 54.9297 25.5067 54.6897 25.68C54.463 25.8533 54.183 25.9867 53.8497 26.08C53.5164 26.1867 53.123 26.24 52.6697 26.24ZM53.5497 24.84C54.1364 24.84 54.6164 24.7 54.9897 24.42C55.3764 24.14 55.5697 23.68 55.5697 23.04V21.26H54.3697C53.423 21.26 52.763 21.4133 52.3897 21.72C52.0164 22.0267 51.8297 22.4667 51.8297 23.04V23.42C51.8297 23.9 51.983 24.26 52.2897 24.5C52.5964 24.7267 53.0164 24.84 53.5497 24.84ZM60.4644 24.92H61.8244V17.2L60.4644 16.94V16.06L64.0044 15.36V17.22H64.1044C64.1977 16.98 64.311 16.7533 64.4444 16.54C64.591 16.3133 64.7644 16.1133 64.9644 15.94C65.1777 15.7667 65.4177 15.6267 65.6844 15.52C65.9644 15.4133 66.2777 15.36 66.6244 15.36C67.2377 15.36 67.7244 15.5133 68.0844 15.82C68.4577 16.1267 68.6444 16.5667 68.6444 17.14C68.6444 17.5933 68.5244 17.9533 68.2844 18.22C68.0577 18.4733 67.7444 18.6 67.3444 18.6C66.931 18.6 66.6044 18.4933 66.3644 18.28C66.1377 18.0533 66.0244 17.7733 66.0244 17.44C66.0244 17.2133 66.071 17.0267 66.1644 16.88C66.2577 16.72 66.371 16.6267 66.5044 16.6V16.54C66.4644 16.5267 66.4177 16.52 66.3644 16.52C66.311 16.5067 66.231 16.5 66.1244 16.5C65.871 16.5 65.6177 16.5667 65.3644 16.7C65.1244 16.8333 64.9044 17.0067 64.7044 17.22C64.5177 17.42 64.3644 17.6533 64.2444 17.92C64.1244 18.1733 64.0644 18.4267 64.0644 18.68V24.92H65.8244V26H60.4644V24.92ZM74.3617 26.24C73.5884 26.24 72.9017 26.1133 72.3017 25.86C71.7017 25.5933 71.1951 25.22 70.7817 24.74C70.3684 24.26 70.0484 23.6867 69.8217 23.02C69.6084 22.3533 69.5017 21.6133 69.5017 20.8C69.5017 19.9733 69.6151 19.2267 69.8417 18.56C70.0817 17.8933 70.4084 17.3267 70.8217 16.86C71.2484 16.38 71.7484 16.0133 72.3217 15.76C72.9084 15.4933 73.5484 15.36 74.2417 15.36C74.9484 15.36 75.5817 15.48 76.1417 15.72C76.7017 15.9467 77.1751 16.2733 77.5617 16.7C77.9617 17.1267 78.2684 17.64 78.4817 18.24C78.6951 18.84 78.8017 19.5067 78.8017 20.24V20.78H71.9217V21.42C71.9217 22.46 72.1817 23.2667 72.7017 23.84C73.2217 24.4 73.9217 24.68 74.8017 24.68C75.5751 24.68 76.1951 24.5133 76.6617 24.18C77.1417 23.8333 77.4951 23.4067 77.7217 22.9L78.5817 23.42C78.4617 23.7667 78.2817 24.1067 78.0417 24.44C77.8151 24.7733 77.5284 25.0733 77.1817 25.34C76.8351 25.6067 76.4284 25.8267 75.9617 26C75.4951 26.16 74.9617 26.24 74.3617 26.24ZM71.9217 19.72H76.4817V19.5C76.4817 18.54 76.2951 17.8 75.9217 17.28C75.5617 16.7467 75.0017 16.48 74.2417 16.48C73.4951 16.48 72.9217 16.74 72.5217 17.26C72.1217 17.7667 71.9217 18.5 71.9217 19.46V19.72ZM85.3039 26.24C84.4772 26.24 83.8039 26.1 83.2839 25.82C82.7772 25.54 82.4306 25.2067 82.2439 24.82H82.1439V26H80.3239V21.9H82.1439V22.8C82.1439 23.4933 82.3706 24.0333 82.8239 24.42C83.2906 24.8067 84.0306 25 85.0439 25C86.1106 25 86.8839 24.78 87.3639 24.34C87.8439 23.9 88.0839 23.3133 88.0839 22.58C88.0839 21.9267 87.9039 21.4267 87.5439 21.08C87.1839 20.72 86.5772 20.4333 85.7239 20.22L84.7039 19.98C84.0506 19.8333 83.4639 19.64 82.9439 19.4C82.4239 19.16 81.9839 18.8667 81.6239 18.52C81.2639 18.1733 80.9839 17.7667 80.7839 17.3C80.5972 16.8333 80.5039 16.2867 80.5039 15.66C80.5039 15.0867 80.6106 14.5667 80.8239 14.1C81.0372 13.62 81.3372 13.2133 81.7239 12.88C82.1239 12.5333 82.6039 12.2667 83.1639 12.08C83.7239 11.8933 84.3572 11.8 85.0639 11.8C85.8639 11.8 86.5039 11.9333 86.9839 12.2C87.4639 12.4667 87.7972 12.78 87.9839 13.14H88.0839V12.04H89.9039V16.02H88.0839V15.12C88.0839 14.44 87.8506 13.9267 87.3839 13.58C86.9306 13.22 86.2106 13.04 85.2239 13.04C84.3039 13.04 83.6172 13.2467 83.1639 13.66C82.7239 14.06 82.5039 14.5733 82.5039 15.2C82.5039 15.8667 82.7039 16.38 83.1039 16.74C83.5172 17.1 84.1906 17.3933 85.1239 17.62L86.0639 17.82C87.3572 18.1267 88.3572 18.6133 89.0639 19.28C89.7706 19.9333 90.1239 20.8333 90.1239 21.98C90.1239 22.5933 90.0106 23.16 89.7839 23.68C89.5706 24.2 89.2572 24.6533 88.8439 25.04C88.4439 25.4133 87.9439 25.7067 87.3439 25.92C86.7439 26.1333 86.0639 26.24 85.3039 26.24ZM91.6956 28.92H93.0556V17.2L91.6956 16.94V16.06L95.2956 15.36V17.16H95.3956C95.609 16.68 95.9556 16.26 96.4356 15.9C96.9156 15.54 97.5423 15.36 98.3156 15.36C98.9556 15.36 99.5356 15.4867 100.056 15.74C100.576 15.98 101.016 16.3333 101.376 16.8C101.736 17.2667 102.016 17.84 102.216 18.52C102.416 19.1867 102.516 19.9467 102.516 20.8C102.516 21.6533 102.416 22.42 102.216 23.1C102.016 23.7667 101.736 24.3333 101.376 24.8C101.016 25.2667 100.576 25.6267 100.056 25.88C99.5356 26.12 98.9556 26.24 98.3156 26.24C97.529 26.24 96.8956 26.06 96.4156 25.7C95.949 25.34 95.609 24.92 95.3956 24.44H95.2956V28.92H97.0556V30H91.6956V28.92ZM97.6156 24.8C98.3756 24.8 98.9823 24.54 99.4356 24.02C99.889 23.5 100.116 22.78 100.116 21.86V19.74C100.116 18.82 99.889 18.1 99.4356 17.58C98.9823 17.06 98.3756 16.8 97.6156 16.8C97.309 16.8 97.0156 16.8467 96.7356 16.94C96.469 17.02 96.2223 17.1467 95.9956 17.32C95.7823 17.4933 95.609 17.7 95.4756 17.94C95.3556 18.18 95.2956 18.4533 95.2956 18.76V22.84C95.2956 23.1467 95.3556 23.42 95.4756 23.66C95.609 23.9 95.7823 24.1067 95.9956 24.28C96.2223 24.4533 96.469 24.5867 96.7356 24.68C97.0156 24.76 97.309 24.8 97.6156 24.8ZM103.877 24.92H105.237V12.64L103.877 12.38V11.5L107.477 10.8V17.22H107.577C107.657 16.9933 107.777 16.7667 107.937 16.54C108.11 16.3133 108.317 16.1133 108.557 15.94C108.797 15.7667 109.077 15.6267 109.397 15.52C109.717 15.4133 110.077 15.36 110.477 15.36C111.744 15.36 112.644 15.6867 113.177 16.34C113.71 16.98 113.977 17.9467 113.977 19.24V24.92H115.337V26H110.417V24.92H111.737V19.36C111.737 18.4933 111.57 17.86 111.237 17.46C110.904 17.06 110.377 16.86 109.657 16.86C109.39 16.86 109.124 16.9 108.857 16.98C108.604 17.0467 108.37 17.16 108.157 17.32C107.957 17.4667 107.79 17.6533 107.657 17.88C107.537 18.1067 107.477 18.38 107.477 18.7V24.92H108.797V26H103.877V24.92ZM121.452 26.24C120.679 26.24 119.992 26.1133 119.392 25.86C118.792 25.5933 118.286 25.22 117.872 24.74C117.459 24.26 117.139 23.6867 116.912 23.02C116.699 22.3533 116.592 21.6133 116.592 20.8C116.592 19.9733 116.706 19.2267 116.932 18.56C117.172 17.8933 117.499 17.3267 117.912 16.86C118.339 16.38 118.839 16.0133 119.412 15.76C119.999 15.4933 120.639 15.36 121.332 15.36C122.039 15.36 122.672 15.48 123.232 15.72C123.792 15.9467 124.266 16.2733 124.652 16.7C125.052 17.1267 125.359 17.64 125.572 18.24C125.786 18.84 125.892 19.5067 125.892 20.24V20.78H119.012V21.42C119.012 22.46 119.272 23.2667 119.792 23.84C120.312 24.4 121.012 24.68 121.892 24.68C122.666 24.68 123.286 24.5133 123.752 24.18C124.232 23.8333 124.586 23.4067 124.812 22.9L125.672 23.42C125.552 23.7667 125.372 24.1067 125.132 24.44C124.906 24.7733 124.619 25.0733 124.272 25.34C123.926 25.6067 123.519 25.8267 123.052 26C122.586 26.16 122.052 26.24 121.452 26.24ZM119.012 19.72H123.572V19.5C123.572 18.54 123.386 17.8 123.012 17.28C122.652 16.7467 122.092 16.48 121.332 16.48C120.586 16.48 120.012 16.74 119.612 17.26C119.212 17.7667 119.012 18.5 119.012 19.46V19.72ZM127.37 24.92H128.73V17.2L127.37 16.94V16.06L130.91 15.36V17.22H131.01C131.103 16.98 131.217 16.7533 131.35 16.54C131.497 16.3133 131.67 16.1133 131.87 15.94C132.083 15.7667 132.323 15.6267 132.59 15.52C132.87 15.4133 133.183 15.36 133.53 15.36C134.143 15.36 134.63 15.5133 134.99 15.82C135.363 16.1267 135.55 16.5667 135.55 17.14C135.55 17.5933 135.43 17.9533 135.19 18.22C134.963 18.4733 134.65 18.6 134.25 18.6C133.837 18.6 133.51 18.4933 133.27 18.28C133.043 18.0533 132.93 17.7733 132.93 17.44C132.93 17.2133 132.977 17.0267 133.07 16.88C133.163 16.72 133.277 16.6267 133.41 16.6V16.54C133.37 16.5267 133.323 16.52 133.27 16.52C133.217 16.5067 133.137 16.5 133.03 16.5C132.777 16.5 132.523 16.5667 132.27 16.7C132.03 16.8333 131.81 17.0067 131.61 17.22C131.423 17.42 131.27 17.6533 131.15 17.92C131.03 18.1733 130.97 18.4267 130.97 18.68V24.92H132.73V26H127.37V24.92ZM141.267 26.24C140.494 26.24 139.807 26.1133 139.207 25.86C138.607 25.5933 138.101 25.22 137.687 24.74C137.274 24.26 136.954 23.6867 136.727 23.02C136.514 22.3533 136.407 21.6133 136.407 20.8C136.407 19.9733 136.521 19.2267 136.747 18.56C136.987 17.8933 137.314 17.3267 137.727 16.86C138.154 16.38 138.654 16.0133 139.227 15.76C139.814 15.4933 140.454 15.36 141.147 15.36C141.854 15.36 142.487 15.48 143.047 15.72C143.607 15.9467 144.081 16.2733 144.467 16.7C144.867 17.1267 145.174 17.64 145.387 18.24C145.601 18.84 145.707 19.5067 145.707 20.24V20.78H138.827V21.42C138.827 22.46 139.087 23.2667 139.607 23.84C140.127 24.4 140.827 24.68 141.707 24.68C142.481 24.68 143.101 24.5133 143.567 24.18C144.047 23.8333 144.401 23.4067 144.627 22.9L145.487 23.42C145.367 23.7667 145.187 24.1067 144.947 24.44C144.721 24.7733 144.434 25.0733 144.087 25.34C143.741 25.6067 143.334 25.8267 142.867 26C142.401 26.16 141.867 26.24 141.267 26.24ZM138.827 19.72H143.387V19.5C143.387 18.54 143.201 17.8 142.827 17.28C142.467 16.7467 141.907 16.48 141.147 16.48C140.401 16.48 139.827 16.74 139.427 17.26C139.027 17.7667 138.827 18.5 138.827 19.46V19.72Z" fill="black"></path>
</svg>