<?xml version="1.0" encoding="utf-8"?><svg xmlns="http://www.w3.org/2000/svg" xmlns:xlink="http://www.w3.org/1999/xlink"><symbol fill="none" viewBox="0 0 20 20" id="arrow-right" xmlns="http://www.w3.org/2000/svg"><path fill-rule="evenodd" clip-rule="evenodd" d="M10.244 4.41a.833.833 0 0 1 1.178 0l5 5a.833.833 0 0 1 0 1.18l-5 5a.833.833 0 0 1-1.178-1.18l3.577-3.577H4.167a.833.833 0 1 1 0-1.666h9.654l-3.577-3.578a.833.833 0 0 1 0-1.178Z" fill="currentColor"/></symbol><symbol fill="none" viewBox="0 0 20 20" id="bell" xmlns="http://www.w3.org/2000/svg"><path fill-rule="evenodd" clip-rule="evenodd" d="M10.087 2.5c-2.42 0-4.292 1.83-4.292 3.979v2.037c0 .268-.11.505-.167.621a4.426 4.426 0 0 1-.276.47c-.21.317-.49.688-.79 1.063-.383.48-.465 1.038-.343 1.466.116.406.418.724.932.81 1.297.214 2.956.387 4.936.387 2.126 0 3.75-.199 4.925-.433.418-.083.659-.335.763-.661.112-.349.073-.822-.208-1.272-.135-.216-.28-.437-.426-.659l-.044-.068c-.13-.196-.26-.394-.376-.577a7.196 7.196 0 0 1-.347-.598c-.073-.148-.207-.43-.207-.732V6.427c0-2.183-1.695-3.927-4.08-3.927ZM4.129 6.479c0-3.167 2.717-5.646 5.958-5.646 3.275 0 5.746 2.46 5.746 5.594V8.25l.032.068c.056.113.145.264.265.454.107.169.228.352.359.55l.044.068c.146.222.301.459.448.695.516.828.655 1.806.382 2.66-.281.878-.988 1.582-2.025 1.789-1.287.256-3.02.465-5.251.465-2.077 0-3.827-.181-5.208-.41-1.185-.197-1.98-1.006-2.262-1.997-.277-.97-.062-2.08.642-2.962.288-.361.533-.687.702-.944.082-.123.136-.216.168-.278v-1.93Zm.024 1.875s0 .004-.004.011a.072.072 0 0 1 .004-.01Zm9.001 7.797a.833.833 0 0 1-.138 1.17c-1.701 1.341-4.313 1.358-6.033 0a.833.833 0 0 1 1.034-1.308c1.109.876 2.867.867 3.967 0a.833.833 0 0 1 1.17.138Z" fill="currentColor"/></symbol><symbol fill="none" viewBox="0 0 20 20" id="calendar" xmlns="http://www.w3.org/2000/svg"><path fill-rule="evenodd" clip-rule="evenodd" d="M6.667.833c.46 0 .833.373.833.834v.835c.248-.002.515-.002.804-.002h3.392c.289 0 .556 0 .804.002v-.835a.833.833 0 1 1 1.667 0v.937c.266.045.517.112.76.213a4.167 4.167 0 0 1 2.256 2.255c.176.425.249.873.283 1.38.034.494.034 1.1.034 1.852v3.032c0 .919 0 1.66-.05 2.259-.051.617-.16 1.16-.42 1.66a4.167 4.167 0 0 1-1.776 1.776c-.5.26-1.042.368-1.66.42-.599.049-1.34.049-2.258.049H8.664c-.919 0-1.66 0-2.259-.05-.617-.051-1.16-.16-1.66-.42a4.167 4.167 0 0 1-1.776-1.776c-.26-.5-.368-1.042-.42-1.66-.049-.599-.049-1.34-.049-2.258V8.304c0-.752 0-1.358.034-1.851.034-.508.107-.956.283-1.38a4.167 4.167 0 0 1 2.255-2.256c.244-.1.495-.168.761-.213v-.937c0-.46.373-.834.834-.834Zm-.834 3.48A2.5 2.5 0 0 0 4.357 5.71c-.078.187-.132.433-.16.855-.018.26-.025.562-.028.934H15.83c-.003-.372-.01-.675-.027-.934-.03-.422-.083-.668-.161-.856a2.5 2.5 0 0 0-1.476-1.398V5A.833.833 0 0 1 12.5 5v-.831c-.245-.002-.52-.002-.833-.002H8.333c-.313 0-.588 0-.833.002V5a.833.833 0 0 1-1.667 0v-.688Zm10 4.854H4.167V11.3c0 .963 0 1.634.044 2.157.042.512.122.806.237 1.029a2.5 2.5 0 0 0 1.066 1.066c.223.115.517.195 1.03.237.521.044 1.193.044 2.156.044h2.6c.963 0 1.634 0 2.157-.044.512-.042.806-.122 1.029-.237a2.5 2.5 0 0 0 1.066-1.066c.115-.223.195-.517.237-1.03.044-.521.044-1.193.044-2.156V9.167Zm-5 4.166c0-.46.373-.833.834-.833h1.666a.833.833 0 1 1 0 1.667h-1.666a.833.833 0 0 1-.834-.834Z" fill="currentColor"/></symbol><symbol fill="none" viewBox="0 0 20 20" id="chevron" xmlns="http://www.w3.org/2000/svg"><path fill-rule="evenodd" clip-rule="evenodd" d="M6.91 4.41a.833.833 0 0 1 1.18 0l4.852 4.853a1.042 1.042 0 0 1 0 1.474l-4.853 4.852a.833.833 0 0 1-1.178-1.178L11.32 10l-4.41-4.41a.833.833 0 0 1 0-1.18Z" fill="currentColor"/></symbol><symbol fill="none" viewBox="0 0 20 20" id="chevron-down" xmlns="http://www.w3.org/2000/svg"><path fill-rule="evenodd" clip-rule="evenodd" d="M4.41 6.91a.833.833 0 0 1 1.18 0L10 11.323l4.41-4.411a.833.833 0 1 1 1.18 1.178l-4.854 4.853a1.042 1.042 0 0 1-1.473 0L4.411 8.089a.833.833 0 0 1 0-1.178Z" fill="currentColor"/></symbol><symbol fill="none" viewBox="0 0 20 20" id="chevron-left" xmlns="http://www.w3.org/2000/svg"><path fill-rule="evenodd" clip-rule="evenodd" d="M13.09 4.41a.833.833 0 0 1 0 1.18L8.677 10l4.411 4.41a.833.833 0 1 1-1.178 1.18l-4.853-4.853a1.042 1.042 0 0 1 0-1.474l4.853-4.852a.833.833 0 0 1 1.178 0Z" fill="currentColor"/></symbol><symbol fill="none" viewBox="0 0 20 20" id="close" xmlns="http://www.w3.org/2000/svg"><path fill-rule="evenodd" clip-rule="evenodd" d="M4.41 4.41a.833.833 0 0 1 1.18 0L10 8.822l4.41-4.41a.833.833 0 1 1 1.18 1.178L11.177 10l4.411 4.41a.833.833 0 1 1-1.178 1.18L10 11.177 5.59 15.59a.833.833 0 1 1-1.18-1.178L8.822 10l-4.41-4.41a.833.833 0 0 1 0-1.18Z" fill="currentColor"/></symbol><symbol fill="none" viewBox="0 0 20 20" id="credit-card" xmlns="http://www.w3.org/2000/svg"><path d="M4.167 13.333c0-.46.373-.833.833-.833h1.667a.833.833 0 1 1 0 1.667H5a.833.833 0 0 1-.833-.834ZM9.167 12.5a.833.833 0 1 0 0 1.667H10a.833.833 0 1 0 0-1.667h-.833Z" fill="currentColor"/><path fill-rule="evenodd" clip-rule="evenodd" d="M5.657 2.5c-.682 0-1.245 0-1.704.038-.476.04-.913.124-1.323.337A3.333 3.333 0 0 0 1.21 4.297C.996 4.707.91 5.144.87 5.62.833 6.078.833 6.64.833 7.323v5.354c0 .682 0 1.245.038 1.703.04.476.125.914.338 1.323a3.333 3.333 0 0 0 1.421 1.422c.41.212.847.297 1.323.337.459.038 1.022.038 1.704.038h8.686c.682 0 1.245 0 1.704-.038.476-.04.913-.125 1.323-.337a3.333 3.333 0 0 0 1.421-1.422c.213-.41.298-.847.338-1.323.038-.458.038-1.021.038-1.703V7.323c0-.682 0-1.245-.038-1.703-.04-.476-.125-.914-.338-1.323a3.333 3.333 0 0 0-1.421-1.422c-.41-.213-.847-.297-1.323-.337-.459-.038-1.022-.038-1.704-.038H5.657ZM3.398 4.354c.133-.068.322-.124.693-.155.381-.032.875-.032 1.6-.032h8.617c.726 0 1.22 0 1.6.032.372.03.562.087.694.155.304.158.552.407.71.711.069.132.125.322.156.693.02.245.028.538.03.909H2.502c.002-.371.01-.664.03-.91.031-.37.087-.56.156-.692.158-.304.406-.553.71-.71ZM2.5 8.334v4.308c0 .726 0 1.219.032 1.6.031.371.087.56.156.693.158.304.406.553.71.71.133.07.322.125.693.156.381.032.875.032 1.6.032h8.617c.726 0 1.22 0 1.6-.032.372-.03.562-.087.694-.155.304-.158.552-.407.71-.711.069-.132.125-.322.156-.693.031-.381.032-.875.032-1.6V8.333h-15Z" fill="currentColor"/></symbol><symbol fill="none" viewBox="0 0 20 20" id="document" xmlns="http://www.w3.org/2000/svg"><path fill-rule="evenodd" clip-rule="evenodd" d="M5.833 2.5c-.92 0-1.666.746-1.666 1.667v10.166c0 .714 0 1.2.031 1.575.03.365.084.552.15.682.16.314.415.569.729.728.13.067.317.12.682.15.375.031.86.032 1.574.032h5.334c.713 0 1.199 0 1.574-.031.365-.03.552-.084.682-.15.314-.16.569-.415.729-.729.066-.13.12-.317.15-.682.03-.376.031-.86.031-1.575v-3.5A3.333 3.333 0 0 0 12.5 7.5h-.625a2.708 2.708 0 0 1-2.708-2.708A2.292 2.292 0 0 0 6.875 2.5H5.833Zm2.5-1.667A9.167 9.167 0 0 1 17.5 10v4.368c0 .67 0 1.224-.037 1.675-.038.469-.12.9-.326 1.304a3.333 3.333 0 0 1-1.457 1.456c-.405.206-.835.289-1.303.327-.452.037-1.005.037-1.676.037H7.3c-.67 0-1.225 0-1.676-.037-.468-.038-.899-.12-1.303-.327a3.333 3.333 0 0 1-1.457-1.456c-.206-.405-.288-.835-.326-1.304-.037-.45-.037-1.004-.037-1.675V4.167A3.333 3.333 0 0 1 5.833.833h2.5Zm6.623 5.644a7.517 7.517 0 0 0-4.688-3.725 3.94 3.94 0 0 1 .565 2.04c0 .575.467 1.041 1.042 1.041h.625c.893 0 1.73.234 2.456.644Z" fill="currentColor"/></symbol><symbol fill="none" viewBox="0 0 20 20" id="download" xmlns="http://www.w3.org/2000/svg"><path fill-rule="evenodd" clip-rule="evenodd" d="M10 2.5c.46 0 .833.373.833.833v7.155l1.911-1.91a.833.833 0 0 1 1.179 1.178l-3.334 3.333a.834.834 0 0 1-1.178 0L6.077 9.756a.833.833 0 1 1 1.179-1.179l1.91 1.911V3.333c0-.46.374-.833.834-.833Zm-6.667 9.167c.46 0 .834.373.834.833 0 .814.004 1.1.048 1.321a2.5 2.5 0 0 0 1.964 1.964c.221.044.507.048 1.321.048h5c.814 0 1.1-.004 1.321-.048a2.5 2.5 0 0 0 1.964-1.964c.044-.221.048-.507.048-1.321a.833.833 0 0 1 1.667 0v.096c0 .682 0 1.146-.08 1.55a4.166 4.166 0 0 1-3.274 3.274c-.404.08-.868.08-1.55.08H7.404c-.68 0-1.145 0-1.55-.08a4.167 4.167 0 0 1-3.273-3.274c-.08-.404-.08-.868-.08-1.55V12.5c0-.46.373-.833.833-.833Z" fill="currentColor"/></symbol><symbol fill="none" viewBox="0 0 20 20" id="error" xmlns="http://www.w3.org/2000/svg"><path d="M8.09 6.91a.833.833 0 0 0-1.18 1.18L8.823 10 6.91 11.91a.833.833 0 1 0 1.178 1.18L10 11.177l1.91 1.911a.833.833 0 0 0 1.18-1.178L11.177 10l1.911-1.91a.833.833 0 0 0-1.178-1.18L10 8.823 8.09 6.91Z" fill="currentColor"/><path fill-rule="evenodd" clip-rule="evenodd" d="M10 1.667a8.333 8.333 0 1 0 0 16.666 8.333 8.333 0 0 0 0-16.666ZM3.333 10a6.667 6.667 0 1 1 13.334 0 6.667 6.667 0 0 1-13.334 0Z" fill="currentColor"/></symbol><symbol fill="none" viewBox="0 0 20 20" id="external" xmlns="http://www.w3.org/2000/svg"><path fill-rule="evenodd" clip-rule="evenodd" d="M7.83 18.333c-.918 0-1.659 0-2.258-.05-.618-.05-1.16-.159-1.66-.419a4.167 4.167 0 0 1-1.776-1.777c-.26-.5-.368-1.041-.42-1.659-.05-.6-.05-1.34-.05-2.258v-1.84c0-.918 0-1.659.05-2.258.052-.618.16-1.16.42-1.66a4.167 4.167 0 0 1 1.777-1.776c.5-.26 1.041-.368 1.659-.42.6-.05 1.34-.05 2.258-.05h1.337a.833.833 0 0 1 0 1.667h-1.3c-.963 0-1.635.001-2.157.044-.513.043-.807.122-1.03.238A2.5 2.5 0 0 0 3.616 7.18c-.116.222-.195.516-.238 1.029-.043.522-.044 1.194-.044 2.157v1.766c0 .964.001 1.635.044 2.157.043.513.122.807.238 1.03a2.5 2.5 0 0 0 1.066 1.065c.222.116.516.195 1.029.238.522.043 1.194.044 2.157.044h1.766c.964 0 1.635-.001 2.157-.044.513-.043.807-.122 1.03-.238a2.5 2.5 0 0 0 1.065-1.066c.116-.222.195-.516.238-1.029.043-.522.044-1.193.044-2.157v-1.3a.833.833 0 0 1 1.666 0v1.337c0 .918 0 1.659-.05 2.258-.05.617-.159 1.16-.419 1.66a4.167 4.167 0 0 1-1.777 1.776c-.5.26-1.041.368-1.659.42-.6.05-1.34.05-2.258.05H7.83Z" fill="currentColor"/><path fill-rule="evenodd" clip-rule="evenodd" d="M11.178 2.5c0-.46.374-.833.834-.833h5.416c.46 0 .834.373.834.833v5.417a.833.833 0 0 1-1.667 0V4.5l-5.172 5.172a.833.833 0 1 1-1.179-1.178l5.16-5.16h-3.392a.833.833 0 0 1-.834-.834Z" fill="currentColor"/></symbol><symbol fill="none" viewBox="0 0 24 24" id="facebook" xmlns="http://www.w3.org/2000/svg"><path d="M22 12c0-5.523-4.477-10-10-10S2 6.477 2 12c0 4.991 3.657 9.128 8.438 9.878v-6.987h-2.54V12h2.54V9.797c0-2.506 1.492-3.89 3.777-3.89 1.093 0 2.238.195 2.238.195v2.46h-1.26c-1.243 0-1.63.771-1.63 1.563V12h2.773l-.443 2.89h-2.33v6.988C18.343 21.128 22 16.991 22 12Z" fill="currentColor"/></symbol><symbol fill="none" viewBox="0 0 20 20" id="hamburger" xmlns="http://www.w3.org/2000/svg"><path fill-rule="evenodd" clip-rule="evenodd" d="M2.5 5c0-.46.373-.833.833-.833h13.334a.833.833 0 0 1 0 1.666H3.333A.833.833 0 0 1 2.5 5Zm0 5c0-.46.373-.833.833-.833h13.334a.833.833 0 0 1 0 1.666H3.333A.833.833 0 0 1 2.5 10Zm0 5c0-.46.373-.833.833-.833h13.334a.833.833 0 0 1 0 1.666H3.333A.833.833 0 0 1 2.5 15Z" fill="currentColor"/></symbol><symbol fill="none" viewBox="0 0 20 20" id="help" xmlns="http://www.w3.org/2000/svg"><path d="M10.833 14.167a.833.833 0 1 1-1.666 0 .833.833 0 0 1 1.666 0ZM8.542 8.02c0-.71.616-1.353 1.458-1.353s1.458.642 1.458 1.354c0 .489-.282.936-.738 1.177-.218.116-.536.288-.81.556a2.482 2.482 0 0 0-.743 1.772v.14a.833.833 0 0 0 1.666 0v-.14c0-.22.088-.43.245-.583.082-.08.202-.155.423-.272.953-.505 1.624-1.492 1.624-2.65C13.125 6.316 11.689 5 10 5S6.875 6.316 6.875 8.02a.833.833 0 1 0 1.667 0Z" fill="currentColor"/><path fill-rule="evenodd" clip-rule="evenodd" d="M1.667 10a8.333 8.333 0 1 1 16.666 0 8.333 8.333 0 0 1-16.666 0ZM10 3.333a6.667 6.667 0 1 0 0 13.334 6.667 6.667 0 0 0 0-13.334Z" fill="currentColor"/></symbol><symbol fill="none" viewBox="0 0 24 24" id="instagram" xmlns="http://www.w3.org/2000/svg"><path d="M12.006 3.802c2.673 0 2.99.012 4.041.058.977.043 1.505.208 1.857.344.465.18.801.4 1.149.747.352.352.567.684.746 1.15.137.35.301.882.344 1.856.047 1.055.06 1.372.06 4.041 0 2.674-.013 2.99-.06 4.042-.043.977-.207 1.504-.344 1.856-.18.465-.398.801-.746 1.15a3.077 3.077 0 0 1-1.15.746c-.35.136-.883.3-1.856.344-1.055.047-1.372.058-4.041.058-2.674 0-2.99-.011-4.042-.058-.977-.043-1.504-.207-1.856-.344a3.094 3.094 0 0 1-1.15-.747 3.077 3.077 0 0 1-.746-1.149c-.137-.352-.3-.883-.344-1.857-.047-1.055-.058-1.371-.058-4.041 0-2.673.011-2.99.058-4.041.043-.978.207-1.505.344-1.857.18-.465.399-.801.747-1.149a3.078 3.078 0 0 1 1.149-.747c.352-.136.883-.3 1.856-.344 1.052-.046 1.368-.058 4.042-.058Zm0-1.802c-2.717 0-3.057.012-4.124.059-1.063.047-1.794.219-2.427.465-.66.258-1.22.598-1.774 1.157a4.903 4.903 0 0 0-1.157 1.77c-.246.637-.418 1.364-.465 2.427C2.012 8.95 2 9.29 2 12.006c0 2.716.012 3.056.059 4.123.047 1.063.219 1.794.465 2.428.258.66.598 1.219 1.157 1.774a4.892 4.892 0 0 0 1.77 1.153c.637.246 1.364.418 2.427.465 1.067.047 1.408.059 4.124.059 2.716 0 3.056-.012 4.123-.059 1.064-.047 1.794-.219 2.428-.465a4.892 4.892 0 0 0 1.77-1.153 4.893 4.893 0 0 0 1.153-1.77c.247-.638.419-1.365.465-2.428.047-1.067.059-1.407.059-4.123 0-2.717-.012-3.057-.059-4.124-.046-1.063-.218-1.794-.465-2.427a4.688 4.688 0 0 0-1.145-1.778 4.892 4.892 0 0 0-1.77-1.153c-.638-.247-1.365-.419-2.428-.465-1.07-.051-1.41-.063-4.127-.063Z" fill="currentColor"/><path d="M12.006 6.866a5.141 5.141 0 0 0-5.14 5.14 5.141 5.141 0 1 0 5.14-5.14Zm0 8.474a3.334 3.334 0 1 1 0-6.669 3.334 3.334 0 0 1 0 6.669ZM18.549 6.663a1.2 1.2 0 1 1-2.4 0 1.2 1.2 0 0 1 2.4 0Z" fill="currentColor"/></symbol><symbol fill="none" viewBox="0 0 19 20" id="linkedin" xmlns="http://www.w3.org/2000/svg"><path d="M16.189 17.041h-2.815v-4.64c0-1.107-.02-2.532-1.465-2.532-1.466 0-1.69 1.206-1.69 2.45v4.722H7.404V7.497h2.702v1.305h.038c.27-.487.661-.888 1.131-1.16.47-.27 1-.403 1.536-.382 2.853 0 3.38 1.976 3.38 4.546l-.002 5.235ZM4.227 6.193c-.323 0-.639-.1-.907-.29a1.704 1.704 0 0 1-.602-.771 1.804 1.804 0 0 1-.093-.994 1.75 1.75 0 0 1 .447-.88c.228-.241.519-.405.836-.472.317-.066.645-.032.944.098.298.13.554.35.733.633a1.785 1.785 0 0 1 .151 1.614 1.729 1.729 0 0 1-.354.558c-.151.16-.331.286-.53.373-.198.086-.41.13-.625.13ZM5.635 17.04H2.817V7.497h2.818v9.544ZM17.592.001H1.402a1.35 1.35 0 0 0-.984.416C.155.687.004 1.057 0 1.443v17.114c.004.387.154.756.417 1.027.263.27.617.42.985.416h16.19c.369.005.724-.145.988-.415s.415-.64.42-1.028V1.442a1.5 1.5 0 0 0-.42-1.028A1.353 1.353 0 0 0 17.592 0" fill="currentColor"/></symbol><symbol fill="none" viewBox="0 0 20 20" id="location" xmlns="http://www.w3.org/2000/svg"><path fill-rule="evenodd" clip-rule="evenodd" d="M10 5a3.333 3.333 0 1 0 0 6.667A3.333 3.333 0 0 0 10 5Zm0 1.667A1.667 1.667 0 1 0 10 10a1.667 1.667 0 0 0 0-3.333Z" fill="currentColor"/><path fill-rule="evenodd" clip-rule="evenodd" d="M9.242 18.83c.096.066.173.117.227.152l.088.057c.27.17.615.17.885 0l.09-.057a18.618 18.618 0 0 0 1.018-.729 20.892 20.892 0 0 0 2.387-2.142c1.718-1.806 3.563-4.467 3.563-7.626a7.73 7.73 0 0 0-2.19-5.404A7.426 7.426 0 0 0 10 .833c-1.995 0-3.905.811-5.31 2.248A7.73 7.73 0 0 0 2.5 8.485c0 3.159 1.845 5.82 3.563 7.626a20.9 20.9 0 0 0 3.179 2.719ZM10 2.5a5.76 5.76 0 0 0-4.118 1.746 6.064 6.064 0 0 0-1.715 4.239c0 2.516 1.488 4.779 3.104 6.478A19.24 19.24 0 0 0 10 17.327a19.23 19.23 0 0 0 2.73-2.364c1.615-1.7 3.103-3.962 3.103-6.478a6.064 6.064 0 0 0-1.715-4.239A5.76 5.76 0 0 0 10 2.5Z" fill="currentColor"/></symbol><symbol fill="none" viewBox="0 0 20 20" id="mail" xmlns="http://www.w3.org/2000/svg"><path fill-rule="evenodd" clip-rule="evenodd" d="M6.997 2.5h6.006c.918 0 1.66 0 2.259.05.617.051 1.159.16 1.659.42a4.167 4.167 0 0 1 1.777 1.776c.26.5.368 1.042.419 1.66.05.599.05 1.34.05 2.258v2.672c0 .919 0 1.66-.05 2.259-.051.617-.16 1.16-.42 1.66a4.167 4.167 0 0 1-1.776 1.776c-.5.26-1.042.368-1.66.42-.599.049-1.34.049-2.258.049H6.997c-.918 0-1.659 0-2.258-.05-.618-.051-1.16-.16-1.66-.42a4.167 4.167 0 0 1-1.777-1.776c-.26-.5-.368-1.042-.419-1.66-.05-.599-.05-1.34-.05-2.258V8.664c0-.919 0-1.66.05-2.259.051-.617.16-1.16.42-1.66A4.167 4.167 0 0 1 3.078 2.97c.5-.26 1.042-.368 1.66-.42.599-.049 1.34-.049 2.258-.049Zm-2.62 1.775a4.115 4.115 0 0 1 1.898 1.027l2.45 2.332c.338.323.556.53.735.674.171.139.252.174.296.187a.833.833 0 0 0 .488 0c.044-.013.125-.048.296-.187.179-.144.397-.351.736-.674l2.449-2.332a4.115 4.115 0 0 1 1.898-1.027 4.744 4.744 0 0 0-.5-.064c-.522-.044-1.193-.044-2.156-.044H7.033c-.963 0-1.634 0-2.157.044-.195.016-.359.038-.499.064Zm12.965 1.558h-.78c-.628 0-1.233.242-1.688.676l-2.472 2.354c-.309.294-.576.55-.814.742-.252.203-.525.383-.857.484a2.5 2.5 0 0 1-1.462 0c-.332-.101-.605-.28-.857-.484a14.583 14.583 0 0 1-.814-.742L5.126 6.509a2.448 2.448 0 0 0-1.688-.676h-.78c-.05.18-.089.407-.114.71C2.501 7.065 2.5 7.737 2.5 8.7v2.6c0 .963 0 1.634.044 2.157.043.512.122.806.238 1.029a2.5 2.5 0 0 0 1.066 1.066c.222.115.516.195 1.028.237.523.044 1.194.044 2.157.044h5.934c.963 0 1.634 0 2.157-.044.512-.042.806-.122 1.028-.237a2.5 2.5 0 0 0 1.067-1.066c.115-.223.194-.517.237-1.03.043-.521.044-1.193.044-2.156V8.7c0-.963 0-1.635-.044-2.157a3.82 3.82 0 0 0-.114-.71Z" fill="currentColor"/></symbol><symbol fill="none" viewBox="0 0 21 30" id="map-pin" xmlns="http://www.w3.org/2000/svg"><path d="M5.765 22.223a30.305 30.305 0 0 1 2.361 3.486c.603 1.143.854 1.918 1.294 3.295.27.761.514.988 1.038.988.572 0 .831-.386 1.032-.984.416-1.3.742-2.293 1.257-3.23 1.01-1.811 2.267-3.42 3.5-4.967.335-.437 2.495-2.987 3.467-4.999 0 0 1.195-2.21 1.195-5.296 0-2.887-1.179-4.89-1.179-4.89l-3.393.91-2.06 5.432-.51.75-.102.135-.136.17-.238.27-.34.341-1.835 1.496-4.588 2.652-.763 4.441Z" fill="#FF6000"/><path d="M1.03 15.44C2.15 18 4.31 20.25 5.77 22.226l7.76-9.199s-1.094 1.431-3.077 1.431a3.976 3.976 0 0 1-3.993-3.991c0-1.527.917-2.575.917-2.575L2.11 9.303l-1.08 6.138ZM13.616.473c2.577.832 4.783 2.577 6.117 5.152L13.53 13.02s.918-1.068.918-2.585c0-2.277-1.916-3.979-3.986-3.979-1.958 0-3.083 1.429-3.083 1.429v-4.66L13.616.473Z" fill="#FF6000"/><path d="M2.452 3.741C3.99 1.898 6.699 0 10.433 0c1.812 0 3.176.476 3.176.476L7.375 7.89H2.957L2.452 3.74Z" fill="#FF6000"/><path d="M1.03 15.44S0 13.423 0 10.498c0-2.764 1.074-5.18 2.452-6.756l4.925 4.15-6.347 7.55Z" fill="#FF6000"/></symbol><symbol fill="none" viewBox="0 0 20 20" id="palette" xmlns="http://www.w3.org/2000/svg"><path d="M6.667 8.75a1.25 1.25 0 1 1-2.5 0 1.25 1.25 0 0 1 2.5 0ZM8.75 6.667a1.25 1.25 0 1 0 0-2.5 1.25 1.25 0 0 0 0 2.5ZM14.167 5.417a1.25 1.25 0 1 1-2.5 0 1.25 1.25 0 0 1 2.5 0ZM6.25 14.167a1.25 1.25 0 1 0 0-2.5 1.25 1.25 0 0 0 0 2.5Z" fill="currentColor"/><path fill-rule="evenodd" clip-rule="evenodd" d="M.833 10A9.167 9.167 0 0 1 10 .833c4.976 0 9.167 3.625 9.167 8.334v.012c0 .44 0 1.192-.265 2.07-.694 2.299-3.219 2.915-5.157 2.42a41.61 41.61 0 0 1-1.198-.327c-.671-.193-1.282.4-1.159 1.018l.265 1.323.095.573c.248 1.485-.913 2.995-2.568 2.785-2.805-.355-4.914-1.457-6.317-3.097C1.464 14.309.833 12.218.833 10ZM10 2.5A7.5 7.5 0 0 0 2.5 10c0 1.905.539 3.586 1.63 4.86 1.086 1.27 2.787 2.214 5.26 2.528.389.05.806-.312.714-.858l-.09-.546-.26-1.298c-.382-1.909 1.448-3.465 3.254-2.946.377.109.766.216 1.15.314 1.488.38 2.82-.2 3.148-1.287.191-.633.194-1.179.194-1.6C17.5 5.542 14.229 2.5 10 2.5Z" fill="currentColor"/></symbol><symbol fill="none" stroke="currentColor" stroke-width="1.5" stroke-linecap="round" stroke-linejoin="round" class="aifeather aifeather-pause" viewBox="0 0 24 24" id="pause" xmlns="http://www.w3.org/2000/svg"><path d="M6 4h4v16H6zM14 4h4v16h-4z"/></symbol><symbol fill="none" viewBox="0 0 20 20" id="phone" xmlns="http://www.w3.org/2000/svg"><path fill-rule="evenodd" clip-rule="evenodd" d="M7.007 3.284c-.56-.412-.936-.506-1.138-.466-.835.163-1.33.488-2 1.158-.914.914-1.358 1.597-1.165 2.633.223 1.192 1.31 3.012 4.307 6.008 2.996 2.997 4.827 4.096 6.026 4.323.555.105.978.023 1.358-.164.406-.2.797-.537 1.245-1.005.398-.414.639-.704.808-.989.16-.271.275-.571.363-1.022.04-.202-.054-.58-.467-1.14-.385-.521-.928-1.04-1.43-1.463-.33-.28-.843-.297-1.257.013l-1.266.947a2.866 2.866 0 0 1-3.743-.275l-.862-.862a2.866 2.866 0 0 1-.275-3.743l.947-1.265c.31-.414.292-.927.013-1.258-.423-.502-.942-1.045-1.464-1.43Zm.99-1.341c.674.497 1.29 1.153 1.748 1.696.836.991.768 2.37.048 3.331l-.948 1.266a1.2 1.2 0 0 0 .12 1.565l.862.863a1.2 1.2 0 0 0 1.566.119l1.265-.947c.962-.72 2.34-.789 3.33.047.545.458 1.2 1.074 1.698 1.749.47.637.942 1.519.76 2.447-.116.597-.287 1.085-.564 1.553-.27.454-.62.855-1.038 1.293-.486.506-1.04 1.014-1.712 1.346-.7.344-1.49.48-2.406.306-1.744-.33-3.89-1.777-6.894-4.781-3.004-3.004-4.441-5.14-4.766-6.881-.354-1.898.632-3.124 1.625-4.118.82-.82 1.599-1.369 2.858-1.615.929-.181 1.81.291 2.447.76Z" fill="currentColor"/></symbol><symbol fill="none" stroke="currentColor" stroke-width="1.5" stroke-linecap="round" stroke-linejoin="round" class="agfeather agfeather-play" viewBox="0 0 24 24" id="play" xmlns="http://www.w3.org/2000/svg"><path d="m5 3 14 9-14 9V3z"/></symbol><symbol fill="none" viewBox="0 0 20 20" id="search" xmlns="http://www.w3.org/2000/svg"><path fill-rule="evenodd" clip-rule="evenodd" d="M9.167 4.167a5 5 0 1 0 0 10 5 5 0 0 0 0-10Zm-6.667 5a6.667 6.667 0 1 1 11.933 4.088l2.823 2.822a.833.833 0 1 1-1.179 1.179l-2.822-2.823A6.667 6.667 0 0 1 2.5 9.166Z" fill="currentColor"/></symbol><symbol fill="none" viewBox="0 0 20 20" id="status" xmlns="http://www.w3.org/2000/svg"><path d="M10 8.333c.46 0 .833.373.833.834v4.166a.833.833 0 0 1-1.666 0V9.167c0-.46.373-.834.833-.834ZM10 5.833A.833.833 0 1 1 10 7.5a.833.833 0 0 1 0-1.667Z" fill="currentColor"/><path fill-rule="evenodd" clip-rule="evenodd" d="M1.667 10a8.333 8.333 0 1 1 16.666 0 8.333 8.333 0 0 1-16.666 0ZM10 3.333a6.667 6.667 0 1 0 0 13.334 6.667 6.667 0 0 0 0-13.334Z" fill="currentColor"/></symbol><symbol fill="none" viewBox="0 0 20 20" id="time" xmlns="http://www.w3.org/2000/svg"><path fill-rule="evenodd" clip-rule="evenodd" d="M10 3.333a6.667 6.667 0 1 0 0 13.334 6.667 6.667 0 0 0 0-13.334ZM1.667 10a8.333 8.333 0 1 1 16.666 0 8.333 8.333 0 0 1-16.666 0Zm8.19-4.369c.46 0 .833.373.833.833v4.14l2.94 1.117a.833.833 0 0 1-.593 1.558l-3.476-1.322a.833.833 0 0 1-.537-.779V6.464c0-.46.373-.833.833-.833Z" fill="currentColor"/></symbol><symbol fill="none" viewBox="0 0 22 20" id="twitter" xmlns="http://www.w3.org/2000/svg"><path d="M17.317 0h3.358L13.34 8.489 22 20h-6.803l-5.301-6.978L3.799 20H.442l7.863-9.067L0 0h6.98l4.815 6.4L17.317 0Zm-1.192 17.956h1.855L5.964 1.91H3.932l12.193 16.045Z" fill="currentColor"/></symbol><symbol fill="none" viewBox="0 0 20 20" id="user" xmlns="http://www.w3.org/2000/svg"><path fill-rule="evenodd" clip-rule="evenodd" d="M10 4.167a2.5 2.5 0 1 0 0 5 2.5 2.5 0 0 0 0-5Zm-4.167 2.5a4.167 4.167 0 1 1 8.333 0 4.167 4.167 0 0 1-8.333 0Zm.38 7.272c-.878.39-1.213.883-1.213 1.478 0 .186.033.292.08.368.049.076.163.206.471.346.66.298 1.962.536 4.449.536 2.486 0 3.789-.238 4.448-.536.308-.14.423-.27.47-.346.049-.076.082-.182.082-.368 0-.595-.335-1.088-1.214-1.478-.902-.4-2.226-.606-3.786-.606s-2.885.205-3.787.606Zm-.676-1.524c1.209-.536 2.801-.748 4.463-.748 1.661 0 3.254.212 4.463.748 1.232.548 2.203 1.514 2.203 3.002 0 .389-.07.831-.335 1.253-.265.422-.671.742-1.196.98-1.008.455-2.622.683-5.135.683-2.514 0-4.128-.228-5.135-.684-.525-.237-.932-.557-1.196-.979-.265-.422-.336-.864-.336-1.253 0-1.489.971-2.454 2.204-3.002Z" fill="currentColor"/></symbol><symbol fill="none" viewBox="0 0 20 20" id="warning" xmlns="http://www.w3.org/2000/svg"><path d="M10 5.833c.46 0 .833.373.833.834v4.166a.833.833 0 0 1-1.666 0V6.667c0-.46.373-.834.833-.834ZM10 14.167a.833.833 0 1 0 0-1.667.833.833 0 0 0 0 1.667Z" fill="currentColor"/><path fill-rule="evenodd" clip-rule="evenodd" d="M1.667 10a8.333 8.333 0 1 1 16.666 0 8.333 8.333 0 0 1-16.666 0ZM10 3.333a6.667 6.667 0 1 0 0 13.334 6.667 6.667 0 0 0 0-13.334Z" fill="currentColor"/></symbol></svg>