<svg width="164" height="66" viewBox="0 0 164 66" fill="none" xmlns="http://www.w3.org/2000/svg">
<g clip-path="url(#clip0_11175_15946)">
<mask id="mask0_11175_15946" style="mask-type:luminance" maskUnits="userSpaceOnUse" x="0" y="2" width="60" height="61">
<path d="M60 2.74219H0V62.7422H60V2.74219Z" fill="white"/>
</mask>
<g mask="url(#mask0_11175_15946)">
<path d="M28.628 2.77C40.3313 2.24895 52.131 9.02618 57.0699 19.6717C66.683 40.3947 51.4676 63.7736 28.5367 62.7073C9.52449 61.8234 -3.72268 43.6593 0.938685 25.2365C4.17325 12.4511 15.4101 3.35877 28.628 2.77ZM41.542 33.0843C40.7672 34.0701 40.1922 35.3254 39.8134 36.5193C39.3483 37.9848 39.2348 39.935 37.9272 40.9087C37.4813 40.975 37.1317 39.5643 37.0718 39.225C36.7643 37.473 37.1025 35.7502 38.0485 34.2583C38.9416 32.8498 40.3513 31.8854 40.9734 30.2738C41.0455 30.0863 41.3558 29.1141 41.3223 28.9993C41.2295 28.6793 40.2957 29.0877 40.0909 29.1782C32.9433 32.338 31.6549 42.9936 34.0762 49.5513C35.7748 54.1516 40.2907 56.8061 44.9392 54.317C51.1151 51.0096 55.4341 42.8831 56.2859 36.1016C58.7535 16.4613 39.5345 1.28312 20.9082 8.01758C5.26476 13.6743 -1.31566 31.4 7.03542 45.9502C9.50166 50.2477 15.6005 57.4882 21.1358 54.3177C26.0797 51.4858 28.0551 43.6729 25.7815 38.6142C24.6907 36.1871 22.3985 34.4515 20.1977 33.0843C20.0386 33.0843 20.6743 35.4358 20.7106 35.634C21.0431 37.4402 21.1109 39.2628 20.782 41.0755C20.7221 41.4062 20.5908 42.4419 20.1371 42.3991C18.5098 41.0997 17.3833 38.6156 17.2406 36.5385C17.0973 34.46 17.6273 33.3516 17.9334 31.4642C18.1895 29.8839 17.7864 28.4712 17.3819 26.9615L17.2378 27.0655C16.8026 31.0401 14.6317 34.527 16.0272 38.5344C17.0459 41.4611 17.8806 43.2088 17.2906 46.4877C17.0987 47.5526 16.9068 48.6061 15.898 47.3509C14.8379 46.0315 14.0047 43.4156 13.8912 41.7369C13.7764 40.0419 14.173 38.2777 13.8185 36.5749C13.6237 36.6754 13.5816 36.9662 13.5153 37.1615C12.8889 38.9927 12.8147 40.9108 12.5272 42.7969C12.4409 43.3614 12.2625 44.8782 11.5249 43.7456C10.3799 41.9885 10.6666 38.8302 11.2745 36.9163C11.8074 35.2377 12.6742 34.1849 13.4753 32.7066C14.5097 30.7977 14.4512 28.6893 15.0833 26.6229C15.7789 24.3484 17.1379 22.4858 17.7336 20.1564C17.852 19.6938 17.9612 19.2227 18.019 18.7472C17.9519 18.6296 17.9305 18.6246 17.8057 18.6603C17.3298 18.7957 16.5815 19.5919 16.2975 20.0032C14.0375 23.2777 15.674 27.1083 12.4309 30.1683C12.1391 30.4442 11.7539 30.6224 11.5006 30.9481C10.9063 31.7136 11.2424 32.3879 11.181 33.2633C11.0733 34.7986 10.2008 37.1287 9.35826 38.421C9.03581 38.9157 8.63915 39.6663 8.19684 38.8102C7.46989 37.4039 7.39855 34.9041 7.73741 33.3837C8.24036 31.1284 9.47526 29.9167 10.6131 28.0684C11.5498 26.5473 11.5841 25.0711 12.072 23.4025C12.3496 22.4545 12.7184 21.5321 13.1051 20.6262C12.0749 20.9255 11.2659 21.9826 10.7972 22.9128C9.54375 25.4004 10.3228 28.211 7.83158 30.2039C7.6411 30.3565 7.4492 30.5411 7.18809 30.4185C6.90987 30.2759 6.82426 28.6379 6.82996 28.2773C6.8849 25.0704 8.44725 21.9712 10.7865 19.8399C11.3836 19.2961 12.2761 18.7864 12.7847 18.2048C13.3868 17.5162 13.7721 16.4314 14.3578 15.6466C15.9016 13.5781 18.7352 11.9429 21.2849 11.5302C21.9049 11.4297 22.5691 11.449 23.1812 11.3599C24.8027 11.1232 25.9349 9.91788 27.5721 9.48023C29.9578 8.84299 30.9187 9.39327 33.1146 9.78317C34.2924 9.99201 35.2248 9.9079 36.4654 10.2807C37.9707 10.7333 38.9409 11.5723 40.2607 12.114C41.9222 12.7961 43.1757 12.9109 44.8144 13.973C47.0359 15.4128 47.3498 16.4193 48.7837 18.4101C49.4686 19.361 50.3475 20.1664 51.0367 21.1436C52.7182 23.5265 53.7968 26.9857 53.5899 29.921C53.5286 30.7884 53.3809 31.4848 52.5526 30.5953C51.2172 29.1604 51.6894 28.0991 51.5189 26.3584C51.3812 24.9528 50.966 23.5251 50.095 22.4053L50.5209 25.9308C50.6536 27.0712 50.5052 28.2951 50.5901 29.422C50.685 30.6879 51.5154 31.8106 51.9491 32.9781C52.6126 34.7637 52.8566 37.5115 51.937 39.2365C51.4961 40.0633 51.2336 39.848 50.7056 39.2051C49.1098 37.2592 49.2196 34.9355 49.0884 32.6324C48.9842 30.7984 48.477 30.6045 47.8513 29.097C46.7299 26.3969 47.7771 23.8515 47.2235 21.108C46.8233 19.1243 44.8408 16.3572 43.3241 15.0343C43.2035 14.9295 42.4173 14.2837 42.3253 14.3593C43.5623 15.9766 44.4313 17.7686 44.9563 19.7409C45.6783 22.4516 46.2412 25.2194 46.6828 27.985C46.9817 29.8582 47.673 31.6345 48.004 33.5006C48.5019 36.3069 48.5162 39.8544 47.3683 42.5053C46.8675 43.6615 46.5715 43.4669 46.1392 42.4141C45.3844 40.5758 44.9128 36.6504 44.8201 34.6168C44.7102 32.2083 45.1668 29.8112 45.0362 27.4219C45.0155 27.0449 44.9913 26.4839 44.7837 26.1802C44.6367 26.1817 44.2543 27.7149 44.2001 27.9458C43.7607 29.7991 43.4061 32.2219 43.5374 34.1179C43.6094 35.1579 43.914 36.2007 43.9668 37.2492C44.0553 39.0133 43.6002 41.7633 42.7912 43.3436C41.9165 45.0528 41.4999 44.2823 41.0776 42.913C40.3927 40.692 40.5347 38.5229 40.9927 36.2769C41.2074 35.2241 41.614 34.1863 41.5398 33.0858L41.542 33.0843ZM37.278 26.2365C37.1467 26.027 37.375 24.7133 37.4306 24.384C37.9771 21.1394 39.8455 17.0736 37.9643 13.9794C37.3265 12.9301 36.1044 11.9515 34.8424 11.8652C35.0301 12.201 35.3183 12.4561 35.5423 12.7676C38.3802 16.7144 37.3864 21.7303 35.4738 25.8467C34.7019 27.5089 33.6589 29.0578 33.1131 30.8227C32.984 31.2403 32.9448 31.6823 32.7757 32.0864C32.9662 32.1263 32.8984 32.0373 32.9526 31.9467C34.241 29.782 37.1481 26.8004 39.7927 26.6015C40.6966 26.5338 41.6383 26.9836 41.9486 25.9065C42.5265 23.9007 42.015 20.5834 41.4007 18.5911C41.2545 18.1164 41.0861 17.5013 40.7587 17.1328C40.7194 19.316 40.474 21.5877 39.6722 23.632C39.4061 24.3099 38.4829 26.1909 37.7474 26.3442C37.6311 26.3684 37.3329 26.3242 37.278 26.2365ZM31.1356 21.4772C31.3717 20.9091 31.6507 20.3795 31.829 19.7836C32.3469 18.053 32.4782 15.6901 31.8326 13.9815C30.9779 11.7205 28.8028 11.548 26.9322 12.7534C28.1443 13.3471 29.1966 14.1041 29.8664 15.3052C30.6983 16.797 30.8731 18.8962 30.9936 20.5877C31.0115 20.8414 30.9637 21.1301 30.9936 21.3717C31.0065 21.4708 31.0321 21.5785 31.1356 21.4772ZM20.8733 14.1433C18.9072 14.1704 17.0273 15.3857 15.9558 16.9909C16.819 16.6844 17.8271 16.7079 18.6789 16.472C19.6684 16.1976 20.5145 15.0657 20.8733 14.1433ZM26.4328 34.2234C26.0333 31.7008 26.1746 29.0877 26.6675 26.5894C26.9493 25.1617 27.4544 23.7318 27.6342 22.2855C27.9267 19.9305 27.677 16.4079 25.5732 14.8946C24.5858 14.1839 23.9088 14.0948 23.3074 15.256C22.2173 17.3609 23.7761 18.0558 24.5937 19.7188C25.3863 21.3311 25.7137 23.426 25.4976 25.2066C25.3435 26.4753 24.9033 27.7013 24.5965 28.9352C24.2948 29.4783 23.7833 28.6622 23.6163 28.3856C22.1474 25.945 22.1246 23.2963 21.4233 20.6782C21.3691 20.4743 21.0217 19.341 20.8376 19.3417C19.6705 22.0867 18.8629 25.2629 20.2897 28.077C21.4148 30.2952 23.2653 31.5048 25.0795 33.0473C25.4548 33.3659 25.8578 33.8406 26.2181 34.1172C26.2894 34.1721 26.3094 34.2555 26.4328 34.2234ZM31.065 28.3842C31.7477 26.9386 32.7857 25.692 33.5726 24.302C34.7504 22.2228 35.426 20.0901 35.1314 17.6645C35.1185 17.559 35.1235 17.4842 35.0208 17.4186C34.8752 17.3844 34.9245 17.4778 34.881 17.5583C34.6676 17.9482 34.485 18.363 34.3102 18.7715C33.2786 21.1878 31.1955 25.6556 30.9965 28.1361C30.9901 28.2145 30.943 28.402 31.065 28.3842Z" fill="#FBBF24"/>
</g>
</g>
<g clip-path="url(#clip1_11175_15946)">
<path d="M141.659 64.9902C141.337 64.9902 141.023 64.9611 140.716 64.9029C140.409 64.8592 140.131 64.772 139.883 64.641V62.2627C140.073 62.3063 140.299 62.35 140.562 62.3936C140.84 62.4372 141.096 62.4591 141.33 62.4591C141.987 62.4591 142.462 62.3063 142.755 62.0008C143.062 61.7099 143.332 61.3172 143.566 60.8226L144.355 58.9897L144.311 61.3899L139.115 48.3198H142.207L145.846 57.9642H144.75L148.368 48.3198H151.481L146.285 61.3899C145.978 62.1463 145.605 62.7937 145.167 63.3319C144.728 63.8701 144.216 64.2774 143.632 64.5538C143.062 64.8448 142.404 64.9902 141.659 64.9902Z" fill="white"/>
<path d="M132.012 60.1899V48.3199H134.709V50.9601L134.489 50.5673C134.767 49.68 135.198 49.0618 135.783 48.7126C136.382 48.3635 137.098 48.189 137.931 48.189H138.633V50.7201H137.603C136.784 50.7201 136.126 50.9746 135.629 51.4838C135.132 51.9783 134.884 52.6765 134.884 53.5785V60.1899H132.012Z" fill="white"/>
<path d="M122.911 60.4518C122.077 60.4518 121.354 60.3136 120.74 60.0372C120.126 59.7609 119.651 59.3681 119.315 58.8589C118.979 58.3352 118.811 57.7316 118.811 57.0479C118.811 56.3933 118.957 55.8115 119.249 55.3023C119.541 54.7786 119.994 54.3422 120.608 53.9931C121.222 53.644 121.997 53.3967 122.932 53.2512L126.835 52.6184V54.8004L123.481 55.3677C122.911 55.4696 122.487 55.6514 122.209 55.9132C121.931 56.1751 121.792 56.517 121.792 56.9388C121.792 57.3461 121.946 57.6734 122.253 57.9207C122.574 58.1534 122.969 58.2698 123.437 58.2698C124.036 58.2698 124.562 58.1462 125.015 57.8988C125.483 57.637 125.841 57.2806 126.09 56.8297C126.353 56.3788 126.484 55.8842 126.484 55.3459V52.2912C126.484 51.7821 126.28 51.3602 125.87 51.0256C125.476 50.6765 124.95 50.5019 124.292 50.5019C123.678 50.5019 123.13 50.6692 122.647 51.0038C122.18 51.3238 121.836 51.753 121.617 52.2912L119.271 51.1565C119.505 50.5311 119.87 49.9928 120.367 49.5419C120.879 49.0764 121.478 48.7127 122.165 48.4509C122.852 48.189 123.597 48.0581 124.401 48.0581C125.381 48.0581 126.243 48.24 126.989 48.6036C127.734 48.9527 128.311 49.4473 128.721 50.0873C129.145 50.7129 129.356 51.4475 129.356 52.2912V60.1899H126.638V58.1607L127.252 58.117C126.945 58.6262 126.579 59.0553 126.155 59.4044C125.731 59.739 125.249 60.0009 124.708 60.1899C124.168 60.3645 123.568 60.4518 122.911 60.4518Z" fill="white"/>
<path d="M99.0371 60.1899V48.3199H101.734V51.0692L101.427 50.611C101.646 49.7528 102.085 49.1128 102.742 48.6909C103.4 48.2691 104.175 48.0581 105.066 48.0581C106.046 48.0581 106.908 48.3127 107.654 48.8218C108.399 49.331 108.881 50.0001 109.101 50.8292L108.289 50.8947C108.655 49.9492 109.203 49.2437 109.934 48.7782C110.665 48.2981 111.505 48.0581 112.455 48.0581C113.303 48.0581 114.056 48.2472 114.714 48.6254C115.386 49.0037 115.912 49.5346 116.292 50.2183C116.672 50.8874 116.862 51.6657 116.862 52.553V60.1899H113.99V53.2294C113.99 52.7057 113.895 52.2548 113.705 51.8766C113.515 51.4984 113.252 51.2075 112.916 51.0038C112.58 50.7856 112.17 50.6765 111.688 50.6765C111.235 50.6765 110.833 50.7856 110.482 51.0038C110.131 51.2075 109.861 51.4984 109.671 51.8766C109.481 52.2548 109.386 52.7057 109.386 53.2294V60.1899H106.514V53.2294C106.514 52.7057 106.419 52.2548 106.229 51.8766C106.039 51.4984 105.768 51.2075 105.417 51.0038C105.081 50.7856 104.679 50.6765 104.211 50.6765C103.758 50.6765 103.356 50.7856 103.006 51.0038C102.655 51.2075 102.384 51.4984 102.194 51.8766C102.004 52.2548 101.909 52.7057 101.909 53.2294V60.1899H99.0371Z" fill="white"/>
<path d="M93.5137 60.1901V48.3201H96.3858V60.1901H93.5137ZM93.5137 46.9891V43.9343H96.3858V46.9891H93.5137Z" fill="white"/>
<path d="M85.3125 60.1899V48.3199H88.0093V50.9601L87.79 50.5673C88.0678 49.68 88.499 49.0618 89.0836 48.7126C89.683 48.3635 90.3991 48.189 91.2323 48.189H91.9339V50.7201H90.9034C90.0849 50.7201 89.4271 50.9746 88.9301 51.4838C88.4332 51.9783 88.1847 52.6765 88.1847 53.5785V60.1899H85.3125Z" fill="white"/>
<path d="M71.3379 60.1901V43.9343H77.4331C78.5439 43.9343 79.5232 44.1379 80.371 44.5453C81.2334 44.938 81.9058 45.5198 82.3881 46.2909C82.8705 47.0472 83.1116 47.971 83.1116 49.062C83.1116 50.1384 82.8632 51.0621 82.3662 51.8331C81.8838 52.5895 81.2188 53.1713 80.371 53.5787C79.5232 53.9859 78.5439 54.1896 77.4331 54.1896H74.3197V60.1901H71.3379ZM74.3197 51.5713H77.4769C78.0177 51.5713 78.4855 51.4694 78.8801 51.2658C79.2748 51.0476 79.5817 50.7493 79.801 50.3712C80.0202 49.9929 80.1298 49.5565 80.1298 49.062C80.1298 48.5528 80.0202 48.1164 79.801 47.7528C79.5817 47.3745 79.2748 47.0836 78.8801 46.88C78.4855 46.6618 78.0177 46.5527 77.4769 46.5527H74.3197V51.5713Z" fill="white"/>
<path d="M148.59 40.3536L144.49 28.4836H147.516L150.52 37.4952L149.467 37.4734L152.668 28.4836H155.212L158.391 37.4734L157.338 37.4952L160.342 28.4836H163.368L159.268 40.3536H156.702L153.458 30.9493H154.422L151.134 40.3536H148.59Z" fill="#FBBF24"/>
<path d="M137.328 40.6156C136.159 40.6156 135.092 40.3465 134.127 39.8082C133.177 39.2701 132.417 38.5355 131.847 37.6044C131.291 36.6735 131.014 35.6116 131.014 34.4187C131.014 33.226 131.291 32.1641 131.847 31.2331C132.417 30.3021 133.177 29.5675 134.127 29.0293C135.077 28.4911 136.144 28.2219 137.328 28.2219C138.497 28.2219 139.557 28.4911 140.507 29.0293C141.457 29.5675 142.21 30.3021 142.765 31.2331C143.336 32.1495 143.621 33.2114 143.621 34.4187C143.621 35.6116 143.336 36.6735 142.765 37.6044C142.195 38.5355 141.435 39.2701 140.485 39.8082C139.535 40.3465 138.483 40.6156 137.328 40.6156ZM137.328 37.9972C137.971 37.9972 138.534 37.8445 139.016 37.539C139.513 37.2335 139.901 36.8117 140.178 36.2734C140.471 35.7207 140.617 35.1025 140.617 34.4187C140.617 33.7205 140.471 33.1096 140.178 32.5859C139.901 32.0477 139.513 31.6258 139.016 31.3203C138.534 31.0004 137.971 30.8403 137.328 30.8403C136.67 30.8403 136.093 31.0004 135.596 31.3203C135.099 31.6258 134.704 32.0477 134.412 32.5859C134.134 33.1096 133.995 33.7205 133.995 34.4187C133.995 35.1025 134.134 35.7207 134.412 36.2734C134.704 36.8117 135.099 37.2335 135.596 37.539C136.093 37.8445 136.67 37.9972 137.328 37.9972Z" fill="#FBBF24"/>
<path d="M122.313 40.6156C121.158 40.6156 120.127 40.3465 119.221 39.8083C118.315 39.2556 117.599 38.5063 117.073 37.5608C116.546 36.6154 116.283 35.568 116.283 34.4188C116.283 33.2551 116.546 32.2078 117.073 31.2767C117.599 30.3457 118.315 29.6039 119.221 29.0511C120.142 28.4984 121.165 28.222 122.291 28.222C123.197 28.222 124.001 28.4038 124.702 28.7675C125.419 29.1166 125.981 29.6112 126.391 30.2512L125.952 30.8403V23.8362H128.824V40.3538H126.106V38.0627L126.413 38.63C126.003 39.27 125.433 39.7646 124.702 40.1138C123.972 40.4483 123.175 40.6156 122.313 40.6156ZM122.62 37.9972C123.277 37.9972 123.855 37.8445 124.352 37.539C124.849 37.2335 125.236 36.8117 125.514 36.2735C125.806 35.7352 125.952 35.117 125.952 34.4188C125.952 33.7351 125.806 33.1242 125.514 32.5859C125.236 32.0332 124.849 31.604 124.352 31.2986C123.855 30.9931 123.277 30.8403 122.62 30.8403C121.976 30.8403 121.399 31.0003 120.887 31.3204C120.376 31.6259 119.974 32.0477 119.682 32.5859C119.404 33.1096 119.265 33.7206 119.265 34.4188C119.265 35.117 119.404 35.7352 119.682 36.2735C119.974 36.8117 120.376 37.2335 120.887 37.539C121.399 37.8445 121.976 37.9972 122.62 37.9972Z" fill="#FBBF24"/>
<path d="M107.664 40.6156C106.831 40.6156 106.108 40.4774 105.494 40.201C104.88 39.9247 104.405 39.5319 104.069 39.0227C103.733 38.4991 103.564 37.8954 103.564 37.2117C103.564 36.5571 103.711 35.9753 104.003 35.4661C104.295 34.9424 104.748 34.506 105.362 34.1569C105.976 33.8078 106.751 33.5605 107.686 33.415L111.589 32.7823V34.9642L108.234 35.5316C107.664 35.6334 107.241 35.8152 106.963 36.0771C106.685 36.3389 106.546 36.6808 106.546 37.1026C106.546 37.5099 106.7 37.8372 107.007 38.0845C107.328 38.3173 107.723 38.4336 108.191 38.4336C108.79 38.4336 109.316 38.31 109.769 38.0627C110.237 37.8008 110.595 37.4445 110.844 36.9935C111.107 36.5426 111.238 36.048 111.238 35.5097V32.455C111.238 31.9459 111.034 31.5241 110.624 31.1894C110.23 30.8403 109.703 30.6657 109.046 30.6657C108.432 30.6657 107.884 30.8331 107.401 31.1676C106.934 31.4877 106.59 31.9168 106.371 32.455L104.025 31.3203C104.259 30.6949 104.624 30.1566 105.121 29.7057C105.633 29.2402 106.232 28.8765 106.919 28.6147C107.606 28.3528 108.351 28.2219 109.155 28.2219C110.135 28.2219 110.997 28.4038 111.742 28.7674C112.488 29.1165 113.065 29.6112 113.475 30.2512C113.898 30.8767 114.11 31.6113 114.11 32.455V40.3537H111.392V38.3245L112.006 38.2809C111.699 38.7901 111.333 39.2191 110.909 39.5682C110.485 39.9029 110.003 40.1647 109.462 40.3537C108.921 40.5283 108.322 40.6156 107.664 40.6156Z" fill="#FBBF24"/>
<path d="M96.3226 40.6156C95.0948 40.6156 94.0205 40.3393 93.0996 39.7864C92.1788 39.2337 91.4625 38.4846 90.951 37.539C90.4393 36.5935 90.1836 35.5461 90.1836 34.3969C90.1836 33.2042 90.4393 32.1495 90.951 31.2331C91.4772 30.3021 92.186 29.5675 93.0777 29.0293C93.9839 28.4911 94.9925 28.2219 96.1034 28.2219C97.0388 28.2219 97.8574 28.3747 98.559 28.6801C99.2751 28.9856 99.8817 29.4075 100.379 29.9457C100.876 30.4839 101.256 31.1021 101.519 31.8004C101.782 32.4841 101.913 33.226 101.913 34.026C101.913 34.2297 101.899 34.4406 101.87 34.6588C101.855 34.877 101.818 35.0661 101.76 35.2261H92.5515V33.0441H100.138L98.7782 34.0696C98.9098 33.4006 98.8732 32.8041 98.6686 32.2804C98.4785 31.7567 98.1569 31.3422 97.7039 31.0367C97.2654 30.7312 96.7318 30.5785 96.1034 30.5785C95.504 30.5785 94.9705 30.7312 94.5028 31.0367C94.035 31.3277 93.6769 31.7641 93.4285 32.3459C93.1946 32.9132 93.1069 33.6042 93.1654 34.4187C93.1069 35.1461 93.2019 35.7934 93.4504 36.3607C93.7135 36.9136 94.0935 37.3426 94.5905 37.6481C95.1021 37.9536 95.6868 38.1063 96.3445 38.1063C97.0023 38.1063 97.5577 37.9681 98.0108 37.6917C98.4785 37.4154 98.844 37.0445 99.1071 36.5789L101.431 37.7135C101.197 38.2809 100.832 38.7827 100.335 39.2191C99.8379 39.6555 99.2459 39.9974 98.559 40.2446C97.8866 40.492 97.1411 40.6156 96.3226 40.6156Z" fill="#FBBF24"/>
<path d="M71.3379 40.3539V24.0981H74.1881L80.3052 32.3679H78.9459L84.9314 24.0981H87.7817V40.3539H84.7779V27.4802L85.94 27.7639L79.7352 35.9899H79.3844L73.3331 27.7639L74.3197 27.4802V40.3539H71.3379Z" fill="#FBBF24"/>
<path d="M127.114 20.5177L123.014 8.64771H126.039L129.043 17.6593L127.991 17.6375L131.192 8.64771H133.735L136.914 17.6375L135.862 17.6593L138.865 8.64771H141.891L137.791 20.5177H135.226L131.981 11.1133H132.946L129.657 20.5177H127.114Z" fill="#FBBF24"/>
<path d="M115.853 20.7794C114.684 20.7794 113.617 20.5103 112.652 19.9721C111.702 19.4339 110.942 18.6992 110.372 17.7683C109.817 16.8373 109.539 15.7754 109.539 14.5826C109.539 13.3898 109.817 12.3279 110.372 11.3969C110.942 10.4659 111.702 9.7313 112.652 9.19308C113.602 8.65485 114.67 8.38574 115.853 8.38574C117.023 8.38574 118.083 8.65485 119.033 9.19308C119.983 9.7313 120.735 10.4659 121.291 11.3969C121.861 12.3133 122.146 13.3752 122.146 14.5826C122.146 15.7754 121.861 16.8373 121.291 17.7683C120.721 18.6992 119.961 19.4339 119.011 19.9721C118.061 20.5103 117.008 20.7794 115.853 20.7794ZM115.853 18.1611C116.497 18.1611 117.059 18.0083 117.542 17.7029C118.039 17.3974 118.426 16.9755 118.704 16.4373C118.996 15.8845 119.142 15.2663 119.142 14.5826C119.142 13.8843 118.996 13.2734 118.704 12.7497C118.426 12.2115 118.039 11.7896 117.542 11.4842C117.059 11.1641 116.497 11.0041 115.853 11.0041C115.196 11.0041 114.618 11.1641 114.121 11.4842C113.624 11.7896 113.23 12.2115 112.937 12.7497C112.66 13.2734 112.521 13.8843 112.521 14.5826C112.521 15.2663 112.66 15.8845 112.937 16.4373C113.23 16.9755 113.624 17.3974 114.121 17.7029C114.618 18.0083 115.196 18.1611 115.853 18.1611Z" fill="#FBBF24"/>
<path d="M104.498 20.5176V4H107.37V20.5176H104.498Z" fill="#FBBF24"/>
<path d="M98.9746 20.5176V4H101.847V20.5176H98.9746Z" fill="#FBBF24"/>
<path d="M93.4492 20.5175V8.6475H96.3214V20.5175H93.4492ZM93.4492 7.31649V4.26172H96.3214V7.31649H93.4492Z" fill="#FBBF24"/>
<path d="M74.385 20.5175L70 4.26172H73.2011L76.6433 18.1173H75.8101L79.4058 4.26172H82.4973L86.071 18.1173H85.2379L88.6801 4.26172H91.8812L87.4962 20.5175H84.0759L80.4582 7.03283H81.4229L77.8053 20.5175H74.385Z" fill="#FBBF24"/>
</g>
<defs>
<clipPath id="clip0_11175_15946">
<rect width="60" height="60" fill="white" transform="translate(0 2.74219)"/>
</clipPath>
<clipPath id="clip1_11175_15946">
<rect width="93.6797" height="61.4922" fill="white" transform="translate(70 4)"/>
</clipPath>
</defs>
</svg>
