<?xml version="1.0" encoding="UTF-8"?>
<svg xmlns="http://www.w3.org/2000/svg" xmlns:xlink="http://www.w3.org/1999/xlink" width="106px" height="32px" viewBox="0 0 106 32" version="1.1">
  <path style=" stroke:none;fill-rule:nonzero;fill:rgb(98.823529%,38.039216%,33.333334%);fill-opacity:1;" d="M 26.5 21 C 29.539062 21 32 23.460938 32 26.5 C 32 29.539062 29.539062 32 26.5 32 C 23.460938 32 21 29.539062 21 26.5 C 21 23.460938 23.460938 21 26.5 21 Z M 26.5 21 "/>
  <path style=" stroke:none;fill-rule:nonzero;fill:rgb(98.823529%,38.039216%,33.333334%);fill-opacity:1;" d="M 31.140625 10.859375 L 10 32 L 0 32 L 0 22 L 8 14 L 7 14 C 3.132812 14 0 10.867188 0 7 C 0 3.132812 3.132812 0 7 0 L 27.113281 0 C 29.8125 0 32 2.1875 32 4.886719 L 32 8.785156 C 32 9.5625 31.691406 10.308594 31.140625 10.859375 Z M 31.140625 10.859375 "/>
  <path style=" stroke:none;fill-rule:nonzero;fill:rgb(100%,100%,100%);fill-opacity:1;" d="M 43 19.21875 L 48.316406 13.03125 L 43.164062 13.03125 L 43.164062 11.164062 L 51.050781 11.164062 L 51.050781 12.78125 L 45.734375 18.96875 L 51.050781 18.96875 L 51.050781 20.835938 L 43 20.835938 Z M 43 19.21875 "/>
  <path style=" stroke:none;fill-rule:nonzero;fill:rgb(100%,100%,100%);fill-opacity:1;" d="M 52.140625 16.027344 L 52.140625 16 C 52.140625 13.25 54.3125 11 57.296875 11 C 60.277344 11 62.421875 13.226562 62.421875 15.972656 L 62.421875 16 C 62.421875 18.746094 60.253906 21 57.265625 21 C 54.28125 21 52.140625 18.777344 52.140625 16.027344 Z M 60.195312 16.027344 L 60.195312 16 C 60.195312 14.34375 58.980469 12.960938 57.265625 12.960938 C 55.554688 12.960938 54.367188 14.316406 54.367188 15.972656 L 54.367188 16 C 54.367188 17.65625 55.582031 19.039062 57.296875 19.039062 C 59.007812 19.039062 60.195312 17.683594 60.195312 16.027344 Z M 60.195312 16.027344 "/>
  <path style=" stroke:none;fill-rule:nonzero;fill:rgb(100%,100%,100%);fill-opacity:1;" d="M 63.789062 16.027344 L 63.789062 16 C 63.789062 13.25 65.957031 11 68.941406 11 C 71.921875 11 74.066406 13.226562 74.066406 15.972656 L 74.066406 16 C 74.066406 18.746094 71.898438 21 68.914062 21 C 65.925781 21 63.789062 18.777344 63.789062 16.027344 Z M 71.839844 16.027344 L 71.839844 16 C 71.839844 14.34375 70.625 12.960938 68.914062 12.960938 C 67.199219 12.960938 66.011719 14.316406 66.011719 15.972656 L 66.011719 16 C 66.011719 17.65625 67.226562 19.039062 68.941406 19.039062 C 70.652344 19.039062 71.839844 17.683594 71.839844 16.027344 Z M 71.839844 16.027344 "/>
  <path style=" stroke:none;fill-rule:nonzero;fill:rgb(100%,100%,100%);fill-opacity:1;" d="M 75.433594 16.027344 L 75.433594 16 C 75.433594 13.25 77.503906 11 80.476562 11 C 82.296875 11 83.390625 11.609375 84.289062 12.492188 L 82.933594 14.050781 C 82.191406 13.375 81.429688 12.960938 80.460938 12.960938 C 78.832031 12.960938 77.65625 14.316406 77.65625 15.972656 L 77.65625 16 C 77.65625 17.65625 78.804688 19.039062 80.460938 19.039062 C 81.566406 19.039062 82.246094 18.59375 83.003906 17.90625 L 84.355469 19.273438 C 83.363281 20.335938 82.257812 21 80.394531 21 C 77.546875 21 75.433594 18.804688 75.433594 16.027344 Z M 75.433594 16.027344 "/>
  <path style=" stroke:none;fill-rule:nonzero;fill:rgb(100%,100%,100%);fill-opacity:1;" d="M 85.910156 11.164062 L 88.039062 11.164062 L 88.039062 14.988281 L 91.960938 14.988281 L 91.960938 11.164062 L 94.085938 11.164062 L 94.085938 20.832031 L 91.960938 20.832031 L 91.960938 16.953125 L 88.039062 16.953125 L 88.039062 20.832031 L 85.910156 20.832031 Z M 85.910156 11.164062 "/>
  <path style=" stroke:none;fill-rule:nonzero;fill:rgb(100%,100%,100%);fill-opacity:1;" d="M 99.605469 11.097656 L 101.566406 11.097656 L 105.710938 20.835938 L 103.488281 20.835938 L 102.601562 18.667969 L 98.515625 18.667969 L 97.628906 20.835938 L 95.460938 20.835938 Z M 101.84375 16.789062 L 100.558594 13.652344 L 99.273438 16.789062 Z M 101.84375 16.789062 "/>
  <path style=" stroke:none;fill-rule:nonzero;fill:rgb(98.823529%,38.039216%,33.333334%);fill-opacity:1;" d="M 26.5 21 C 29.539062 21 32 23.460938 32 26.5 C 32 29.539062 29.539062 32 26.5 32 C 23.460938 32 21 29.539062 21 26.5 C 21 23.460938 23.460938 21 26.5 21 Z M 26.5 21 "/>
</svg>
